<?xml version="1.0" encoding="UTF-8" standalone="no"?>
<!-- Created with Inkscape (http://www.inkscape.org/) -->

<svg
   width="512"
   height="512"
   viewBox="0 0 512 512"
   version="1.1"
   id="svg1"
   inkscape:version="1.3.1 (9b9bdc1480, 2023-11-25, custom)"
   sodipodi:docname="neuralreef_plan.svg"
   xmlns:inkscape="http://www.inkscape.org/namespaces/inkscape"
   xmlns:sodipodi="http://sodipodi.sourceforge.net/DTD/sodipodi-0.dtd"
   xmlns="http://www.w3.org/2000/svg"
   xmlns:svg="http://www.w3.org/2000/svg">
  <sodipodi:namedview
     id="namedview1"
     pagecolor="#ffffff"
     bordercolor="#000000"
     borderopacity="0.25"
     inkscape:showpageshadow="2"
     inkscape:pageopacity="0.0"
     inkscape:pagecheckerboard="0"
     inkscape:deskcolor="#d1d1d1"
     inkscape:document-units="px"
     inkscape:zoom="2.34375"
     inkscape:cx="255.78667"
     inkscape:cy="221.86667"
     inkscape:window-width="2560"
     inkscape:window-height="1403"
     inkscape:window-x="0"
     inkscape:window-y="0"
     inkscape:window-maximized="1"
     inkscape:current-layer="layer1" />
  <defs
     id="defs1">
    <clipPath
       id="a47a744d75">
      <path
         d="m 693,113 h 53 v 26.53516 h -53 z m 0,0"
         clip-rule="nonzero"
         id="path2" />
    </clipPath>
    <clipPath
       id="a4ba882137">
      <path
         d="m 799,25 h 17.49219 V 85 H 799 Z m 0,0"
         clip-rule="nonzero"
         id="path3" />
    </clipPath>
    <clipPath
       id="077cc51067">
      <path
         d="M 678.44922,76 H 736 v 26 h -57.55078 z m 0,0"
         clip-rule="nonzero"
         id="path4" />
    </clipPath>
  </defs>
  <g
     inkscape:label="Layer 1"
     inkscape:groupmode="layer"
     id="layer1">
    <g
       clip-path="url(#a47a744d75)"
       id="g14"
       style="display:inline"
       transform="matrix(3.44617,0,0,3.349265,-2324.7488,13.783333)">
      <path
         fill="#e6e3dd"
         d="m 744.69922,139.67187 c -0.008,0 -0.0156,0 -0.0234,0 -2.78125,-0.082 -5.57812,-0.32812 -8.31641,-0.73437 -0.39453,-0.0625 -0.66796,-0.42969 -0.60937,-0.82422 0.0586,-0.39844 0.42969,-0.67187 0.82422,-0.61328 2.67969,0.39844 5.42187,0.64062 8.14453,0.72266 0.40234,0.008 0.71484,0.34375 0.70312,0.74218 -0.0117,0.39453 -0.33203,0.70703 -0.72265,0.70703 z m -16.31641,-2.43359 c -0.0625,0 -0.1289,-0.008 -0.1914,-0.0234 -2.67579,-0.73437 -5.33594,-1.64062 -7.90625,-2.6914 -0.3711,-0.15235 -0.54688,-0.57813 -0.39454,-0.94922 0.15235,-0.3711 0.57422,-0.54688 0.94532,-0.39453 2.51562,1.02734 5.12109,1.91406 7.73828,2.63672 0.38672,0.10546 0.61328,0.5039 0.50781,0.89062 -0.0898,0.32031 -0.37891,0.53125 -0.69922,0.53125 z m -15.26562,-6.24609 c -0.1211,0 -0.24219,-0.0312 -0.35547,-0.0937 -2.42188,-1.34766 -4.78906,-2.85938 -7.03516,-4.49219 -0.32422,-0.23437 -0.39453,-0.6875 -0.16015,-1.01172 0.23437,-0.32422 0.6875,-0.39844 1.01171,-0.16015 2.20313,1.59765 4.51954,3.07812 6.89063,4.39843 0.35156,0.19531 0.47656,0.63672 0.28125,0.98828 -0.13281,0.23828 -0.37891,0.3711 -0.63281,0.3711 z m -13.34766,-9.69141 c -0.17578,0 -0.35547,-0.0625 -0.49219,-0.1914 -2.03906,-1.88672 -3.98047,-3.91407 -5.77734,-6.02735 -0.26172,-0.30469 -0.22266,-0.76172 0.082,-1.02344 0.30469,-0.25781 0.76172,-0.22265 1.02344,0.082 1.75781,2.07031 3.66015,4.05468 5.65625,5.90234 0.29297,0.27344 0.3125,0.73047 0.0391,1.02344 -0.14453,0.15625 -0.33594,0.23437 -0.53125,0.23437 z m 0,0"
         fill-opacity="1"
         fill-rule="nonzero"
         id="path14" />
    </g>
    <g
       clip-path="url(#a4ba882137)"
       id="g15"
       style="display:inline"
       transform="matrix(3.44617,0,0,3.349265,-2324.7488,13.783333)">
      <path
         fill="#e6e3dd"
         d="m 814.35156,84.984375 c -0.0508,0 -0.10156,-0.0039 -0.15234,-0.01563 -0.39063,-0.08594 -0.64063,-0.46875 -0.5586,-0.859375 0.60547,-2.855469 1.03125,-5.785156 1.26563,-8.707031 0.0312,-0.398438 0.38281,-0.695313 0.78125,-0.664063 0.39844,0.03125 0.69922,0.382813 0.66406,0.78125 -0.23828,2.984375 -0.67187,5.972657 -1.29297,8.890625 -0.0703,0.339844 -0.37109,0.574219 -0.70703,0.574219 z m 1.42578,-17.6875 c -0.38281,0 -0.70703,-0.300781 -0.72265,-0.691406 -0.13672,-2.925781 -0.46485,-5.867188 -0.97266,-8.742188 -0.0703,-0.390625 0.19531,-0.769531 0.58984,-0.839843 0.39454,-0.06641 0.76954,0.195312 0.83985,0.589843 0.51953,2.933594 0.85156,5.933594 0.99219,8.925781 0.0156,0.398438 -0.29297,0.738282 -0.69141,0.757813 -0.0117,0 -0.0234,0 -0.0352,0 z m -3.08984,-17.46875 c -0.30859,0 -0.59375,-0.195313 -0.69141,-0.507813 -0.875,-2.785156 -1.94531,-5.546874 -3.17578,-8.199218 -0.16797,-0.363282 -0.008,-0.796875 0.35547,-0.964844 0.36328,-0.167969 0.79297,-0.01172 0.96094,0.351562 1.25781,2.710938 2.34765,5.53125 3.24219,8.378907 0.12109,0.382812 -0.0899,0.789062 -0.47266,0.910156 -0.0742,0.02344 -0.14844,0.03125 -0.21875,0.03125 z m -7.45703,-16.09375 c -0.24219,0 -0.47656,-0.121094 -0.61328,-0.339844 -1.5625,-2.472656 -3.29688,-4.867187 -5.16407,-7.121093 -0.2539,-0.308594 -0.21093,-0.765626 0.0977,-1.023438 0.30859,-0.253906 0.76563,-0.210938 1.01953,0.09766 1.90625,2.300782 3.67969,4.75 5.27344,7.273438 0.21094,0.335937 0.10937,0.785156 -0.22656,1 -0.1211,0.07422 -0.25391,0.113281 -0.38672,0.113281 z m 0,0"
         fill-opacity="1"
         fill-rule="nonzero"
         id="path15" />
    </g>
    <path
       fill="#e6e3dd"
       d="m 60.229721,108.41316 c -0.538456,0 -1.076937,-0.157 -1.534648,-0.51025 -1.090377,-0.82422 -1.278848,-2.34187 -0.44422,-3.40158 5.384657,-6.737803 11.200069,-13.266257 17.311601,-19.402194 0.955795,-0.968155 2.544281,-0.99433 3.526957,-0.05225 0.996141,0.928893 1.023098,2.459599 0.0672,3.427754 -5.976951,6.005115 -11.684661,12.40275 -16.948177,18.99661 -0.498058,0.62799 -1.224958,0.94198 -1.978817,0.94198 z M 96.535645,71.937555 c -0.726952,0 -1.440413,-0.287819 -1.925005,-0.876569 -0.888465,-1.033541 -0.740418,-2.564273 0.322898,-3.414668 6.757742,-5.455651 13.892372,-10.597283 21.215502,-15.294099 1.14421,-0.745748 2.70574,-0.431754 3.4596,0.680311 0.76732,1.125152 0.44424,2.629709 -0.7,3.375431 -7.17502,4.592168 -14.16161,9.629128 -20.78469,14.980106 -0.471177,0.366342 -1.036539,0.549488 -1.588486,0.549488 z M 140.09739,43.992127 c -0.90193,0 -1.77695,-0.484077 -2.22115,-1.321385 -0.63271,-1.190563 -0.1481,-2.655858 1.07691,-3.270758 7.82119,-3.89877 15.93855,-7.405024 24.13665,-10.427224 1.29231,-0.484053 2.74617,0.143934 3.23078,1.399909 0.48462,1.255974 -0.16154,2.655858 -1.45385,3.139935 -8.02312,2.956765 -15.97892,6.397607 -23.6251,10.217879 -0.36347,0.170059 -0.75385,0.261644 -1.14424,0.261644 z m 48.79828,-18.028456 c -1.1173,0 -2.12689,-0.719573 -2.42306,-1.81855 -0.34998,-1.295236 0.45769,-2.616622 1.7904,-2.956764 8.49425,-2.132544 17.20393,-3.820272 25.90008,-5.036985 1.37311,-0.183121 2.6385,0.732635 2.82697,2.067133 0.20186,1.321385 -0.75384,2.551185 -2.11345,2.747418 -8.52121,1.177501 -17.04242,2.83903 -25.36168,4.91925 -0.20186,0.05225 -0.41729,0.07837 -0.61926,0.07837 z m 77.80809,-6.672363 c -0.0672,0 -0.12122,0 -0.18842,0 -5.92309,-0.431754 -11.94041,-0.654162 -17.90392,-0.654162 -2.65193,0 -5.33079,0.03919 -7.96926,0.130873 -1.37305,0.03919 -2.53076,-1.007392 -2.5846,-2.354952 -0.0403,-1.334448 1.03654,-2.4596 2.42309,-2.498861 2.6923,-0.09169 5.42503,-0.130873 8.13082,-0.130873 6.08463,0 12.23659,0.222307 18.28087,0.654162 1.37305,0.104748 2.40959,1.269061 2.30189,2.603509 -0.0941,1.282149 -1.19805,2.250304 -2.49037,2.250304 z m 0,0"
       fill-opacity="1"
       fill-rule="nonzero"
       id="path16"
       style="display:inline;stroke-width:3.39736" />
    <g
       clip-path="url(#077cc51067)"
       id="g19"
       style="display:inline"
       transform="matrix(3.44617,0,0,3.349265,-2324.7488,13.783333)">
      <path
         fill="#e6e3dd"
         d="m 734.85547,101.76563 h -55.61328 c -0.21875,0 -0.42578,-0.0977 -0.56641,-0.26954 -0.13672,-0.17578 -0.1875,-0.39843 -0.14062,-0.61328 l 5.34765,-23.531248 c 0.0781,-0.328124 0.3711,-0.5625 0.70703,-0.5625 h 8.02344 c 0.39844,0 0.72266,0.324219 0.72266,0.722657 0,0.402343 -0.32422,0.726562 -0.72266,0.726562 h -7.44141 l -5.01953,22.078129 h 53.79688 l -5.01953,-22.078129 h -7.44141 c -0.40234,0 -0.72656,-0.324219 -0.72656,-0.726562 0,-0.398438 0.32422,-0.722657 0.72656,-0.722657 h 8.01953 c 0.33985,0 0.63281,0.234376 0.70703,0.5625 l 5.34766,23.531248 c 0.0508,0.21485 0,0.4375 -0.14063,0.61328 -0.13671,0.17188 -0.34375,0.26954 -0.5664,0.26954 z m 0,0"
         fill-opacity="1"
         fill-rule="nonzero"
         id="path19" />
    </g>
    <path
       fill="#e6e3dd"
       d="m 111.8684,315.23024 c -0.99614,0 -1.66923,-0.28781 -4.88657,-3.21843 -1.52113,-1.39988 -4.05192,-3.82025 -7.444244,-7.43117 -5.303888,-5.62571 -13.380848,-14.84929 -21.686625,-26.79413 -9.032756,-12.97838 -16.234717,-26.15305 -21.417437,-39.13144 -6.448103,-16.18375 -9.719259,-32.02733 -9.719259,-47.11211 0,-8.60868 1.723068,-16.96874 5.115417,-24.84476 3.284622,-7.60125 7.982699,-14.43061 13.959676,-20.29182 5.976925,-5.87429 12.950042,-10.47955 20.703924,-13.69798 8.036589,-3.33617 16.571238,-5.0239 25.375118,-5.0239 8.79042,0 17.32507,1.68773 25.36169,5.0239 7.76732,3.21843 14.72694,7.82369 20.71736,13.69798 5.97698,5.86121 10.67505,12.69057 13.9597,20.29182 3.39233,7.87602 5.11542,16.23608 5.11542,24.84476 0,15.08478 -3.27118,30.92836 -9.73275,47.11211 -5.1827,12.97839 -12.38468,26.15306 -21.40397,39.13144 -8.31925,11.94484 -16.38274,21.16842 -21.6866,26.79413 -3.40582,3.61092 -5.92312,6.03129 -7.45776,7.43117 -3.20383,2.93062 -3.87694,3.21843 -4.87309,3.21843 z m 1.10385,-4.59214 z M 111.8684,132.5514 c -33.169372,0 -60.159885,26.46705 -60.159885,59.00465 0,32.34133 15.830842,62.3408 29.117455,81.82146 7.969259,11.6832 15.830842,20.82825 21.027,26.45399 4.80578,5.20704 8.29234,8.46474 10.01543,9.93003 1.7231,-1.46529 5.20966,-4.72299 10.01543,-9.93003 5.19617,-5.62574 13.05775,-14.77079 21.02701,-26.45399 13.27317,-19.48066 29.11745,-49.48013 29.11745,-81.82146 0,-32.5376 -26.99051,-59.00465 -60.15989,-59.00465 z m 0,0"
       fill-opacity="1"
       fill-rule="nonzero"
       id="path21"
       style="display:inline;stroke-width:3.39736" />
    <path
       fill="#e6e3dd"
       d="m 111.8684,354.62338 c -1.38652,0 -2.50385,-1.08589 -2.50385,-2.42037 v -25.08025 c 0,-1.33447 1.11733,-2.42036 2.50385,-2.42036 1.37309,0 2.50386,1.08589 2.50386,2.42036 v 25.08025 c 0,1.33448 -1.13077,2.42037 -2.50386,2.42037 z m 0,0"
       fill-opacity="1"
       fill-rule="nonzero"
       id="path22"
       style="display:inline;stroke-width:3.39736" />
    <path
       fill="#e6e3dd"
       d="m 198.48035,315.23024 h -57.13104 c -1.37308,0 -2.50383,-1.08589 -2.50383,-2.43345 0,-1.33447 1.13075,-2.43345 2.50383,-2.43345 h 57.13104 c 1.37308,0 2.49039,1.09898 2.49039,2.43345 0,1.34756 -1.11731,2.43345 -2.49039,2.43345 z m 0,0"
       fill-opacity="1"
       fill-rule="nonzero"
       id="path23"
       style="display:inline;stroke-width:3.39736" />
    <path
       fill="#e6e3dd"
       d="M 82.387498,315.23024 H 25.256482 c -1.386575,0 -2.503858,-1.08589 -2.503858,-2.43345 0,-1.33447 1.117283,-2.43345 2.503858,-2.43345 h 57.131016 c 1.373084,0 2.490392,1.09898 2.490392,2.43345 0,1.34756 -1.117308,2.43345 -2.490392,2.43345 z m 0,0"
       fill-opacity="1"
       fill-rule="nonzero"
       id="path24"
       style="display:inline;stroke-width:3.39736" />
    <path
       fill="#e6e3dd"
       d="m 111.8684,221.52934 c -16.503901,0 -29.938587,-13.04382 -29.938587,-29.08366 0,-16.03982 13.434686,-29.09673 29.938587,-29.09673 16.50391,0 29.9386,13.04382 29.9386,29.09673 0,16.03984 -13.43469,29.08366 -29.9386,29.08366 z m 0,-53.32658 c -13.757761,0 -24.944338,10.87204 -24.944338,24.24292 0,13.35781 11.186577,24.22985 24.944338,24.22985 13.7443,0 24.93091,-10.87204 24.93091,-24.22985 0,-13.37088 -11.18661,-24.24292 -24.93091,-24.24292 z m 0,0"
       fill-opacity="1"
       fill-rule="nonzero"
       id="path26"
       style="display:inline;stroke-width:3.39736" />
    <path
       fill="#e6e3dd"
       d="m 334.37522,453.24353 h -73.31189 c -6.89232,0 -12.49236,-5.45565 -12.49236,-12.15419 V 309.93162 c 0,-6.69854 5.60004,-12.14108 12.49236,-12.14108 h 73.31189 c 6.89235,0 12.49239,5.44254 12.49239,12.14108 v 131.15772 c 0,6.69854 -5.60004,12.15419 -12.49239,12.15419 z M 261.06333,302.64435 c -4.13272,0 -7.49811,3.27076 -7.49811,7.28727 v 131.15772 c 0,4.02962 3.36539,7.28727 7.49811,7.28727 h 73.31189 c 4.13272,0 7.49811,-3.25765 7.49811,-7.28727 V 309.93162 c 0,-4.01651 -3.36539,-7.28727 -7.49811,-7.28727 z m 0,0"
       fill-opacity="1"
       fill-rule="nonzero"
       id="path31"
       style="display:inline;stroke-width:3.39736" />
    <path
       fill="#e6e3dd"
       d="m 344.37719,320.46349 h -93.30236 c -1.38655,0 -2.50386,-1.08589 -2.50386,-2.43345 v -8.09842 c 0,-6.69854 5.60004,-12.14108 12.49236,-12.14108 h 73.31189 c 6.89235,0 12.49239,5.44254 12.49239,12.14108 v 8.09842 c 0,1.34756 -1.11734,2.43345 -2.49042,2.43345 z m -90.81197,-4.8669 h 88.30811 v -5.66497 c 0,-4.01651 -3.36539,-7.28727 -7.49811,-7.28727 h -73.31189 c -4.13272,0 -7.49811,3.27076 -7.49811,7.28727 z m 0,0"
       fill-opacity="1"
       fill-rule="nonzero"
       id="path33"
       style="display:inline;stroke-width:3.39736" />
    <path
       fill="#e6e3dd"
       d="m 334.37522,453.24353 h -73.31189 c -6.89232,0 -12.49236,-5.45565 -12.49236,-12.15419 v -8.08531 c 0,-1.34756 1.11731,-2.43345 2.50386,-2.43345 h 93.30236 c 1.37308,0 2.49042,1.08589 2.49042,2.43345 v 8.08531 c 0,6.69854 -5.60004,12.15419 -12.49239,12.15419 z m -80.81,-17.81913 v 5.66494 c 0,4.02962 3.36539,7.28727 7.49811,7.28727 h 73.31189 c 4.13272,0 7.49811,-3.25765 7.49811,-7.28727 v -5.66494 z m 0,0"
       fill-opacity="1"
       fill-rule="nonzero"
       id="path35"
       style="display:inline;stroke-width:3.39736" />
    <path
       fill="#e6e3dd"
       d="m 371.86576,434.61324 c -0.64616,0 -1.27882,-0.23537 -1.77691,-0.70649 l -15.8174,-15.38568 c -0.98267,-0.94198 -0.98267,-2.4858 0,-3.42778 l 15.8174,-15.38569 c 0.98268,-0.95504 2.57117,-0.95504 3.5404,0 0.9827,0.94198 0.9827,2.4858 0,3.42778 l -14.05391,13.67179 14.05391,13.65874 c 0.9827,0.95504 0.9827,2.48578 0,3.44084 -0.48462,0.47102 -1.13077,0.70649 -1.76349,0.70649 z m 0,0"
       fill-opacity="1"
       fill-rule="nonzero"
       id="path37"
       style="display:inline;stroke-width:3.39736" />
    <path
       fill="#e6e3dd"
       d="m 392.69088,419.24062 h -34.98671 c -1.38655,0 -2.50383,-1.09896 -2.50383,-2.43345 0,-1.34754 1.11728,-2.43343 2.50383,-2.43343 h 32.48285 V 382.8043 c 0,-1.34759 1.11731,-2.43345 2.50386,-2.43345 1.37308,0 2.49039,1.08586 2.49039,2.43345 v 34.00287 c 0,1.33449 -1.11731,2.43345 -2.49039,2.43345 z m 0,0"
       fill-opacity="1"
       fill-rule="nonzero"
       id="path38"
       style="display:inline;stroke-width:3.39736" />
    <path
       fill="#e6e3dd"
       d="m 434.34106,356.0887 h -33.31745 c -1.38655,0 -2.50385,-1.09901 -2.50385,-2.43348 0,-1.34756 1.1173,-2.43345 2.50385,-2.43345 h 33.31745 c 9.65198,0 17.50007,-7.62743 17.50007,-16.99491 0,-7.58817 -5.24999,-14.31286 -12.77506,-16.35382 -0.74037,-0.20925 -1.34612,-0.73266 -1.6423,-1.43915 -0.28257,-0.70648 -0.2153,-1.49146 0.17498,-2.14563 2.7731,-4.52673 4.24042,-9.66836 4.24042,-14.87543 0,-16.07908 -13.44813,-29.14908 -29.99243,-29.14908 -8.3462,0 -16.11357,3.28385 -21.86163,9.24972 -0.56541,0.57567 -1.38658,0.85043 -2.19425,0.73267 -0.82116,-0.11782 -1.52118,-0.6149 -1.87116,-1.33448 -7.18852,-14.32597 -21.83473,-23.22243 -38.21752,-23.22243 -20.40778,0 -37.96171,14.11662 -41.74442,33.57113 -0.25562,1.32139 -1.56153,2.18487 -2.92114,1.93631 -1.34618,-0.24868 -2.24811,-1.51764 -1.99234,-2.83903 4.24039,-21.74405 23.85397,-37.52223 46.6579,-37.52223 9.07316,0 17.89048,2.48578 25.50976,7.20877 6.43466,4.00341 11.77889,9.43289 15.58853,15.81741 2.66537,-2.27645 5.65387,-4.13424 8.89812,-5.54721 4.46924,-1.9232 9.23464,-2.90444 14.14815,-2.90444 19.29044,0 34.98668,15.25486 34.98668,34.00289 0,5.11548 -1.19808,10.16553 -3.51347,14.78387 8.0904,3.42776 13.51543,11.29068 13.51543,20.03016 0,12.04951 -10.09617,21.86184 -22.49432,21.86184 z m 0,0"
       fill-opacity="1"
       fill-rule="nonzero"
       id="path39"
       style="display:inline;stroke-width:3.39736" />
    <path
       fill="#e6e3dd"
       d="m 374.35618,373.89472 c -9.63852,0 -17.48663,-7.62741 -17.48663,-17.00798 0,-7.02562 4.52309,-15.58194 7.21542,-20.04326 1.6827,-2.79977 3.55386,-5.50798 5.26347,-7.62743 2.62502,-3.28385 3.78273,-3.89875 5.00774,-3.89875 1.22501,0 2.39615,0.6149 5.02118,3.89875 1.7096,2.11945 3.58077,4.82766 5.26346,7.62743 2.69233,4.46132 7.21543,13.01764 7.21543,20.04326 0,9.38057 -7.84812,17.00798 -17.50007,17.00798 z m 0,-42.99095 c -3.48656,3.8726 -12.49236,17.16498 -12.49236,25.98297 0,6.69854 5.6135,12.15417 12.49236,12.15417 6.89235,0 12.50585,-5.45563 12.50585,-12.15417 0,-8.81799 -9.01929,-22.11037 -12.50585,-25.98297 z m 0,0"
       fill-opacity="1"
       fill-rule="nonzero"
       id="path41"
       style="display:inline;stroke-width:3.39736" />
    <path
       fill="#e6e3dd"
       d="m 426.00833,412.75142 c -9.63849,0 -17.48661,-7.62743 -17.48661,-16.99489 0,-7.0387 4.50966,-15.58194 7.2154,-20.05635 1.6827,-2.7867 3.55386,-5.49489 5.26352,-7.62743 2.62497,-3.27076 3.78268,-3.89874 5.00769,-3.89874 1.22501,0 2.38271,0.62798 5.02118,3.89874 1.70965,2.13254 3.58077,4.84073 5.26351,7.62743 2.69231,4.47441 7.21541,13.01765 7.21541,20.05635 0,9.36746 -7.84812,16.99489 -17.5001,16.99489 z m 0,-42.99094 c -3.48656,3.87259 -12.49236,17.17806 -12.49236,25.99605 0,6.69854 5.60003,12.14111 12.49236,12.14111 6.89235,0 12.49238,-5.44257 12.49238,-12.14111 0,-8.81799 -9.00582,-22.12346 -12.49238,-25.99605 z m 0,0"
       fill-opacity="1"
       fill-rule="nonzero"
       id="path43"
       style="display:inline;stroke-width:3.39736" />
    <path
       fill="#e6e3dd"
       d="m 294.39424,356.0887 c -5.97692,0 -10.83659,-4.72302 -10.83659,-10.5319 0,-4.38282 2.42311,-9.22355 3.8635,-11.70935 0.96924,-1.67462 2.04617,-3.24458 3.02885,-4.409 1.49425,-1.75311 2.6654,-2.49886 3.94424,-2.49886 1.26541,0 2.43658,0.74575 3.93081,2.49886 0.9827,1.16442 2.05964,2.73438 3.02887,4.409 1.44036,2.4858 3.86348,7.32653 3.86348,11.70935 0,5.80888 -4.85967,10.5319 -10.82316,10.5319 z m 0,-23.65422 c -0.78076,0.90274 -1.91151,2.47271 -3.06922,4.59217 -1.76349,3.24461 -2.77309,6.34528 -2.77309,8.53015 0,3.12685 2.625,5.66497 5.84231,5.66497 3.20388,0 5.82888,-2.53812 5.82888,-5.66497 0,-2.18487 -1.00961,-5.28554 -2.7731,-8.53015 -1.15765,-2.11946 -2.28845,-3.68943 -3.05578,-4.59217 z m 0,0"
       fill-opacity="1"
       fill-rule="nonzero"
       id="path45"
       style="display:inline;stroke-width:3.39736" />
    <path
       fill="#e6e3dd"
       d="m 324.37323,375.51704 c -5.96348,0 -10.8231,-4.723 -10.8231,-10.53188 0,-4.38284 2.42306,-9.22357 3.86345,-11.70934 0.96924,-1.67465 2.04617,-3.24461 3.02887,-4.40898 1.49423,-1.75316 2.66543,-2.49888 3.93078,-2.49888 1.27888,0 2.45002,0.74572 3.94425,2.49888 0.9827,1.16437 2.05964,2.73433 3.02887,4.40898 1.44039,2.48577 3.86348,7.3265 3.86348,11.70934 0,5.80888 -4.85962,10.53188 -10.8366,10.53188 z m 0,-23.6542 c -0.7673,0.90275 -1.91151,2.47272 -3.05578,4.59215 -1.76344,3.24461 -2.77307,6.35839 -2.77307,8.53017 0,3.12685 2.62503,5.67806 5.82885,5.67806 3.21735,0 5.84237,-2.55121 5.84237,-5.67806 0,-2.17178 -1.00963,-5.28556 -2.7731,-8.53017 -1.1577,-2.11943 -2.28848,-3.6894 -3.06927,-4.59215 z m 0,0"
       fill-opacity="1"
       fill-rule="nonzero"
       id="path47"
       style="display:inline;stroke-width:3.39736" />
    <path
       fill="#e6e3dd"
       d="m 251.07483,412.75142 c -1.38655,0 -2.50386,-1.08586 -2.50386,-2.42036 v -23.4187 c 0,-0.56257 0.20186,-1.11203 0.56539,-1.54379 l 17.28469,-20.34417 c 1.14425,-1.36065 2.84041,-2.10637 4.65771,-2.05405 1.80386,0.0392 3.45965,0.87657 4.5231,2.30263 l 24.50009,32.26287 c 0.82119,1.0728 0.57886,2.59042 -0.52499,3.38847 -1.1173,0.79809 -2.67883,0.57568 -3.49999,-0.51023 l -24.48666,-32.26282 c -0.2153,-0.27465 -0.49806,-0.32723 -0.64616,-0.32723 -0.16154,0 -0.44424,0.0269 -0.67309,0.2877 l -16.70584,19.67694 v 22.54213 c 0,1.33447 -1.11731,2.42034 -2.49039,2.42034 z m 0,0"
       fill-opacity="1"
       fill-rule="nonzero"
       id="path48"
       style="display:inline;stroke-width:3.39736" />
    <path
       fill="#e6e3dd"
       d="m 344.37719,412.75142 h -13.34045 c -0.71346,0 -1.38655,-0.28772 -1.85773,-0.81113 l -24.4193,-26.68945 c -0.20186,-0.22231 -0.44424,-0.26157 -0.57885,-0.27464 -0.13466,0 -0.37694,0.0126 -0.60579,0.22231 l -9.31543,8.29466 c -1.02308,0.90277 -2.61154,0.83731 -3.5404,-0.157 -0.92884,-0.99433 -0.86153,-2.52506 0.16154,-3.42778 l 9.32888,-8.29465 c 1.1577,-1.03355 2.66539,-1.55688 4.22697,-1.47841 1.575,0.0784 3.01538,0.74575 4.06536,1.88396 l 23.66552,25.87835 h 12.20968 c 1.37308,0 2.49042,1.08586 2.49042,2.43342 0,1.3345 -1.11734,2.42036 -2.49042,2.42036 z m 0,0"
       fill-opacity="1"
       fill-rule="nonzero"
       id="path49"
       style="display:inline;stroke-width:3.39736" />
    <path
       fill="#e6e3dd"
       d="m 331.03674,412.75142 h -61.64068 c -1.37308,0 -2.50383,-1.08586 -2.50383,-2.42036 0,-1.34756 1.13075,-2.43342 2.50383,-2.43342 h 61.64068 c 1.38655,0 2.50386,1.08586 2.50386,2.43342 0,1.3345 -1.11731,2.42036 -2.50386,2.42036 z m 0,0"
       fill-opacity="1"
       fill-rule="nonzero"
       id="path50"
       style="display:inline;stroke-width:3.39736" />
    <path
       fill="#e6e3dd"
       d="m 271.06529,390.09156 c -5.41156,0 -8.23847,-4.87999 -10.10964,-8.09842 -0.53848,-0.91583 -1.31924,-2.26337 -1.76349,-2.70818 -0.80767,-0.11781 -1.52115,-0.62799 -1.87116,-1.36065 -0.41729,-0.85039 -0.28258,-1.85779 0.33669,-2.57736 l 8.76352,-10.32255 c 1.14421,-1.36065 2.85384,-2.10637 4.65771,-2.05405 1.80386,0.0392 3.45962,0.87657 4.52309,2.28957 l 8.79042,11.56541 c 0.45769,0.62799 0.60576,1.41297 0.37695,2.14563 -0.22874,0.74573 -0.80773,1.32139 -1.54809,1.58303 -1.34618,0.47102 -2.38272,2.00173 -3.48656,3.62402 -1.7904,2.62971 -4.01155,5.91355 -8.66931,5.91355 z m -7.83462,-13.68489 c 0.75386,0.91583 1.40001,2.04098 2.07308,3.19228 1.8577,3.19226 3.4596,5.62569 5.76154,5.62569 1.77696,0 2.7462,-1.12511 4.4962,-3.72866 0.90193,-1.32139 1.88463,-2.76054 3.20385,-3.88566 l -7.17503,-9.45905 c -0.2153,-0.27465 -0.49806,-0.32723 -0.64616,-0.32723 -0.16154,0 -0.44424,0.0269 -0.67309,0.2877 z m -3.64813,2.91755 z m 0,0"
       fill-opacity="1"
       fill-rule="nonzero"
       id="path52"
       style="display:inline;stroke-width:3.39736" />
    <path
       fill="#e6e3dd"
       d="M 382.08315,216.92411 H 255.65179 c -9.16736,0 -16.6251,-7.24802 -16.6251,-16.14452 V 100.61564 c 0,-1.334469 1.11734,-2.420359 2.50386,-2.420359 h 153.87956 c 1.37309,0 2.49039,1.08589 2.49039,2.420359 v 100.92279 c 0,8.49089 -7.09423,15.38568 -15.81735,15.38568 z M 244.03441,103.04909 v 97.7305 c 0,6.22755 5.20963,11.29069 11.61738,11.29069 h 126.43136 c 5.96349,0 10.82311,-4.72297 10.82311,-10.53185 v -98.48934 z m 0,0"
       fill-opacity="1"
       fill-rule="nonzero"
       id="path54"
       style="display:inline;stroke-width:3.39736" />
    <path
       fill="#e6e3dd"
       d="M 395.41011,103.04909 H 241.53055 c -1.38652,0 -2.50386,-1.08589 -2.50386,-2.43345 V 80.035977 c 0,-8.896493 7.45774,-16.144494 16.6251,-16.144494 H 381.2889 c 9.16734,0 16.6116,7.248001 16.6116,16.144494 v 20.579663 c 0,1.34756 -1.1173,2.43345 -2.49039,2.43345 z M 244.03441,98.195281 H 392.90626 V 80.035977 c 0,-6.227547 -5.20966,-11.290681 -11.61736,-11.290681 H 255.65179 c -6.40775,0 -11.61738,5.063134 -11.61738,11.290681 z m 0,0"
       fill-opacity="1"
       fill-rule="nonzero"
       id="path56"
       style="display:inline;stroke-width:3.39736" />
    <path
       fill="#e6e3dd"
       d="m 292.34807,86.577518 h -4.22692 c -6.82505,0 -12.38468,-5.390239 -12.38468,-12.023341 V 55.348245 c 0,-6.646214 5.55963,-12.036429 12.38468,-12.036429 h 2.81349 c 6.83846,0 12.38466,5.390215 12.38466,12.036429 v 10.963601 c 0,1.34756 -1.11731,2.43345 -2.49039,2.43345 -1.38655,0 -2.50386,-1.08589 -2.50386,-2.43345 V 55.348245 c 0,-3.964181 -3.31156,-7.182616 -7.39041,-7.182616 h -2.81349 c -4.07886,0 -7.39041,3.218435 -7.39041,7.182616 v 19.205932 c 0,3.951094 3.31155,7.169528 7.39041,7.169528 h 4.22692 c 1.38658,0 2.50389,1.08589 2.50389,2.43345 0,1.334473 -1.11731,2.420363 -2.50389,2.420363 z m 0,0"
       fill-opacity="1"
       fill-rule="nonzero"
       id="path57"
       style="display:inline;stroke-width:3.39736" />
    <path
       fill="#e6e3dd"
       d="m 292.34807,92.072406 c -1.37306,0 -2.49036,-1.08589 -2.49036,-2.43345 V 77.288533 c 0,-1.334472 1.1173,-2.420363 2.49036,-2.420363 1.38658,0 2.50389,1.085891 2.50389,2.420363 v 12.350423 c 0,1.34756 -1.11731,2.43345 -2.50389,2.43345 z m 0,0"
       fill-opacity="1"
       fill-rule="nonzero"
       id="path58"
       style="display:inline;stroke-width:3.39736" />
    <path
       fill="#e6e3dd"
       d="m 350.233,86.577518 h -4.24042 c -6.82504,0 -12.37121,-5.390239 -12.37121,-12.023341 V 55.348245 c 0,-6.646214 5.54617,-12.036429 12.37121,-12.036429 h 2.82694 c 6.82502,0 12.38465,5.390215 12.38465,12.036429 v 10.963601 c 0,1.34756 -1.11731,2.43345 -2.50383,2.43345 -1.37311,0 -2.49042,-1.08589 -2.49042,-2.43345 V 55.348245 c 0,-3.964181 -3.31152,-7.182616 -7.3904,-7.182616 h -2.82694 c -4.06541,0 -7.37694,3.218435 -7.37694,7.182616 v 19.205932 c 0,3.951094 3.31153,7.169528 7.37694,7.169528 h 4.24042 c 1.38652,0 2.50383,1.08589 2.50383,2.43345 0,1.334473 -1.13075,2.420363 -2.50383,2.420363 z m 0,0"
       fill-opacity="1"
       fill-rule="nonzero"
       id="path59"
       style="display:inline;stroke-width:3.39736" />
    <path
       fill="#e6e3dd"
       d="m 350.233,92.072406 c -1.38655,0 -2.50386,-1.08589 -2.50386,-2.43345 V 77.288533 c 0,-1.334472 1.11731,-2.420363 2.50386,-2.420363 1.37308,0 2.50383,1.085891 2.50383,2.420363 v 12.350423 c 0,1.34756 -1.13075,2.43345 -2.50383,2.43345 z m 0,0"
       fill-opacity="1"
       fill-rule="nonzero"
       id="path60"
       style="display:inline;stroke-width:3.39736" />
    <path
       fill="#e6e3dd"
       d="m 283.84036,149.70331 h -21.1751 c -3.71538,0 -6.74425,-2.93061 -6.74425,-6.54154 v -20.57966 c 0,-3.61093 3.02887,-6.54152 6.74425,-6.54152 h 21.1751 c 3.7154,0 6.73081,2.93059 6.73081,6.54152 v 20.57966 c 0,3.61093 -3.01541,6.54154 -6.73081,6.54154 z m -21.1751,-28.80891 c -0.95577,0 -1.73654,0.75881 -1.73654,1.68771 v 20.57966 c 0,0.9289 0.78077,1.68773 1.73654,1.68773 h 21.1751 c 0.95579,0 1.73656,-0.75883 1.73656,-1.68773 v -20.57966 c 0,-0.9289 -0.78077,-1.68771 -1.73656,-1.68771 z m 0,0"
       fill-opacity="1"
       fill-rule="nonzero"
       id="path62"
       style="display:inline;stroke-width:3.39736" />
    <path
       fill="#e6e3dd"
       d="m 285.25384,197.73124 h -21.1751 c -3.71543,0 -6.74425,-2.94367 -6.74425,-6.5546 v -20.57967 c 0,-3.61092 3.02882,-6.54154 6.74425,-6.54154 h 21.1751 c 3.70193,0 6.73081,2.93062 6.73081,6.54154 v 20.57967 c 0,3.61093 -3.02888,6.5546 -6.73081,6.5546 z m -21.1751,-28.82199 c -0.96924,0 -1.73656,0.75883 -1.73656,1.68772 v 20.57967 c 0,0.92889 0.76732,1.6877 1.73656,1.6877 h 21.1751 c 0.95574,0 1.73656,-0.74572 1.73656,-1.6877 v -20.57967 c 0,-0.92889 -0.78082,-1.68772 -1.73656,-1.68772 z m 0,0"
       fill-opacity="1"
       fill-rule="nonzero"
       id="path64"
       style="display:inline;stroke-width:3.39736" />
    <path
       fill="#e6e3dd"
       d="m 329.0175,149.70331 h -21.1751 c -3.71541,0 -6.74425,-2.93061 -6.74425,-6.54154 v -20.57966 c 0,-3.61093 3.02884,-6.54152 6.74425,-6.54152 h 21.1751 c 3.70193,0 6.73078,2.93059 6.73078,6.54152 v 20.57966 c 0,3.61093 -3.02885,6.54154 -6.73078,6.54154 z M 307.8424,120.8944 c -0.96924,0 -1.73656,0.75881 -1.73656,1.68771 v 20.57966 c 0,0.9289 0.76732,1.68773 1.73656,1.68773 h 21.1751 c 0.95577,0 1.73656,-0.75883 1.73656,-1.68773 v -20.57966 c 0,-0.9289 -0.78079,-1.68771 -1.73656,-1.68771 z m 0,0"
       fill-opacity="1"
       fill-rule="nonzero"
       id="path66"
       style="display:inline;stroke-width:3.39736" />
    <path
       fill="#e6e3dd"
       d="m 329.0175,197.73124 h -21.1751 c -3.71541,0 -6.74425,-2.94367 -6.74425,-6.5546 v -20.57967 c 0,-3.61092 3.02884,-6.54154 6.74425,-6.54154 h 21.1751 c 3.70193,0 6.73078,2.93062 6.73078,6.54154 v 20.57967 c 0,3.61093 -3.02885,6.5546 -6.73078,6.5546 z m -21.1751,-28.82199 c -0.96924,0 -1.73656,0.75883 -1.73656,1.68772 v 20.57967 c 0,0.92889 0.76732,1.6877 1.73656,1.6877 h 21.1751 c 0.95577,0 1.73656,-0.74572 1.73656,-1.6877 v -20.57967 c 0,-0.92889 -0.78079,-1.68772 -1.73656,-1.68772 z m 0,0"
       fill-opacity="1"
       fill-rule="nonzero"
       id="path68"
       style="display:inline;stroke-width:3.39736" />
    <path
       fill="#e6e3dd"
       d="M 374.18117,197.73124 H 353.0061 c -3.71543,0 -6.73084,-2.94367 -6.73084,-6.5546 v -20.57967 c 0,-3.61092 3.01541,-6.54154 6.73084,-6.54154 h 21.17507 c 3.7154,0 6.74428,2.93062 6.74428,6.54154 v 20.57967 c 0,3.61093 -3.02888,6.5546 -6.74428,6.5546 z M 353.0061,168.90925 c -0.9558,0 -1.73656,0.75883 -1.73656,1.68772 v 20.57967 c 0,0.92889 0.78076,1.6877 1.73656,1.6877 h 21.17507 c 0.95577,0 1.73654,-0.74572 1.73654,-1.6877 v -20.57967 c 0,-0.92889 -0.78077,-1.68772 -1.73654,-1.68772 z m 0,0"
       fill-opacity="1"
       fill-rule="nonzero"
       id="path70"
       style="display:inline;stroke-width:3.39736" />
    <path
       fill="#e6e3dd"
       d="M 374.18117,149.70331 H 353.0061 c -3.71543,0 -6.73084,-2.93061 -6.73084,-6.54154 v -20.57966 c 0,-3.61093 3.01541,-6.54152 6.73084,-6.54152 h 21.17507 c 3.7154,0 6.74428,2.93059 6.74428,6.54152 v 20.57966 c 0,3.61093 -3.02888,6.54154 -6.74428,6.54154 z M 353.0061,120.8944 c -0.9558,0 -1.73656,0.75881 -1.73656,1.68771 v 20.57966 c 0,0.9289 0.78076,1.68773 1.73656,1.68773 h 21.17507 c 0.95577,0 1.73654,-0.75883 1.73654,-1.68773 v -20.57966 c 0,-0.9289 -0.78077,-1.68771 -1.73654,-1.68771 z m 0,0"
       fill-opacity="1"
       fill-rule="nonzero"
       id="path72"
       style="display:inline;stroke-width:3.39736" />
  </g>
</svg>
