<?xml version="1.0" encoding="UTF-8" standalone="no"?>
<!-- Created with Inkscape (http://www.inkscape.org/) -->

<svg
   width="180"
   height="180"
   viewBox="0 0 180 180"
   version="1.1"
   id="svg1"
   inkscape:version="1.3.1 (9b9bdc1480, 2023-11-25, custom)"
   sodipodi:docname="neuralreef_icon_waifu.svg"
   xmlns:inkscape="http://www.inkscape.org/namespaces/inkscape"
   xmlns:sodipodi="http://sodipodi.sourceforge.net/DTD/sodipodi-0.dtd"
   xmlns="http://www.w3.org/2000/svg"
   xmlns:svg="http://www.w3.org/2000/svg">
  <sodipodi:namedview
     id="namedview1"
     pagecolor="#ffffff"
     bordercolor="#000000"
     borderopacity="0.25"
     inkscape:showpageshadow="2"
     inkscape:pageopacity="0.0"
     inkscape:pagecheckerboard="0"
     inkscape:deskcolor="#d1d1d1"
     inkscape:document-units="px"
     inkscape:zoom="6.6666667"
     inkscape:cx="89.925"
     inkscape:cy="90"
     inkscape:window-width="2560"
     inkscape:window-height="1403"
     inkscape:window-x="0"
     inkscape:window-y="0"
     inkscape:window-maximized="1"
     inkscape:current-layer="layer1" />
  <defs
     id="defs1">
    <clipPath
       id="0401e42854">
      <path
         d="M 0,0.03125 H 60 V 125 H 0 Z m 0,0"
         clip-rule="nonzero"
         id="path1" />
    </clipPath>
    <clipPath
       id="96f0b9abc3">
      <path
         d="m 64,0.03125 h 59 V 125 H 64 Z m 0,0"
         clip-rule="nonzero"
         id="path2" />
    </clipPath>
  </defs>
  <g
     inkscape:label="Layer 1"
     inkscape:groupmode="layer"
     id="layer1">
    <g
       clip-path="url(#0401e42854)"
       id="g11"
       transform="matrix(1.3333333,0,0,1.3333333,9.0070516,7.7860674)">
      <path
         fill="#e5e1da"
         d="M 59.039062,15.210938 C 59.039062,4.484375 48.8125,0.03125 43.339844,0.03125 c -3.289063,0 -9.816406,2.214844 -13.390625,6.976562 C 28.195312,9.34375 27.40625,12 27.613281,14.8125 24.355469,14.335938 19.0625,14.222656 15.839844,19.398438 13.519531,23.125 13.28125,26.195312 13.53125,28.199219 10.148438,28.613281 4.117188,30.269531 1.789062,36.71875 0.0351562,41.566406 0.34375,46.566406 1.828125,50.550781 c 0.00391,0.0078 0.00391,0.01563 0.00391,0.02344 0.332031,1.121093 0.925781,2.328125 1.789063,3.503906 0.011718,0.01563 0.023437,0.03125 0.035156,0.05078 0.058594,0.08203 0.117188,0.164063 0.183594,0.246094 0.351562,0.492188 0.71875,0.953125 1.113281,1.367188 -1.535156,1.246093 -2.414063,3.050781 -2.621094,6.359374 -0.230469,3.714844 1.382813,8.195313 4.191407,10.5 -1.917969,1.960938 -3.605469,4.90625 -3.191407,11.105469 0.382813,3.816407 2.519531,7.6875 5.582031,10.109375 1.609376,1.273438 3.398438,2.042969 5.210938,2.328125 0.121094,0.03906 0.242188,0.06641 0.371094,0.07813 0.04297,0.0039 0.09375,0.0039 0.136718,0.0078 0.05078,0.0039 0.105469,0.01953 0.15625,0.02734 0.308594,1.789063 1.300782,3.792968 2.457032,5.292968 1.898437,2.46094 4.335937,3.88281 6.984375,4.11719 0.777343,3.03906 2.523437,7.59766 7.660156,8.21875 0.398437,2.87891 1.394531,5.26953 2.992187,7.12891 1.996094,2.3164 4.835938,3.66015 8.210938,3.89453 0.339844,0.0234 0.679688,0.0352 1.023438,0.0352 4.039062,0 8.207031,-1.60547 11.09375,-4.3164 2.484374,-2.33594 3.839843,-5.34375 3.820312,-8.46094 V 45.40625 c 0,0 0,-0.0039 0,-0.0039 V 15.386719 c 0,-0.05859 0.0078,-0.113281 0.0078,-0.175781 z m -3.605468,25.832031 c -1.492188,-0.867188 -3.300782,-1.515625 -5.179688,-1.765625 -5.070312,-0.675782 -9.386718,1.636718 -11.878906,6.40625 -2.855469,6.011718 -0.597656,10.542968 1,12.710937 2.074219,2.808594 5.238281,4.679688 7.785156,4.679688 0.234375,0 0.464844,-0.01563 0.6875,-0.04687 0.984375,-0.144532 1.664063,-1.058594 1.523438,-2.042969 C 49.226562,60 48.308594,59.3125 47.328125,59.464844 c -0.863281,0.125 -3.304687,-0.839844 -5.054687,-3.210938 -1.371094,-1.851562 -2.59375,-4.925781 -0.679688,-8.960937 2.171875,-4.148438 5.488281,-4.730469 7.886719,-4.480469 3.359375,0.34375 5.644531,2.238281 5.953125,2.929688 v 66.437502 c 0.01563,2.71094 -1.453125,4.66406 -2.6875,5.82422 -2.425782,2.27734 -6.03125,3.53906 -9.40625,3.3125 -1.667969,-0.11328 -4.019532,-0.66797 -5.730469,-2.65235 -1.8125,-2.10547 -2.589844,-5.48047 -2.253906,-9.67578 0.246093,-1.92578 2.648437,-5.74609 5.859375,-7.35156 1.839844,-0.91797 3.601562,-0.91797 5.226562,0.008 0.863282,0.49219 1.964844,0.1875 2.453125,-0.67578 0.492188,-0.86328 0.191407,-1.964844 -0.675781,-2.453125 -2.695312,-1.535156 -5.675781,-1.566406 -8.617188,-0.09766 -0.0625,0.03125 -0.121093,0.07813 -0.183593,0.109375 -0.777344,-0.792969 -1.941407,-1.339844 -3.402344,-1.507813 -2.464844,-0.277343 -5.179687,0.554688 -5.621094,2.695313 -0.203125,0.97266 0.421875,1.92579 1.398438,2.12891 0.851562,0.17578 1.691406,-0.28516 2.019531,-1.05859 0.347656,-0.16016 1.230469,-0.31641 2.128906,-0.13282 0.15625,0.0312 0.289063,0.0703 0.402344,0.10938 -2.503906,2.36328 -4.269531,5.5 -4.566406,7.85547 -0.04297,0.53515 -0.0625,1.05078 -0.07422,1.5664 -2.710937,-0.69531 -3.570313,-3.44531 -4.285156,-6.69921 l -0.339844,-1.55079 -1.582031,0.14454 c -2.292969,0.21093 -3.984375,-1.10157 -4.992188,-2.23829 -1.148437,-1.292969 -1.789062,-2.75 -2.0625,-3.742188 5.066406,-0.746094 11.3125,-3.894531 12.960938,-12.496094 0.5625,-0.203124 1.125,-0.445312 1.6875,-0.785156 0.03125,-0.01953 0.05469,-0.04297 0.08203,-0.0625 2.058594,-1.152344 4.210937,-3.015625 5.660156,-5.40625 1.6875,-2.792968 2.132813,-5.792968 1.289063,-8.675781 -0.28125,-0.957031 -1.28125,-1.503906 -2.234375,-1.222656 -0.953125,0.277343 -1.5,1.28125 -1.222657,2.234375 0.5625,1.914062 0.253907,3.867187 -0.914062,5.796875 -1.167969,1.933593 -3.039062,3.496093 -4.683594,4.332031 -0.04297,0.02344 -0.08594,0.04297 -0.128906,0.0625 -0.527344,0.257812 -1.03125,0.441406 -1.476562,0.53125 -3.851563,0.730469 -7.703126,-2.949219 -7.746094,-2.992188 -0.710938,-0.695312 -1.847656,-0.683593 -2.542969,0.02344 -0.699219,0.710938 -0.6875,1.851562 0.01953,2.546875 0.210938,0.207031 3.851563,3.71875 8.398438,4.117187 -1.472656,5.367188 -5.289063,7.402344 -8.363282,8.152344 l -2.867187,0.386719 c -0.179687,0.02344 -0.347656,0.02734 -0.523437,0.03125 -0.40625,0.0039 -0.703126,-0.01172 -0.863282,-0.02344 -0.01563,0 -0.03516,0 -0.05078,-0.0039 -0.02734,0 -0.05469,-0.0039 -0.06641,-0.0039 -0.0039,0 -0.0078,0 -0.01563,0 -1.53125,-0.195313 -2.8125,-0.953125 -3.695313,-1.648437 -2.285156,-1.808594 -3.945312,-4.808594 -4.222656,-7.585938 -0.417969,-6.214844 1.574219,-7.875 3.6875,-9.628906 l 2.964844,-2.472656 -3.515625,-0.824219 C 7.792958,69.949417 5.70702,65.832229 5.92577,62.324417 c 0.179688,-2.914063 0.839844,-3.683594 2.089844,-4.320313 1.863281,1.097656 4.140625,1.945313 6.890625,2.324219 0.632812,0.08594 1.25,0.128906 1.851562,0.128906 2.066407,0 3.921876,-0.492187 5.546876,-1.199219 0.824218,0.492188 2.527343,1.941407 2.429687,3.921876 -0.15625,2.984374 -2.25,5.253906 -2.300781,5.308593 -0.6875,0.714844 -0.664063,1.851563 0.05078,2.539063 0.347656,0.335937 0.800781,0.503906 1.25,0.503906 0.472656,0 0.941406,-0.183594 1.296875,-0.550781 0.125,-0.128907 3.074219,-3.234375 3.296875,-7.617188 0.128906,-2.519531 -1.15625,-4.628906 -2.683594,-6.050781 2.324219,-1.71875 3.675781,-3.535156 3.789063,-3.691406 0.585937,-0.804688 0.40625,-1.929688 -0.398438,-2.511719 -0.804687,-0.585937 -1.929687,-0.40625 -2.515625,0.398437 -0.02734,0.03906 -1.96875,2.644532 -5.136719,4.203126 -1.683593,0.828124 -3.707031,1.363281 -5.988281,1.050781 C 13.566394,56.50801 12.031238,56.00801 10.742176,55.371292 L 9.476562,54.667969 C 8.230469,53.867188 7.285156,52.941406 6.601562,52.039062 4.460938,48.855469 3.203125,43.386719 5.171875,37.941406 c 1.972656,-5.460937 7.878906,-6.179687 9.898437,-6.265625 l 5.324219,5.5 c -1.152343,0.667969 -2.53125,1.074219 -4.171875,1.148438 -0.992187,0.04687 -1.761718,0.886719 -1.714844,1.882812 0.04688,0.964844 0.839844,1.714844 1.796876,1.714844 0.02734,0 0.05859,0 0.08594,0 3.515625,-0.164063 6.324219,-1.382813 8.34375,-3.632813 3.523437,-3.921874 3.222656,-9.515624 3.207031,-9.753906 -0.0625,-0.992187 -0.910156,-1.742187 -1.90625,-1.6875 -0.992187,0.0625 -1.75,0.917969 -1.6875,1.910156 0,0.03516 0.136719,3.226563 -1.398437,5.878907 l -5.601563,-5.785157 c -0.269531,-0.695312 -1.019531,-3.429687 1.546875,-7.550781 2.296875,-3.695312 6.144531,-3.328125 9.566407,-2.695312 0.21875,0.04297 0.417968,0.07813 0.605468,0.109375 l 4.390625,3.773437 c 0.339844,0.292969 0.757813,0.4375 1.175781,0.4375 0.503907,0 1.007813,-0.214843 1.363282,-0.628906 0.648437,-0.753906 0.5625,-1.890625 -0.191406,-2.539063 l -4.355469,-3.742187 c -0.597657,-2.511719 -0.144531,-4.816406 1.378906,-6.847656 2.769531,-3.6875 8.230469,-5.539063 10.511719,-5.539063 3.226562,0 12.070312,2.742188 12.09375,11.550782 0,0.0078 0,0.01953 0,0.02734 v 0.132813 c -0.05859,7.90625 -5.191406,9.773437 -5.816406,9.964844 -0.800782,-0.04297 -1.488282,0.464843 -1.746094,1.230468 -0.3125,0.945313 0.195312,1.964844 1.140625,2.277344 1.609375,0.535156 4.257812,-1.316406 4.554687,-1.527344 0.550782,-0.398437 1.207032,-0.953125 1.867188,-1.679687 z m 0,0"
         fill-opacity="1"
         fill-rule="nonzero"
         id="path11" />
    </g>
    <g
       clip-path="url(#96f0b9abc3)"
       id="g12"
       transform="matrix(1.3333333,0,0,1.3333333,9.0070516,7.7860674)">
      <path
         fill="#e5e1da"
         d="m 121.62109,62.132812 -0.008,-0.125 c -0.36719,-3.207031 -1.58203,-5.058593 -3.05078,-6.253906 3.77344,-3.949218 5.83984,-11.675781 3.17969,-19.035156 -2.32813,-6.449219 -8.35938,-8.105469 -11.74219,-8.523438 0.25,-2 0.0117,-5.070312 -2.30859,-8.796874 -3.21094,-5.160157 -8.484379,-5.0625 -11.742191,-4.59375 0.296875,-3.0625 -0.480469,-5.90625 -2.304688,-8.335938 -3.324219,-4.421875 -9.304687,-6.4375 -13.453125,-6.4375 -5.472656,0 -15.699218,4.453125 -15.699218,15.179688 0,0.05469 0.0039,0.101562 0.0039,0.15625 v 96.789062 c -0.01953,3.12891 1.339844,6.14063 3.824218,8.47266 2.882813,2.71093 7.054688,4.3164 11.089844,4.3164 0.34375,0 0.683594,-0.0117 1.023438,-0.0352 6.175781,-0.42578 10.269531,-4.50782 11.199218,-11.02344 5.121094,-0.61328 6.875,-5.14063 7.65625,-8.17969 2.609374,-0.10156 4.925774,-1.07422 6.628904,-2.80859 1.71875,-1.75391 2.73437,-4.230471 2.85937,-6.855471 6.79297,-0.980469 10.85157,-4.96875 11.48829,-11.375 0.48046,-4.863281 -0.6836,-8.917969 -3.46094,-12.089844 2.6875,-1.878906 5.0664,-4.867187 4.8164,-10.445313 z M 71.328125,114.5625 c -0.917969,0 -1.664063,-0.74219 -1.664063,-1.66016 0,-0.91406 0.746094,-1.66015 1.664063,-1.66015 0.914063,0 1.660156,0.74609 1.660156,1.66015 0,0.91797 -0.746093,1.66016 -1.660156,1.66016 z m -0.789063,1.47266 v 1.72265 c -0.824218,-0.82422 -1.683593,-1.98437 -2.132812,-3.47656 0.410156,0.86328 1.1875,1.51172 2.132812,1.75391 z m 42.507818,-45.398441 -2.39454,1.25 2.07422,1.730469 c 1.98828,1.65625 4.5625,4.570312 3.95703,10.695312 -0.51953,5.1875 -3.75,7.910156 -9.875,8.316406 l -1.87109,0.125 0.20313,1.867188 c 0.24218,2.210937 -0.42969,4.363281 -1.79297,5.753906 -1.01172,1.03125 -2.36328,1.61328 -3.964848,1.71875 L 98.816406,83.308594 104.04297,78.5625 c 0.66797,0.453125 1.47266,0.71875 2.33594,0.71875 2.30078,0 4.16797,-1.867188 4.16797,-4.167969 0,-2.296875 -1.86719,-4.167969 -4.16797,-4.167969 -2.29688,0 -4.16797,1.871094 -4.16797,4.167969 0,0.863281 0.26562,1.667969 0.71484,2.332031 l -5.70703,5.183594 0.585938,19.429684 -1.351563,-0.125 -0.34375,1.55079 c -0.789063,3.59375 -1.761719,6.57812 -5.199219,6.85156 V 94.082031 l -2.28125,-2.140625 V 83.6875 l 5.007813,-4.941406 c 0.527343,0.371094 1.164062,0.589844 1.851562,0.589844 1.785157,0 3.238281,-1.453126 3.238281,-3.238282 0,-1.785156 -1.453124,-3.238281 -3.238281,-3.238281 -1.785156,0 -3.238281,1.453125 -3.238281,3.238281 0,0.523438 0.136719,1.011719 0.359375,1.449219 l -5.558594,5.480469 v 7.433594 L 84.066406,87.664062 V 76.390625 c 1.402344,-0.351563 2.449219,-1.617187 2.449219,-3.128906 0,-1.785157 -1.453125,-3.238281 -3.238281,-3.238281 -1.785156,0 -3.238282,1.453124 -3.238282,3.238281 0,1.511719 1.046876,2.777343 2.449219,3.128906 V 88.34375 l 6.84375,6.421875 v 15.707035 c -0.164062,0.0703 -0.316406,0.16015 -0.453125,0.27343 -0.02734,0.0234 -0.05469,0.0391 -0.08203,0.0625 -0.0039,0.004 -0.01172,0.0117 -0.01563,0.0195 -0.25,0.23046 -0.429688,0.53125 -0.515625,0.875 -0.01172,0.0352 -0.01172,0.0781 -0.01953,0.11328 -0.01563,0.0781 -0.03125,0.14843 -0.03516,0.22656 -0.238282,4.01953 -1.757813,6.83984 -4.355469,8.25391 L 80.6875,117.37109 v -7.75781 c 1.402344,-0.35547 2.449219,-1.61719 2.449219,-3.1289 0,-1.78516 -1.453125,-3.23829 -3.238281,-3.23829 -1.785157,0 -3.238282,1.45313 -3.238282,3.23829 0,1.51171 1.046875,2.77343 2.449219,3.1289 v 8.44922 l 3.136719,2.89453 c -0.640625,0.1836 -1.324219,0.3086 -2.058594,0.35938 -2.800781,0.1875 -5.757812,-0.66407 -8.074219,-2.26172 v -3.01953 c 1.40625,-0.35547 2.449219,-1.6211 2.449219,-3.13282 0,-1.78515 -1.453125,-3.23828 -3.238281,-3.23828 -1.667969,0 -3.035157,1.27735 -3.203125,2.90625 -0.0078,-0.13672 -0.02734,-0.26172 -0.02344,-0.40234 V 96.785156 l 1.433594,1.554688 h 8.8125 c 0.371094,1.464844 1.691406,2.554686 3.265625,2.554686 1.863281,0 3.378906,-1.515624 3.378906,-3.378905 0,-1.863281 -1.515625,-3.378906 -3.378906,-3.378906 -1.574219,0 -2.894531,1.09375 -3.265625,2.558593 H 70.25 l -2.152344,-2.335937 v -9.964844 h 3.003906 c 0.367188,1.621094 1.8125,2.839844 3.542969,2.839844 2.007813,0 3.644531,-1.636719 3.644531,-3.644531 0,-2.007813 -1.636718,-3.640625 -3.644531,-3.640625 -1.730469,0 -3.175781,1.214843 -3.542969,2.839843 H 68.097656 V 59.167969 c 1.832032,-0.01172 3.570313,-0.01563 5.398438,-0.01563 v 7.960937 c -1.03125,0.234375 -1.800782,1.152344 -1.800782,2.25 0,1.277344 1.035157,2.3125 2.308594,2.3125 1.273438,0 2.3125,-1.035156 2.3125,-2.3125 0,-1.097656 -0.773437,-2.015625 -1.800781,-2.25 V 59.5 c 1.855469,1.867188 3.660156,3.734375 5.472656,5.613281 l 0.703125,0.726563 0.734375,-0.707032 -0.703125,-0.726562 c -1.015625,-1.054688 -2.027344,-2.105469 -3.050781,-3.152344 h 7.957031 c 0.234375,1.027344 1.152344,1.800782 2.25,1.800782 1.273438,0 2.3125,-1.035157 2.3125,-2.3125 0,-1.273438 -1.039062,-2.308594 -2.3125,-2.308594 -1.097656,0 -2.015625,0.769531 -2.25,1.800781 H 76.667969 C 76.027344,59.582031 75.394531,58.933594 74.746094,58.28125 L 74.59375,58.132812 h -0.210938 c -2.164062,0 -4.15625,0 -6.285156,0.01563 v -2.503907 c 5.867188,-0.05078 11.753906,-0.03125 17.527344,0.05078 0.234375,1.03125 1.152344,1.808594 2.253906,1.808594 1.273438,0 2.3125,-1.039062 2.3125,-2.3125 0,-1.273437 -1.039062,-2.3125 -2.3125,-2.3125 -1.097656,0 -2.011718,0.769532 -2.25,1.796875 -5.777344,-0.08594 -11.664062,-0.101562 -17.53125,-0.05469 v -4.40625 l 1.464844,1.589844 h 5.472656 c 0.226563,0.910156 1.042969,1.585937 2.023438,1.585937 1.15625,0 2.09375,-0.941406 2.09375,-2.097656 0,-1.15625 -0.9375,-2.09375 -2.09375,-2.09375 -0.980469,0 -1.796875,0.675781 -2.023438,1.585937 h -5.023437 l -1.914063,-2.074218 v -5.71875 L 70.628906,41.796875 80.59375,45.5 93.890625,39.226562 c 0.339844,0.4375 0.792969,0.773438 1.328125,0.964844 0.328125,0.117188 0.667969,0.175782 1.003906,0.175782 0.429688,0 0.863282,-0.09375 1.261719,-0.285157 1.480469,-0.695312 2.117187,-2.464843 1.417969,-3.945312 -0.335938,-0.714844 -0.933594,-1.257813 -1.679688,-1.523438 -0.742187,-0.269531 -1.550781,-0.230469 -2.265625,0.109375 -0.71875,0.335938 -1.257812,0.933594 -1.527343,1.679688 -0.191407,0.53125 -0.21875,1.097656 -0.09766,1.640625 l -12.800781,6.035156 -8.246094,-3.0625 7.78125,-3.667969 2.230469,-6.320312 10.082031,-4.757813 c 0.570313,0.722657 1.421875,1.148438 2.324219,1.148438 0.421875,0 0.851563,-0.08984 1.257813,-0.28125 1.476562,-0.699219 2.113281,-2.46875 1.417968,-3.945313 -0.699218,-1.480468 -2.46875,-2.113281 -3.949218,-1.417968 -1.273438,0.601562 -1.914063,2 -1.625,3.320312 l -10.558594,4.980469 -2.234375,6.320312 -10.914063,5.148438 v -15.9375 c 0.660156,0.726562 1.3125,1.28125 1.863282,1.679687 0.296874,0.210938 2.933593,2.066406 4.558593,1.527344 0.941407,-0.3125 1.453125,-1.332031 1.136719,-2.277344 -0.25,-0.753906 -0.953125,-1.230468 -1.707031,-1.230468 -0.01172,0 -0.02734,0 -0.03906,0 -0.625,-0.191407 -5.761718,-2.0625 -5.8125,-9.976563 v -0.121094 c 0,-0.0078 -0.0039,-0.01563 -0.0039,-0.02734 C 68.113281,7.1875 75.382812,4.199219 79.144531,3.714844 l -1.15625,1.066406 v 8.632812 c -1.421875,0.300782 -2.492187,1.5625 -2.492187,3.074219 0,1.730469 1.410156,3.140625 3.144531,3.140625 1.734375,0 3.144531,-1.410156 3.144531,-3.140625 0,-1.511719 -1.070312,-2.773437 -2.488281,-3.074219 V 5.355469 L 81.105469,3.6875 c 3.28125,0.269531 7.40625,1.945312 9.660156,4.945312 1.582031,2.101563 2.011719,4.59375 1.3125,7.40625 l -2.089844,2.03125 c -0.710937,0.691407 -0.726562,1.832032 -0.03516,2.542969 0.355469,0.363281 0.824219,0.546875 1.292969,0.546875 0.449218,0 0.902344,-0.167968 1.253906,-0.507812 l 1.996094,-1.941406 c 0.175781,-0.03125 0.363281,-0.06641 0.570312,-0.101563 3.425782,-0.632813 7.269538,-1 9.566408,2.691406 2.49219,4.003907 1.85547,6.691407 1.58203,7.460938 l -1.85156,1.566406 c -0.75781,0.640625 -0.85547,1.777344 -0.21094,2.535156 0.35547,0.421875 0.86329,0.640625 1.375,0.640625 0.41016,0 0.82422,-0.140625 1.16016,-0.425781 l 1.66406,-1.40625 c 1.87891,0.0625 7.73438,0.699219 9.86328,5.949219 h -15.60156 l -8.828128,9.09375 v 9.195312 c -1.550781,0.351563 -2.714844,1.734375 -2.714844,3.390625 0,1.917969 1.5625,3.480469 3.480469,3.480469 1.921875,0 3.484375,-1.5625 3.484375,-3.480469 0,-1.65625 -1.164062,-3.035156 -2.714844,-3.390625 v -8.570312 l 7.945322,-8.183594 h 15.46875 c 1.10546,3.996094 0.5625,7.90625 -0.70313,10.824219 h -12.52734 l -5.11719,5.90625 v 5.648437 c -1.550786,0.351563 -2.710943,1.734375 -2.710943,3.386719 0,1.917969 1.558594,3.480469 3.480473,3.480469 1.91797,0 3.48047,-1.5625 3.48047,-3.480469 0,-1.652344 -1.16406,-3.035156 -2.71094,-3.386719 v -5.074218 l 4.27735,-4.945313 H 117.25 c -0.70312,1.175781 -1.51953,2.085937 -2.36719,2.65625 h -5.12109 c -0.99609,0 -1.80078,0.804687 -1.80078,1.800781 0,0.992188 0.80469,1.796875 1.80078,1.796875 h 5.24609 c 1.73438,0.835938 2.69922,1.855469 3.02344,4.585938 0.18359,4.632812 -1.76953,6.605469 -4.98437,8.28125 z m -9.25782,4.476562 c 0,-1.429687 1.16407,-2.589843 2.58985,-2.589843 1.42968,0 2.58984,1.160156 2.58984,2.589843 0,1.429688 -1.16016,2.589844 -2.58984,2.589844 -1.42578,0 -2.58985,-1.160156 -2.58985,-2.589844 z m -9.960935,0.984375 c 0,-0.917968 0.746094,-1.660156 1.660156,-1.660156 0.917969,0 1.660157,0.742188 1.660157,1.660156 0,0.917969 -0.742188,1.660156 -1.660157,1.660156 -0.914062,0 -1.660156,-0.742187 -1.660156,-1.660156 z M 83.277344,74.921875 c -0.917969,0 -1.660156,-0.742187 -1.660156,-1.660156 0,-0.917969 0.742187,-1.660157 1.660156,-1.660157 0.917968,0 1.660156,0.742188 1.660156,1.660157 0,0.917969 -0.742188,1.660156 -1.660156,1.660156 z m -3.378906,33.222655 c -0.914063,0 -1.660157,-0.74219 -1.660157,-1.66015 0,-0.91797 0.746094,-1.66016 1.660157,-1.66016 0.917968,0 1.664062,0.74219 1.664062,1.66016 0,0.91796 -0.746094,1.66015 -1.664062,1.66015 z m -0.01953,-10.628905 c 0,-0.953125 0.777344,-1.730469 1.730469,-1.730469 0.957031,0 1.734375,0.777344 1.734375,1.730469 0,0.957031 -0.777344,1.734375 -1.734375,1.734375 -0.953125,0 -1.730469,-0.777344 -1.730469,-1.734375 z M 72.613281,83.589844 c 0,-1.121094 0.910157,-2.03125 2.035157,-2.03125 1.121093,0 2.03125,0.910156 2.03125,2.03125 0,1.125 -0.910157,2.035156 -2.03125,2.035156 -1.125,0 -2.035157,-0.910156 -2.035157,-2.035156 z m 1.390625,-15.515625 c 0.714844,0 1.292969,0.578125 1.292969,1.292969 0,0.710937 -0.582031,1.289062 -1.292969,1.289062 -0.710937,0 -1.289062,-0.578125 -1.289062,-1.289062 0,-0.714844 0.578125,-1.292969 1.289062,-1.292969 z m 12.582032,-7.328125 c 0,-0.714844 0.582031,-1.292969 1.292968,-1.292969 0.710938,0 1.292969,0.578125 1.292969,1.292969 0,0.710937 -0.582031,1.289062 -1.292969,1.289062 -0.710937,0 -1.292968,-0.578125 -1.292968,-1.289062 z m 0,-5.554688 c 0,-0.710937 0.582031,-1.289062 1.292968,-1.289062 0.710938,0 1.292969,0.578125 1.292969,1.289062 0,0.710938 -0.582031,1.292969 -1.292969,1.292969 -0.710937,0 -1.292968,-0.582031 -1.292968,-1.292969 z M 75.984375,51.292969 c 0,-0.589844 0.484375,-1.074219 1.074219,-1.074219 0.59375,0 1.078125,0.484375 1.078125,1.074219 0,0.59375 -0.484375,1.078125 -1.078125,1.078125 -0.589844,0 -1.074219,-0.484375 -1.074219,-1.078125 z M 94.664062,36.84375 c 0.148438,-0.417969 0.453126,-0.75 0.851563,-0.9375 0.226563,-0.105469 0.464844,-0.160156 0.703125,-0.160156 0.191406,0 0.378906,0.03125 0.5625,0.09766 0.414062,0.148438 0.75,0.453125 0.9375,0.851562 0.390625,0.824219 0.03516,1.8125 -0.792969,2.203126 -0.398437,0.1875 -0.84375,0.214843 -1.265625,0.0625 -0.414062,-0.152344 -0.746094,-0.453126 -0.9375,-0.851563 -0.1875,-0.402344 -0.210937,-0.851563 -0.05859,-1.265625 z M 93.988281,22.957031 c 0.226563,-0.105469 0.46875,-0.15625 0.707031,-0.15625 0.621094,0 1.214844,0.347657 1.5,0.945313 0.386719,0.828125 0.03125,1.816406 -0.792968,2.207031 -0.824219,0.386719 -1.816406,0.03516 -2.203125,-0.792969 -0.390625,-0.824218 -0.03516,-1.8125 0.789062,-2.203125 z M 78.640625,14.652344 c 1.011719,0 1.835937,0.824218 1.835937,1.835937 0,1.011719 -0.824218,1.832031 -1.835937,1.832031 -1.011719,0 -1.835937,-0.820312 -1.835937,-1.832031 0,-1.011719 0.824218,-1.835937 1.835937,-1.835937 z m 15.910156,42.703125 c 1.070313,0 1.945313,0.871093 1.945313,1.945312 0,1.070313 -0.875,1.941407 -1.945313,1.941407 -1.070312,0 -1.941406,-0.871094 -1.941406,-1.941407 0,-1.074219 0.871094,-1.945312 1.941406,-1.945312 z m 6.601559,5.625 c 1.07422,0 1.94532,0.871093 1.94532,1.941406 0,1.074219 -0.8711,1.945313 -1.94532,1.945313 -1.07031,0 -1.941402,-0.871094 -1.941402,-1.945313 0,-1.070313 0.871092,-1.941406 1.941402,-1.941406 z m 0,0"
         fill-opacity="1"
         fill-rule="nonzero"
         id="path12" />
    </g>
  </g>
</svg>
