<?xml version="1.0" encoding="UTF-8" standalone="no"?>
<!-- Created with Inkscape (http://www.inkscape.org/) -->

<svg
   width="512"
   height="512"
   viewBox="0 0 512 512"
   version="1.1"
   id="svg1"
   inkscape:version="1.3.1 (9b9bdc1480, 2023-11-25, custom)"
   sodipodi:docname="neuralreef_icon_flow.svg"
   xmlns:inkscape="http://www.inkscape.org/namespaces/inkscape"
   xmlns:sodipodi="http://sodipodi.sourceforge.net/DTD/sodipodi-0.dtd"
   xmlns="http://www.w3.org/2000/svg"
   xmlns:svg="http://www.w3.org/2000/svg">
  <sodipodi:namedview
     id="namedview1"
     pagecolor="#ffffff"
     bordercolor="#000000"
     borderopacity="0.25"
     inkscape:showpageshadow="2"
     inkscape:pageopacity="0.0"
     inkscape:pagecheckerboard="0"
     inkscape:deskcolor="#d1d1d1"
     inkscape:document-units="px"
     inkscape:zoom="2.34375"
     inkscape:cx="255.78667"
     inkscape:cy="256"
     inkscape:window-width="2560"
     inkscape:window-height="1403"
     inkscape:window-x="0"
     inkscape:window-y="0"
     inkscape:window-maximized="1"
     inkscape:current-layer="layer1" />
  <defs
     id="defs1">
    <clipPath
       id="1287475cb9">
      <path
         d="M 345.22266,0.03125 H 501.90234 V 125.97656 H 345.22266 Z m 0,0"
         clip-rule="nonzero"
         id="path3" />
    </clipPath>
  </defs>
  <g
     inkscape:label="Layer 1"
     inkscape:groupmode="layer"
     id="layer1">
    <g
       clip-path="url(#1287475cb9)"
       id="g13"
       transform="matrix(3.0517147,0,0,3.3555743,-1038.2997,50.417931)">
      <path
         fill="#e6e3dd"
         d="m 414.02734,52.363281 c -2.64843,0.08203 -5.46093,0.222657 -8.01172,1.007813 -1.19921,0.394531 -2.30078,0.976562 -3.30078,1.75 -1,0.769531 -1.84375,1.6875 -2.53125,2.75 -1.27734,1.890625 -2.23437,3.9375 -2.86328,6.132812 -0.91015,-0.128906 -1.82812,-0.1875 -2.7539,-0.167968 -1.125,-0.03906 -2.22657,0.105468 -3.30079,0.4375 -1.04687,0.414062 -1.23437,1.464843 -1.47656,2.445312 -0.29297,1.152344 -0.54297,2.3125 -0.74219,3.480469 -0.19921,1.164062 -0.35937,2.335937 -0.48046,3.507812 -0.10157,0.976563 -0.375,2.203125 0.17187,3.113281 0.54297,0.90625 1.82031,1.007813 2.80859,1.140626 1.27735,0.164062 2.5625,0.222656 3.85157,0.179687 0.32031,-0.0039 0.55468,-0.148437 0.69531,-0.433594 0.0391,0.683594 0.082,1.363281 0.13672,2.046875 0.16015,2.144532 0.65625,4.203125 1.48828,6.183594 0.70703,1.828125 1.82422,3.351562 3.35156,4.570312 1.72266,1.320313 3.63281,2.253907 5.73438,2.800782 2.08203,0.550781 4.1914,0.582031 6.32031,0.703125 h 0.29297 c -0.0234,0.02734 -0.0469,0.05469 -0.0664,0.08984 -0.80469,1.324219 -0.1875,2.976563 0.99219,3.851563 1.42969,1.0625 3.35156,0.792969 5.01172,0.632813 l 2.92187,-0.273438 c 0.89844,-0.08203 1.94532,-0.04297 2.78907,-0.398438 1.41406,-0.585937 1.64843,-2.199218 1.62109,-3.570312 0,-0.105469 -0.0195,-0.207031 -0.0586,-0.304688 0.64843,-0.07812 1.29296,-0.164062 1.94531,-0.265624 2.50781,-0.492188 4.89453,-1.332032 7.15625,-2.519532 3.15625,-1.527344 5.50781,-4.253906 7.05469,-7.359375 0.0937,0.257813 0.27734,0.398438 0.55078,0.425781 1.50781,0.273438 3.11718,0.496094 4.625,0.08203 0.69531,-0.195313 1.32031,-0.53125 1.87109,-1 0.55078,-0.46875 0.97656,-1.03125 1.28125,-1.6875 0.62891,-1.40625 1.04297,-2.875 1.23828,-4.40625 0.19922,-1.417969 0.33985,-3.144532 -0.55078,-4.375 -0.63281,-0.882813 -1.65234,-1.167969 -2.62891,-1.484375 l -3.44531,-1.101563 c -0.0859,-0.02344 -0.17187,-0.03516 -0.25781,-0.03125 0.0586,-1.914062 -0.14844,-3.796875 -0.625,-5.648437 -0.3125,-1.160157 -0.80078,-2.242188 -1.45703,-3.246094 -1.44922,-1.949219 -3.28516,-3.417969 -5.50781,-4.40625 -2.40625,-1.121094 -4.89063,-2.023437 -7.45704,-2.703125 -1.27734,-0.351562 -2.55859,-0.65625 -3.85546,-0.914062 0.16796,-0.820313 0.2539,-1.644532 0.26171,-2.484376 0,-0.550781 0.0469,-1.292968 -0.39062,-1.738281 -0.46875,-0.351562 -0.99219,-0.535156 -1.57813,-0.550781 l -0.37109,-0.06641 c 0,0 0,0 0,-0.03125 0.24219,-2.265625 0.59766,-4.511719 1.07031,-6.742188 0.17578,0.02344 0.33594,-0.01563 0.48047,-0.109375 0.79688,-0.488281 1.30078,-1.1875 1.50391,-2.097656 0.0937,-0.4375 0.0664,-0.867187 -0.0781,-1.289063 -0.14453,-0.421874 -0.39062,-0.777343 -0.73047,-1.0625 -0.34765,-0.300781 -0.74609,-0.476562 -1.20312,-0.527343 -0.45313,-0.05469 -0.88281,0.03125 -1.28516,0.246093 -0.41797,0.273438 -0.73047,0.632813 -0.9414,1.082032 -0.21094,0.453125 -0.28907,0.925781 -0.23438,1.417968 0.0508,0.601563 0.29688,1.109376 0.73438,1.523438 0.0586,0.05469 0.12109,0.105469 0.1875,0.152344 -0.52344,2.363281 -0.90625,4.75 -1.15625,7.15625 -0.45313,-0.132813 -0.91407,-0.160156 -1.37891,-0.08203 -0.94531,0.238282 -1.30859,1.332032 -1.55859,2.167969 -0.23047,0.683594 -0.33203,1.382813 -0.29688,2.101563 -1.85547,-0.128906 -3.71484,-0.160156 -5.57422,-0.101563 z m -17.98437,19.671875 c -0.0703,1.585938 -0.0547,3.164063 0,4.75 -0.15235,-0.238281 -0.3711,-0.347656 -0.65235,-0.324218 -0.96093,0.03516 -1.91796,0.01172 -2.875,-0.07813 -0.48437,-0.04297 -0.96484,-0.101562 -1.44531,-0.183593 -0.30859,-0.05078 -0.8125,-0.04687 -0.94531,-0.375 -0.082,-0.402344 -0.082,-0.800781 0,-1.203125 0.0391,-0.472656 0.082,-0.941406 0.13672,-1.414063 0.10547,-0.945312 0.25,-1.890625 0.41406,-2.832031 0.16406,-0.941406 0.36328,-1.859375 0.58203,-2.75 0.10938,-0.464844 0.22656,-0.925781 0.35156,-1.378906 0.12891,-0.449219 0.22266,-0.445313 0.64063,-0.550782 1.53125,-0.292968 3.06641,-0.332031 4.60937,-0.109374 -0.46484,2.125 -0.73828,4.273437 -0.8164,6.449218 z m 28.01562,24.453125 c -1.39453,0.234375 -2.84765,0.265625 -4.25781,0.402344 -1.21875,0.109375 -2.57812,0.386719 -3.78516,0.05078 -0.79296,-0.226562 -1.77734,-1.101562 -1.23828,-2.011718 0.19532,-0.28125 0.19532,-0.5625 0,-0.847657 1.94532,0.121094 3.89453,0.242188 5.84766,0.261719 1.48437,0 2.96875,-0.04687 4.44531,-0.167969 -0.004,0.05469 -0.004,0.109375 0,0.160157 -0.0234,0.847656 0.0156,1.976562 -1.01172,2.152344 z m 21.33594,-24.265625 c 0,-0.07813 0,-0.160156 0,-0.238281 l 3.08594,0.976563 c 0.85937,0.273437 1.86719,0.429687 2.20312,1.390624 0.44922,1.394532 0,3.152344 -0.33203,4.515626 -0.33203,1.367187 -0.79687,2.914062 -2.09765,3.640624 -1.30079,0.726563 -3.0625,0.472657 -4.48829,0.214844 -0.15625,-0.02734 -0.30859,-0.01563 -0.45703,0.04297 0.33985,-0.792969 0.63282,-1.605469 0.875,-2.433594 0.73047,-2.652343 1.13282,-5.359375 1.21094,-8.109376 z M 433.44141,56.980469 c 2.21484,0.695312 4.28906,1.691406 6.22265,2.984375 0.88672,0.632812 1.64844,1.398437 2.28516,2.289062 1.29297,1.957032 1.73437,4.257813 1.82812,6.5625 0.10157,2.488282 -0.0312,4.964844 -0.40234,7.425782 -0.68359,4.527343 -2.42969,9.035156 -6.05859,12.019531 -1.73829,1.445312 -3.94922,2.308593 -6.05469,3.074219 -2.39453,0.789062 -4.85156,1.214843 -7.3711,1.28125 -4.59765,0.253906 -9.27734,-0.121094 -13.86328,-0.433594 -3.53125,-0.242188 -7.71093,-1.871094 -9.76562,-4.882813 -2.26953,-3.304687 -2.48828,-7.550781 -2.59766,-11.410156 -0.17187,-3.535156 0.14844,-7.019531 0.95313,-10.464844 0.17187,-0.210937 0.23828,-0.453125 0.19531,-0.726562 0.25781,-0.890625 0.56641,-1.761719 0.93359,-2.617188 0.89063,-2.097656 2.125,-4.214843 3.91016,-5.679687 1.94922,-1.597656 4.53516,-1.960938 6.96484,-2.203125 3.85547,-0.378907 7.71094,-0.335938 11.5586,0.128906 3.84765,0.464844 7.59765,1.339844 11.2539,2.625 z m -8.64844,-18.246094 z m 0,-0.05078 c 0.004,0.01563 0.004,0.03125 0,0.04687 z m -0.10156,0.371094 c 0,-0.01172 0,-0.02344 0,-0.03516 0,-0.07031 0.0312,-0.148437 0.0547,-0.21875 v -0.05859 c 0.0312,-0.06641 0.0664,-0.132813 0.10547,-0.195313 v -0.04297 l 0.082,-0.08203 c 0.0117,-0.01563 0.0312,-0.03125 0.0469,-0.03906 l 0.0508,-0.03516 h 0.19141 l 0.14453,0.03906 c 0.0625,0.03125 0.12109,0.06641 0.17578,0.105469 0.0508,0.03906 0.0976,0.08594 0.13672,0.132812 0,0.05469 0.0625,0.105469 0.0937,0.160156 0,0.04297 0,0.121094 0.0391,0.171875 0.0391,0.04687 0,0 0,0.04297 0,0.04297 0,0.140625 0,0.207031 v 0.07813 c 0,0.07031 -0.043,0.144532 -0.0664,0.214844 l -0.0312,0.07031 c -0.0391,0.07422 -0.082,0.144532 -0.1289,0.214844 -0.0195,0.02344 -0.0352,0.04687 -0.0547,0.07422 l -0.0742,0.08203 c -0.0547,-0.0078 -0.10937,-0.0078 -0.16016,0 h -0.0937 l -0.11718,-0.03516 -0.0781,-0.03125 -0.082,-0.05078 -0.10937,-0.105469 c -0.008,-0.01563 -0.0156,-0.02734 -0.0274,-0.04297 0,0 -0.0273,0 -0.0273,-0.03125 0,-0.03516 0,-0.05469 -0.043,-0.08984 -0.0469,-0.03125 0,0 -0.0273,-0.03906 v -0.03125 c 0,-0.04297 -0.0274,-0.08984 -0.0391,-0.132813 0.004,-0.02344 0.004,-0.04687 0,-0.07031 0,-0.06641 0,-0.128906 0,-0.195312 0,-0.0078 0,-0.01953 0,-0.03125 0.043,0.05078 0.0391,0.09375 0.0508,0 z M 421.875,49.78125 Z m -0.60938,2.582031 c -0.004,-0.04687 -0.004,-0.08984 0,-0.136719 v -0.578124 c 0,-0.144532 0.0547,-0.292969 0.0859,-0.433594 0.0742,-0.316406 0.16797,-0.625 0.28125,-0.925782 0,-0.06641 0.0508,-0.128906 0.0742,-0.1875 v -0.03516 l 0.082,-0.175781 c 0.0195,-0.03516 0.043,-0.07031 0.0586,-0.109375 h 0.0742 l 0.55079,0.105469 1.37109,0.242187 c 0.40234,0.07031 0.80859,0.160156 1.21484,0.21875 0,0.167969 0,0.324219 0,0.492188 0.004,0.753906 -0.0742,1.496094 -0.23047,2.234375 -1.18359,-0.199219 -2.3789,-0.359375 -3.57421,-0.480469 0,-0.07422 0.004,-0.152344 0.0117,-0.230469 z m -8.73828,17.015625 c 0.30078,0.304688 0.47657,0.671875 0.51953,1.097656 0.0469,0.429688 -0.0469,0.820313 -0.27734,1.183594 -0.10156,0.164063 -0.22656,0.3125 -0.37109,0.445313 -0.19141,0.171875 -0.40625,0.300781 -0.64453,0.390625 -0.39454,0.148437 -0.79297,0.148437 -1.1875,0 -0.47266,-0.164063 -0.83985,-0.457032 -1.10157,-0.886719 -0.10937,-0.183594 -0.13672,-0.375 -0.0898,-0.582031 -0.0312,-0.07813 -0.0586,-0.15625 -0.0742,-0.238282 -0.0781,-0.359374 -0.0352,-0.707031 0.12891,-1.035156 0.0898,-0.195312 0.21484,-0.363281 0.375,-0.507812 0.24609,-0.203125 0.52734,-0.339844 0.83984,-0.402344 0.31641,-0.06641 0.625,-0.05078 0.93359,0.03906 0.36329,0.08594 0.67969,0.253907 0.94922,0.511719 z m 16.8125,4.792969 c 0.10157,0.132813 0.23438,0.21875 0.39844,0.257813 0.16797,0.03516 0.33594,0.04687 0.50781,0.03906 0.23047,-0.02344 0.45313,-0.08203 0.66797,-0.175781 0.30078,-0.148438 0.54688,-0.359375 0.73047,-0.640625 0.1875,-0.292969 0.27734,-0.609375 0.26953,-0.957032 0,-0.535156 -0.20312,-0.976562 -0.60547,-1.328124 -0.17578,-0.144532 -0.37109,-0.257813 -0.58203,-0.339844 -0.26562,-0.09766 -0.53515,-0.136719 -0.8164,-0.117188 -0.70313,0.05469 -1.57813,0.351563 -1.75782,1.101563 -0.0351,0.195312 -0.0508,0.390625 -0.0351,0.589843 -0.004,0.207032 0.0273,0.40625 0.0937,0.601563 0.0703,0.261719 0.20703,0.484375 0.41406,0.664063 0.20312,0.179687 0.44141,0.285156 0.71484,0.320312 z m 0.75782,-1.597656 h 0.12109 c 0,0 0,0 0,0.04297 v 0.07422 h -0.1875 c -0.0742,-0.08594 -0.16406,-0.15625 -0.26563,-0.207031 l 0.14063,-0.03906 z m -8.26172,5.359375 c 0.5,-0.238282 0.9414,-0.558594 1.32422,-0.960938 0.16015,-0.152344 0.35546,-0.222656 0.57812,-0.21875 0.22266,0.0039 0.41016,0.08203 0.56641,0.238282 0.16015,0.160156 0.23828,0.347656 0.24218,0.570312 0.004,0.222656 -0.0703,0.414062 -0.21875,0.578125 -0.60546,0.617187 -1.30859,1.085937 -2.10937,1.40625 -0.82031,0.226563 -1.64453,0.273437 -2.48438,0.140625 -0.89843,-0.02344 -1.75,-0.234375 -2.55468,-0.625 -0.37891,-0.210938 -0.67578,-0.503906 -0.88672,-0.878906 -0.21094,-0.378906 -0.30469,-0.785156 -0.28516,-1.214844 0.004,-0.226562 0.0859,-0.417969 0.2461,-0.578125 0.16015,-0.160156 0.35156,-0.242187 0.57812,-0.25 0.22656,0.0039 0.42188,0.08594 0.58203,0.246094 0.16016,0.160156 0.24219,0.355469 0.24219,0.582031 -0.043,0.40625 0.26172,0.683594 0.69531,0.820312 0.57422,0.15625 1.15235,0.25 1.7461,0.285157 0.58984,0.08984 1.16796,0.04687 1.73828,-0.125 z M 409,58.445312 c -1.10938,0.378907 -2.12109,0.9375 -3.03125,1.679688 -0.91016,0.746094 -1.66016,1.621094 -2.25391,2.636719 -0.96875,1.832031 -1.68359,3.761719 -2.14062,5.785156 -0.98828,3.855469 -1.41797,8.316406 0.0547,12.117187 1.35937,3.546876 4.35546,5.78125 7.86328,6.988282 2.47265,0.78125 5.0039,1.25 7.59375,1.398437 4.9375,0.476563 9.79297,0.02734 14.55859,-1.34375 3.65625,-1.128906 6.20313,-3.9375 7.74219,-7.367187 0.75,-1.546875 1.23437,-3.171875 1.45703,-4.878906 0.22266,-1.703126 0.17187,-3.398438 -0.15625,-5.085938 -0.24219,-1.136719 -0.59375,-2.238281 -1.05859,-3.300781 -1.4375,-3.171875 -4.52735,-5.300781 -7.60547,-6.707031 -2.26172,-1.0625 -4.62891,-1.796876 -7.09766,-2.203126 -5.16406,-0.84375 -10.875,-1.597656 -15.92578,0.296876 z m 28.05469,7.492188 c 0.46875,0.597656 0.85937,1.242188 1.17187,1.933594 0.6836,1.570312 1.0586,3.207031 1.13281,4.917968 0.0703,1.707032 -0.16796,3.375 -0.71484,4.996094 -0.96875,2.972656 -2.75391,6.007813 -5.53906,7.570313 -1.86328,1.035156 -4.16797,1.4375 -6.25,1.761719 -2.25,0.335937 -4.50781,0.480468 -6.78125,0.429687 -2.65625,-0.0078 -5.28516,-0.28125 -7.88281,-0.820313 -2.91016,-0.648437 -5.9336,-1.890624 -7.78907,-4.335937 -2.36718,-3.121094 -2.33203,-7.53125 -1.69922,-11.214844 0.28516,-1.566406 0.6836,-3.097656 1.19532,-4.605469 0.6875,-2.082031 1.60156,-4.160156 3.47265,-5.445312 1.8711,-1.28125 4.27735,-1.832031 6.54297,-2.046875 2.57813,-0.199219 5.14844,-0.125 7.70703,0.230469 2.63672,0.261718 5.20703,0.828125 7.71094,1.691406 2.83594,1.035156 5.76953,2.546875 7.72266,4.953125 z m 31.44922,17.816406 c -0.55079,-0.328125 -1.28125,-0.1875 -1.85157,-0.08984 -0.60937,0.113282 -1.1875,0.3125 -1.73437,0.601563 -0.23828,0.125 -0.46875,0.269531 -0.6875,0.429687 -0.0117,-0.0039 -0.0195,-0.0039 -0.0274,0 0,-0.230468 0.0547,-0.464843 0.0586,-0.640624 0.0273,-0.535157 -0.10156,-1.03125 -0.37891,-1.484376 -0.0664,-0.117187 -0.14453,-0.226562 -0.23437,-0.324218 -0.0899,-0.09766 -0.19141,-0.183594 -0.30078,-0.257813 -0.11329,-0.07422 -0.23047,-0.132812 -0.35547,-0.179687 -0.12891,-0.04297 -0.25782,-0.07422 -0.39063,-0.08594 -0.13281,-0.01563 -0.26562,-0.01172 -0.39844,0.0078 -0.13281,0.01953 -0.25781,0.05078 -0.38281,0.101562 -0.125,0.05078 -0.24219,0.113281 -0.34765,0.191407 -0.10938,0.07812 -0.20704,0.167968 -0.29297,0.269531 -0.33594,0.464843 -0.58594,0.96875 -0.75782,1.515625 -0.19531,0.523437 -0.34765,1.058594 -0.45703,1.605468 -0.23437,1.167969 -0.27734,2.339844 -0.1289,3.519532 -0.73828,0.328125 -1.40625,0.757812 -2.00782,1.296875 -2.44921,1.898437 -4.3164,4.257812 -5.59375,7.085937 -0.83203,0.117188 -1.53515,0.484375 -2.10937,1.101563 -0.59766,0.640625 -0.96484,1.390625 -1.10156,2.257812 -0.36719,-0.16015 -0.76563,-0.27734 -1.10157,-0.39062 -1.96875,-0.656255 -3.98828,-1.085942 -6.05468,-1.29688 -2.375,-0.28125 -4.76563,-0.339843 -7.16016,-0.394531 -0.55078,-0.890625 -1.16016,-1.734375 -1.83203,-2.535156 -0.74609,-0.96875 -1.64844,-1.75 -2.71094,-2.351563 -0.94922,-0.472656 -1.78515,0.949219 -0.83203,1.429688 1.78516,0.894531 3.08984,2.867187 4.09766,4.523437 0.54687,0.871095 1,1.789065 1.35547,2.753905 0.38671,1.25782 0.64453,2.54297 0.76562,3.85547 0.35938,2.80078 0.35938,5.59766 0,8.39844 -0.1875,1.50391 -0.47656,2.99609 -0.80078,4.47656 -0.23438,1.10156 -0.39453,2.75391 -1.35938,3.4961 -0.51171,0.39843 -1.24609,0.37109 -1.85546,0.41406 l -2.57813,0.16406 c -1.65234,0.10547 -3.33984,0.20313 -5.01172,0.28906 -3.30078,0.17188 -6.60547,0.30469 -9.91015,0.39844 -1.65235,0.0508 -3.30469,0.14453 -4.98438,0.0742 -0.73437,0.0117 -1.45703,-0.0742 -2.16797,-0.25391 -0.73437,-0.25 -0.73828,-1.3164 -0.85937,-1.97265 -0.53907,-3.1836 -0.74219,-6.39063 -0.60547,-9.6211 0.0742,-3.25781 0.13672,-6.57422 1.03906,-9.73047 0.71484,-2.515622 1.97266,-5.140622 4.30078,-6.531247 0.19531,-0.113282 0.32422,-0.28125 0.38281,-0.503906 0.0586,-0.21875 0.0274,-0.429688 -0.0859,-0.625 -0.11719,-0.199219 -0.28516,-0.324219 -0.50782,-0.382813 -0.21875,-0.05859 -0.42968,-0.02734 -0.625,0.08594 -1.55078,0.941407 -2.75781,2.214844 -3.61718,3.8125 -0.14844,-0.04297 -0.29297,-0.04297 -0.4375,0 -2.26563,0.800782 -4.39453,1.874996 -6.38672,3.222656 -1.86719,1.1875 -3.5586,2.58203 -5.08203,4.18359 -0.72266,0.78516 -1.3711,1.62891 -1.94532,2.52735 -0.10937,-0.11719 -0.23046,-0.21875 -0.36328,-0.3086 -0.4414,-2.05468 -0.85156,-4.11718 -1.34765,-6.15625 -0.42578,-1.73437 -1.04688,-3.54687 -2.32422,-4.847652 0.72656,-1.710937 0.8789,-3.621094 1.04687,-5.457031 0.1211,-0.589844 0.004,-1.125 -0.35547,-1.613281 -0.21093,-0.25 -0.47656,-0.410156 -0.80078,-0.476563 -0.32031,-0.07031 -0.6289,-0.03125 -0.92578,0.113281 -0.4375,0.277344 -0.80469,0.625 -1.10156,1.046876 -0.17188,0.214843 -0.32422,0.429687 -0.47266,0.65625 -0.75,-0.585938 -1.5,-1.183594 -2.26953,-1.730469 -0.24219,-0.191407 -0.51562,-0.304688 -0.82422,-0.328125 -0.30468,-0.02734 -0.59375,0.03516 -0.86328,0.1875 -0.26953,0.148437 -0.47265,0.363281 -0.61328,0.640625 -0.13672,0.273437 -0.1875,0.566406 -0.14453,0.871093 0.0898,0.523438 0.27344,1.007813 0.55078,1.460938 0.20313,0.378906 0.40625,0.753906 0.62109,1.101562 0.46875,0.820313 0.95704,1.652344 1.48047,2.417969 0.45313,0.695313 0.94922,1.355469 1.48828,1.988281 -0.0469,0.199219 -0.082,0.398438 -0.10546,0.605469 -0.13282,1.488281 -0.0547,2.968747 0.24218,4.437497 0.38672,2.28516 1.09766,4.46485 2.13282,6.54297 v 0.0312 c -0.63282,0.92969 -0.0547,2.28125 0.41406,3.16016 0.2539,0.46093 0.55469,0.88672 0.90625,1.27734 0.33984,0.4375 0.77344,0.73047 1.30469,0.87891 0.35937,0.0742 0.71484,0.0508 1.0625,-0.0664 0.34765,-0.11328 0.64453,-0.30859 0.88671,-0.58594 0.3711,-0.4414 0.62891,-0.94531 0.77735,-1.5039 0.26562,0.0391 0.53125,0.0625 0.79687,0.0742 1.2461,-0.0352 2.44922,-0.27735 3.60938,-0.73438 2.30469,-0.78906 4.53515,-1.75391 6.6914,-2.89453 l -0.0351,0.61719 c -0.22656,3.58984 -0.13281,7.17578 0.28906,10.7539 0.12109,0.86328 0.25781,1.73438 0.44531,2.58594 0.082,0.74609 0.39453,1.37891 0.9336,1.89453 0.6289,0.41406 1.32031,0.63281 2.07031,0.65625 0.9375,0.10156 1.87891,0.14063 2.82031,0.11719 3.65625,-0.0352 7.3125,-0.20703 10.96875,-0.37109 3.65625,-0.16407 7.28516,-0.29688 10.91016,-0.63282 0.71094,-0.0195 1.35937,-0.23047 1.94531,-0.6289 0.58594,-0.39844 1.02344,-0.92188 1.30469,-1.57422 0.55859,-1.44922 0.9414,-2.94141 1.14844,-4.48047 0.63281,-3.09766 0.86718,-6.22656 0.70703,-9.38672 -0.0625,-0.92969 -0.14453,-1.85937 -0.26953,-2.78516 h 0.082 c 2.17187,0.19141 4.33593,0.12891 6.49218,-0.17968 1.0586,-0.14844 2.10938,-0.35938 3.14454,-0.62891 0.83984,-0.16797 1.63281,-0.46875 2.375,-0.89844 0.33203,0.3711 0.72656,0.65625 1.1875,0.84766 0.46093,0.19531 0.9375,0.27734 1.4375,0.25391 0.34375,-0.0195 0.67968,-0.0977 1,-0.22657 0.32031,-0.13281 0.61328,-0.30859 0.875,-0.53515 0.26171,-0.22657 0.48046,-0.48828 0.65625,-0.78907 0.17578,-0.29687 0.30078,-0.61718 0.37109,-0.95312 0.11328,-0.49219 0.14844,-0.99219 0.10937,-1.49219 0.23829,0.008 0.4375,-0.0742 0.59375,-0.2539 1.32422,-1.382816 2.6836,-2.753909 3.94532,-4.17969 1.26953,-1.316407 2.27343,-2.8125 3.01562,-4.484376 0.0977,-0.238281 0.17188,-0.484374 0.22266,-0.738281 0.15625,0.121094 0.33203,0.171875 0.53125,0.15625 0.19531,-0.01563 0.36328,-0.09375 0.49609,-0.238281 l 3.01172,-3 c 0.48438,-0.484375 0.99219,-0.953125 1.46094,-1.453125 0.4375,-0.417969 0.73047,-0.917969 0.88281,-1.503906 0.0859,-0.316407 0.0742,-0.628907 -0.0312,-0.9375 -0.10547,-0.308594 -0.28906,-0.5625 -0.54687,-0.757813 z m -80.33594,7.15625 0.0391,-0.04297 c 0.0234,0.04297 0,0.07031 -0.0391,0.04297 z m -0.25,-0.113281 z M 382.78516,90.625 Z m -0.21094,0.05078 z m 1.10156,1.652344 c -0.21094,-0.375 -0.41797,-0.75 -0.61719,-1.128906 l -0.10937,-0.222657 0.39062,0.28125 0.71094,0.550782 1.65234,1.273437 c 0.19141,0.101563 0.39844,0.125 0.60938,0.07031 0.21094,-0.05859 0.375,-0.179688 0.49219,-0.367188 0.17578,-0.367187 0.38672,-0.710937 0.62109,-1.042968 0.0391,-0.05078 0.25391,-0.285157 0.44531,-0.496094 0,0.34375 -0.0586,0.679687 -0.0937,1.019531 -0.0703,1.324219 -0.33203,2.609375 -0.78515,3.855469 -0.27344,-0.01172 -0.52735,0.05078 -0.76172,0.1875 -0.96875,-1.25 -1.81641,-2.574219 -2.55078,-3.976563 z m 3.39844,10.148436 c -0.13672,-0.8164 -0.22266,-1.63672 -0.25,-2.46093 -0.0859,-0.699225 -0.0312,-1.386725 0.16797,-2.062506 l 0.0664,-0.101563 c 0.0586,0.05859 0.20703,0.140626 0.28125,0.214844 0.31641,0.328125 0.58594,0.695313 0.8086,1.097656 0.44531,0.835938 0.77734,1.710939 0.98828,2.632819 0.49219,1.88281 0.87109,3.80078 1.27344,5.70703 -0.0899,0.0117 -0.17969,0.0273 -0.26954,0.0508 -0.46093,0.13281 -0.8789,0.34765 -1.2539,0.64844 -0.8711,-1.82422 -1.47266,-3.73438 -1.8125,-5.72657 z M 389,110.30078 Z m 2.15234,2.20313 c -0.0625,0.15625 -0.15625,0.30078 -0.27343,0.42187 l -0.0391,0.0352 -0.0976,0.0586 -0.0899,0.0352 h -0.0664 l -0.0664,-0.0391 -0.0391,-0.0312 c -0.6211,-0.56641 -1.0625,-1.25391 -1.3125,-2.05469 -0.082,-0.20313 -0.13672,-0.41016 -0.16016,-0.625 0,0.0469 0,0 0,0 l 0.0977,-0.10156 c 0.28125,-0.29297 0.58984,-0.55079 0.92578,-0.77735 l 0.23047,-0.13672 0.13281,-0.0664 0.082,-0.0273 0.21094,-0.0547 c 0.0781,-0.008 0.16016,-0.008 0.24219,0 h 0.0742 l 0.1875,0.0625 c 0.0742,0.0508 0.17578,0.14062 0.082,0.0391 l 0.0625,0.0664 c 0,0 0,0 0.0273,0.0508 0.0781,0.12109 0.17578,0.21875 0.30469,0.29296 -0.32031,0.50391 -0.46875,1.05469 -0.44141,1.65235 0.0234,0.16406 0.082,0.3164 0.17578,0.45703 -0.0234,0.0469 -0.043,0.10156 -0.0625,0.15234 -0.0703,0.1875 -0.17578,0.51953 -0.21484,0.60547 z m 5.71875,-2.23438 c -0.63281,0.22656 -1.27343,0.41016 -1.92968,0.54688 -0.33204,0.0703 -0.66797,0.10937 -1.00782,0.12109 -0.28906,0 -0.67187,-0.12109 -0.95312,-0.0977 0,-0.0547 0.0508,-0.10937 0.0781,-0.17187 0.13282,-0.26953 0.26953,-0.55078 0.41797,-0.80859 0.29688,-0.53125 0.61719,-1.04297 0.96875,-1.53516 1.46094,-1.94141 3.19922,-3.58203 5.22266,-4.92188 1.82422,-1.30468 3.77734,-2.3789 5.85156,-3.23046 -0.76953,2.22265 -1.23437,4.51171 -1.38672,6.85937 -2.32812,1.30859 -4.75781,2.39063 -7.28906,3.25391 z m 65.66016,-26.984374 c 0,0.03125 0,0.04297 -0.0469,0.03906 -0.0508,-0.0078 0.0156,-0.03906 0.0195,-0.02344 z m -9.77734,15.722656 c -0.0274,-0.04687 0,0 0,0 z m -0.14454,-0.03906 z m -4.01953,3.519528 c -0.3125,0.29297 -0.67968,0.47656 -1.10156,0.55078 -1.06641,0.32422 -2.14453,0.58594 -3.24219,0.77344 -2.30468,0.39063 -4.62109,0.47656 -6.94531,0.26172 -0.11719,-0.0117 -0.23437,0 -0.34766,0.0352 -0.2539,-1.33594 -0.67578,-2.6211 -1.2539,-3.85157 4.0625,0.0977 8.1914,0.29688 12.05469,1.69532 0.22265,0.0781 0.46093,0.19921 0.6914,0.26171 0.23047,0.0664 0.3086,0.0664 0.14453,0.26172 z m 4.70703,-0.60156 c 0.004,0.0156 0.004,0.0273 0,0.043 -0.0117,0.0859 -0.0273,0.16797 -0.0469,0.25 -0.0273,0.10937 -0.0586,0.21875 -0.10156,0.32812 v 0.0742 c -0.0274,0.0625 -0.0586,0.125 -0.0937,0.1836 l -0.0859,0.14453 c -0.0156,0.0156 -0.0273,0.0352 -0.0352,0.0547 l -0.0547,0.0625 c -0.0391,0.043 -0.0781,0.0859 -0.1211,0.125 l -0.0664,0.0625 c -0.0234,0.0117 -0.0469,0.0273 -0.0664,0.0469 l -0.10938,0.0664 -0.13281,0.0664 c -0.10547,0.0273 -0.20312,0.0625 -0.30859,0.082 h -0.16016 c -0.10547,0.008 -0.21094,0.008 -0.3164,0 l -0.22657,-0.043 -0.1289,-0.0391 h -0.082 c -0.0899,-0.043 -0.1836,-0.0898 -0.26954,-0.14062 -0.0312,-0.0195 -0.0586,-0.0391 -0.0859,-0.0625 -0.0274,-0.0195 -0.0547,-0.0391 -0.0781,-0.0625 -0.0547,-0.0508 -0.10547,-0.10547 -0.15625,-0.16407 0.13281,-0.0977 0.22656,-0.22656 0.28125,-0.38281 0.0508,-0.16015 0.0547,-0.3164 0.008,-0.47656 -0.0391,-0.11328 -0.0781,-0.22656 -0.10546,-0.33984 -0.0274,-0.11719 -0.0352,-0.16016 -0.0391,-0.1875 -0.0195,-0.20704 -0.0195,-0.41016 0,-0.61719 0.004,-0.0234 0.004,-0.043 0,-0.0664 0,-0.0586 0.0274,-0.12109 0.043,-0.17578 0.0234,-0.0937 0.0508,-0.18359 0.0859,-0.27344 l 0.0352,-0.10547 c 0,-0.0391 0.0508,-0.10156 0.0469,-0.0937 0.0508,-0.10937 0.11328,-0.21484 0.17969,-0.3164 0.0273,-0.04688 0.0664,-0.09766 0.10156,-0.148438 l 0.19531,-0.207031 c 0.0391,-0.03906 0.0899,-0.07813 0.12891,-0.121094 l 0.0586,-0.04297 c 0.082,-0.0625 0.17578,-0.121094 0.26953,-0.179687 l 0.16016,-0.08203 h 0.0352 c 0.0976,-0.03125 0.19531,-0.05859 0.29687,-0.08203 h 0.24219 l 0.10937,0.03516 c 0,0 0.0703,0.05859 0.0391,0 l 0.043,0.04688 c 0,0 0,0.03906 0.0351,0.07422 v 0.04687 c 0.10156,0.308594 0.1875,0.632813 0.26172,0.95313 0.16797,0.54297 0.24219,1.09765 0.21484,1.66406 z m 7.4961,-9.874999 c -0.69141,1.328125 -1.55078,2.53125 -2.58203,3.613281 -1.13672,1.292969 -2.35157,2.515625 -3.54688,3.753906 -0.0976,-0.578125 -0.33594,-1.089844 -0.71484,-1.535156 l -0.10156,-0.08594 c 1.30078,-2.742187 3.1914,-4.992187 5.66796,-6.746093 0.32032,-0.214844 1.10157,-0.914063 1.53516,-0.503907 0.33203,0.355469 -0.10547,1.195313 -0.25781,1.503907 z m 5.96484,-5.960938 c -1.35937,1.34375 -2.71875,2.695313 -4.07812,4.050781 -0.0469,-0.148437 -0.10938,-0.289062 -0.19141,-0.421874 -0.24219,-0.382813 -0.57812,-0.644532 -1.00781,-0.785157 -0.19531,-1.519531 -0.043,-3.003906 0.46484,-4.453125 0.10156,-0.332031 0.23828,-0.652344 0.40625,-0.957031 0.0195,-0.04297 0.043,-0.07813 0.0664,-0.117187 0.0547,0.07812 0.12109,0.164062 0.12109,0.171874 0.0312,0.07031 0.0508,0.144532 0.0664,0.21875 0.0117,0.386719 0,0.777344 -0.0391,1.164063 0,0.785156 0.25781,1.863281 1.23828,1.855469 0.41797,-0.04687 0.76953,-0.222656 1.05859,-0.523438 0.27344,-0.234375 0.57031,-0.429687 0.89063,-0.597656 0.28125,-0.140625 0.57421,-0.25 0.875,-0.328125 0.26953,-0.05859 0.53906,-0.09766 0.80859,-0.109375 -0.17578,0.324219 -0.40234,0.605469 -0.67969,0.851562 z m -46.09765,20.609377 c -0.32422,0.28125 -0.60157,0.60156 -0.83204,0.95703 -0.375,-0.51172 -0.83203,-0.92969 -1.3789,-1.25781 -0.26563,-0.16407 -0.55469,-0.2461 -0.86719,-0.2461 -0.3125,0 -0.60156,0.082 -0.86719,0.2461 -0.26172,0.18359 -0.45703,0.42578 -0.58593,0.72265 -0.125,0.30078 -0.16407,0.60938 -0.11719,0.92969 0.23047,1.09766 0.78125,2 1.65234,2.70703 0.40235,0.37891 0.86719,0.64844 1.39453,0.8125 0.53125,0.16016 1.06641,0.19531 1.61328,0.10938 0.0625,-0.0117 0.125,-0.0352 0.17969,-0.0664 0.16406,0.0937 0.34375,0.13281 0.53125,0.11328 0.19141,-0.0234 0.35547,-0.0977 0.49219,-0.23047 0.75391,-0.61719 1.37109,-1.35156 1.84766,-2.20312 0.47265,-0.87891 0.55078,-2.03516 -0.19922,-2.79297 -0.75,-0.75391 -2.03125,-0.45703 -2.86328,0.22265 z m -3.02344,1.0625 c 0,0 0.0547,-0.004 0,0 z m -0.082,0.0508 c -0.0274,0 -0.0508,-0.0625 0,0 z m 0.16015,0.28515 c -0.0273,-0.0625 -0.0469,-0.125 -0.0586,-0.1914 0.0781,0.0508 0.17969,0.0977 0.23828,0.14844 0.52344,0.46875 0.93359,1.01953 1.23438,1.65234 0.0234,0.0508 0.0547,0.0937 0.0937,0.13281 -0.10547,-0.0586 -0.20313,-0.12109 -0.29688,-0.1875 -0.53125,-0.41797 -0.93359,-0.9375 -1.20703,-1.55469 z m 4.75782,-0.20703 v 0.0273 c 0,0 0,0.16015 0,0.13281 -0.0703,0.28906 -0.19922,0.55469 -0.38282,0.79297 -0.33984,0.49609 -0.73828,0.94531 -1.19531,1.33984 -0.19922,-0.10937 -0.41406,-0.14062 -0.63672,-0.0977 -0.0703,0.008 -0.13672,0.008 -0.20312,0 0.22265,-0.0508 0.39453,-0.17579 0.5039,-0.37891 0.25391,-0.54297 0.56641,-1.04297 0.94141,-1.50391 0.16406,-0.19922 0.35937,-0.35547 0.58594,-0.47265 0.0859,-0.0469 0.17578,-0.0703 0.27343,-0.0664 0,0 -0.0937,-0.0352 0,0 0.0937,0.0312 0,-0.0547 0.0664,0.0547 -0.043,-0.0508 0,0 0,0 0,0 0.0273,0.0977 0.0352,0.12109 z m 2.41015,-68.152339 c 0,0 0,0 0,-0.03516 0,0 -0.0156,-0.0039 0,0.03516 z m 0.27735,-1.378907 z m -0.45313,0.746094 v -0.0625 c 0.004,0.02344 0.004,0.04297 0,0.06641 z m 0.0508,0.429688 c 0.0117,0.01563 0.0234,0.03906 0.0312,0.05859 L 424.76172,39.5 Z M 501.25,65.304688 c -1.35938,-2.253907 -4.14063,-3.34375 -6.45313,-4.324219 -2.75,-1.160157 -5.58203,-2.058594 -8.5039,-2.6875 -1.46875,-0.316407 -2.94922,-0.546875 -4.44141,-0.734375 -1.32812,-0.203125 -2.65625,-0.203125 -3.98437,0 -3.30078,0.613281 -4.4375,3.796875 -5.57813,6.558594 -1.33594,3.242187 -2.375,6.578124 -3.10937,10.007812 -0.0781,0.328125 0.0156,0.597656 0.27343,0.8125 -0.55078,2.378906 2.00782,3.976562 4.0586,4.300781 0.6289,0.09766 1.25781,0.152344 1.88281,0.253907 0.35156,0.05078 0.69922,0.128906 1.03906,0.230468 0.30469,0.09375 0.42188,0.08203 0.45703,0.390625 -0.0156,0.753907 -0.10156,1.5 -0.2539,2.242188 -0.0937,0.796875 -0.1836,1.589843 -0.27735,2.386719 0.004,0.128906 0.0312,0.25 0.0899,0.367187 0.0586,0.113281 0.13672,0.210937 0.23828,0.285156 0.10547,0.07813 0.21875,0.128907 0.34375,0.15625 0.125,0.02344 0.25,0.01953 0.375,-0.01563 1.00781,-0.441406 1.86719,-1.082031 2.58203,-1.914062 0.76563,-0.804688 1.52734,-1.652344 2.75391,-1.570313 0.82812,0.09766 1.64062,0.261719 2.4414,0.496094 l 2.41407,0.550781 c 1.47656,0.328125 2.94921,0.710938 4.4414,0.957032 2.57422,0.4375 5.26953,0.253906 6.96875,-1.988282 1.70313,-2.238281 2.26563,-5.476562 2.6211,-8.257812 0.1875,-1.472656 0.32031,-2.949219 0.41015,-4.40625 0.16797,-1.449219 -0.0976,-2.8125 -0.78906,-4.097656 z m -1.14063,7.109374 c -0.26953,2.664063 -0.67968,5.589844 -2.00781,7.96875 -0.26953,0.535157 -0.64062,0.988282 -1.10937,1.359376 -0.47266,0.371093 -1,0.621093 -1.58594,0.753906 -1.13672,0.183594 -2.26563,0.140625 -3.38672,-0.125 -1.56641,-0.296875 -3.12109,-0.683594 -4.67969,-1.035156 l -2.41797,-0.550782 c -0.80859,-0.234375 -1.63281,-0.367187 -2.47265,-0.410156 -1.1875,0.07422 -2.1875,0.550781 -3,1.421875 -0.41797,0.390625 -0.8086,0.867187 -1.2461,1.285156 0.10547,-0.910156 0.21485,-1.824219 0.3086,-2.753906 0.14844,-1.410156 -0.71875,-2.015625 -1.98047,-2.324219 -1.26172,-0.308594 -2.52734,-0.25 -3.72656,-0.648437 -0.9336,-0.308594 -2.03516,-1.214844 -1.6875,-2.292969 0.0586,-0.15625 0.0625,-0.3125 0.0117,-0.46875 -0.0508,-0.160156 -0.14454,-0.285156 -0.28125,-0.378906 0.58203,-2.648438 1.34375,-5.242188 2.28515,-7.785156 0.48438,-1.296876 1.01563,-2.570313 1.59375,-3.824219 0.5,-1.101563 1.03516,-2.3125 2.10156,-2.960938 1.08204,-0.550781 2.22657,-0.753906 3.42969,-0.605469 1.33985,0.08203 2.66797,0.25 3.98828,0.503907 2.69922,0.492187 5.33203,1.222656 7.90235,2.183593 1.3125,0.480469 2.59765,1.03125 3.85547,1.652344 1.07812,0.453125 2.07031,1.058594 2.97265,1.808594 2.03906,1.8125 1.375,4.796875 1.13281,7.226562 z M 480.5625,68.558594 c 0.17187,-0.144532 0.35547,-0.277344 0.55078,-0.394532 0.22266,-0.144531 0.45313,-0.273437 0.69141,-0.386718 0.19531,-0.117188 0.32422,-0.285156 0.3789,-0.507813 0.0586,-0.21875 0.0312,-0.429687 -0.0781,-0.625 -0.1211,-0.191406 -0.29297,-0.316406 -0.51172,-0.371093 -0.21875,-0.05859 -0.42578,-0.03125 -0.625,0.07812 -0.57813,0.289063 -1.11328,0.644532 -1.60156,1.066407 -0.51953,0.4375 -1.10157,0.976562 -1.10157,1.703125 0,0.726562 0.63672,1.320312 1.03907,1.855468 l 1.27343,1.703126 c 0.11719,0.183593 0.28125,0.304687 0.49219,0.359374 0.21485,0.05469 0.41406,0.03125 0.60938,-0.07031 0.1875,-0.113281 0.30859,-0.277344 0.36718,-0.488281 0.0586,-0.214844 0.0352,-0.417969 -0.0703,-0.613281 l -1.01172,-1.445313 c -0.17187,-0.234375 -0.34375,-0.464844 -0.51953,-0.691406 -0.0273,-0.04297 -0.32422,-0.476563 -0.44922,-0.640625 V 69.0625 c 0.17578,-0.183594 0.36719,-0.351562 0.56641,-0.507812 z m -0.62891,0.550781 c 0,0.0625 0,0.03516 0,0 z m 9.91407,-0.414063 c 0.16015,0.164063 0.23828,0.359376 0.23828,0.585938 0,0.226562 -0.0781,0.421875 -0.23828,0.582031 -1.39844,1.257813 -2.8086,2.507813 -4.20704,3.773438 -0.16406,0.15625 -0.35937,0.234375 -0.58593,0.234375 -0.22657,0 -0.41797,-0.07813 -0.58203,-0.234375 -0.16016,-0.160157 -0.24219,-0.355469 -0.24219,-0.582031 0,-0.230469 0.082,-0.421876 0.24219,-0.585938 1.39062,-1.265625 2.80078,-2.515625 4.20703,-3.773438 0.16406,-0.152343 0.36328,-0.230468 0.58984,-0.226562 0.22656,0.0078 0.42188,0.08984 0.58203,0.25 z m 4.05859,3.949219 c -0.0117,-0.01953 -0.0117,-0.04297 0,-0.06641 z m 0.91406,-2.234375 c 0.55078,1.046875 1.1836,2.40625 0.2461,3.425782 -0.4375,0.410156 -0.9375,0.726562 -1.4961,0.941406 -0.53125,0.257812 -1.08203,0.457031 -1.65234,0.605468 -0.22266,0.05469 -0.42969,0.02734 -0.62891,-0.08203 -0.19531,-0.113281 -0.32812,-0.277343 -0.39062,-0.496093 -0.0586,-0.21875 -0.0312,-0.429688 0.082,-0.625 0.11328,-0.199219 0.27734,-0.328126 0.49609,-0.390626 0.27344,-0.06641 0.53906,-0.152343 0.80469,-0.257812 l 0.25391,-0.09766 h 0.0351 l 0.0859,-0.03516 0.43359,-0.203126 c 0.14453,-0.07031 0.28516,-0.148437 0.42188,-0.230468 l 0.13281,-0.08203 c 0,0 0.0898,-0.07031 0.10156,-0.07812 0.0117,-0.0039 0.11328,-0.113282 0.125,-0.109376 0,0 0,0.02734 0,0.03906 v -0.03516 c 0,0 0,-0.03125 0,-0.03906 v -0.07031 c 0,-0.05469 -0.0273,-0.113282 -0.043,-0.175782 -0.0156,-0.05859 -0.082,-0.265624 -0.13281,-0.394531 l -0.0273,-0.06641 -0.0703,-0.167969 c -0.0742,-0.148437 -0.14454,-0.289062 -0.22266,-0.429687 -0.21484,-0.40625 -0.46094,-0.796875 -0.6875,-1.199219 -0.11719,-0.195312 -0.14453,-0.40625 -0.0898,-0.628906 0.0586,-0.21875 0.1875,-0.390625 0.38281,-0.503906 0.19922,-0.117188 0.40625,-0.144532 0.6289,-0.08594 0.22266,0.05469 0.39063,0.183594 0.50391,0.382812 0.25391,0.335938 0.49609,0.714844 0.71094,1.113282 z M 375.54297,36.945312 c -0.65235,-1.101562 -1.3711,-2.160156 -2.16016,-3.167968 -0.51172,-0.652344 -1.10156,-0.460938 -1.86719,-0.394532 -0.76562,0.06641 -1.65234,0.144532 -2.43359,0.199219 -3.61328,0.253907 -7.23047,0.34375 -10.85156,0.261719 -0.23047,0.0039 -0.42188,0.08203 -0.58203,0.246094 -0.16407,0.160156 -0.24219,0.355468 -0.2461,0.582031 0.16797,2.402344 -0.29687,4.679687 -1.38672,6.828125 -0.53515,1.058594 -1.20312,2.023438 -2.01171,2.894531 -0.73047,0.785157 -1.56641,1.546875 -1.21485,2.753907 0.22656,0.582031 0.51953,1.132812 0.8711,1.652343 l 1.16406,2.019531 c 0.66406,1.140626 1.30859,2.289063 1.98828,3.410157 1.16797,1.929687 2.60547,3.921875 4.72266,4.878906 0.5625,0.257813 1.14843,0.441406 1.76171,0.550781 1.20313,1.558594 3.4961,1.652344 5.40625,1.585938 3.17188,-0.07031 6.30469,-0.464844 9.39454,-1.179688 0.28125,-0.08203 0.46484,-0.265625 0.55078,-0.550781 0.65625,-2.527344 0.97656,-5.097656 0.95703,-7.710937 -0.0195,-2.613282 -0.375,-5.179688 -1.06641,-7.699219 -0.68359,-2.519531 -1.68359,-4.90625 -2.99609,-7.160157 z M 377.19531,58.5 c -2.44922,0.539062 -4.92578,0.867188 -7.42969,0.984375 -1.11328,0.09766 -2.22265,0.08594 -3.33203,-0.03125 l -0.32031,-0.05859 c 0.72266,-0.234375 1.34766,-0.621093 1.87891,-1.160156 0.15234,-0.164063 0.22656,-0.355469 0.22265,-0.578125 -0.004,-0.222656 -0.0859,-0.410156 -0.24218,-0.570312 -0.15625,-0.15625 -0.34766,-0.238282 -0.57032,-0.242188 -0.22265,-0.0039 -0.41406,0.07031 -0.57812,0.222656 -0.71875,0.699219 -1.58203,1.023438 -2.58594,0.96875 -0.21875,-0.269531 -0.49219,-0.359375 -0.82812,-0.269531 -0.0937,0.02734 -0.17579,0.07031 -0.25391,0.128906 -0.39063,-0.101562 -0.76953,-0.242187 -1.12891,-0.429687 -1.85547,-0.96875 -3.03906,-2.847656 -4.0664,-4.601563 -0.625,-1.042969 -1.23047,-2.105469 -1.83985,-3.160156 l -0.96093,-1.652344 c -0.16407,-0.273437 -0.32422,-0.550781 -0.48438,-0.828125 -0.10156,-0.179687 -0.33984,-0.464844 -0.3125,-0.683594 0.043,-0.359374 0.66016,-0.792968 0.88672,-1.042968 0.37109,-0.402344 0.71875,-0.828125 1.03906,-1.269532 0.61328,-0.835937 1.125,-1.726562 1.53906,-2.671874 0.84766,-1.929688 1.26954,-3.949219 1.26172,-6.058594 4.38672,0.05859 8.76563,-0.125 13.13282,-0.550782 1.2539,1.660157 2.3125,3.433594 3.17578,5.324219 0.86328,1.890625 1.51172,3.855469 1.9375,5.890625 0.42968,2.03125 0.63281,4.089844 0.60937,6.167969 -0.0273,2.078125 -0.27734,4.128906 -0.75781,6.152344 z m -8.10547,-13.902344 c -0.48047,1.792969 -0.0508,3.667969 -0.26953,5.507813 -0.0742,0.605469 -0.26172,1.25 -0.98828,1.296875 C 367.29687,51.359375 366.78906,51.222656 366.30078,51 l -2.83594,-0.921875 c -0.21093,-0.06641 -0.37109,-0.195313 -0.48047,-0.390625 -0.10546,-0.199219 -0.1289,-0.402344 -0.0703,-0.617188 0.0586,-0.214843 0.1875,-0.378906 0.37891,-0.492187 0.1914,-0.113281 0.39844,-0.144531 0.61328,-0.08984 l 2.02734,0.65625 1.03907,0.339844 c 0.0859,0.02344 0.16406,0.05469 0.24218,0.08594 0,-0.242187 0,-0.484374 0.0274,-0.71875 0,-0.5 0,-1.003906 -0.0274,-1.503906 -0.0508,-1.078125 0.0508,-2.140625 0.3086,-3.1875 0.0547,-0.226562 0.18359,-0.398437 0.38672,-0.515625 0.19921,-0.121093 0.41406,-0.148437 0.63671,-0.08594 0.22657,0.0625 0.39454,0.195312 0.50391,0.402344 0.11328,0.203124 0.13281,0.417968 0.0664,0.636718 z m 80.83203,-14.707031 z m -0.15234,0 z m 9.47656,12.117187 z m -0.16797,-0.09375 -0.0547,-0.03906 c 0.0547,0.02734 0.0664,0.02734 0.0547,0.02734 z m -0.44531,-0.722656 c 0,0.01563 0,0.02734 0,0.04297 -0.008,-0.02344 -0.008,-0.04687 0,-0.07031 z m 9.3125,-15.820312 c 0.0391,0.04687 0,0.109375 0,0 z m 0.73828,0.675781 h -0.0508 c 0,0 0,-0.05469 0.0508,-0.02734 z m 0.23828,-0.05078 c 0.0274,-0.0625 0.082,-0.0625 0,-0.02734 z m 1.88282,-1.164063 V 24.875 c -0.004,-0.01563 -0.004,-0.03125 0,-0.04297 z m -1.88282,1.148438 z m 0,0 h -0.0391 c 0,0 0,-0.0039 0.0195,-0.01172 z m -24.88671,8.8125 c -0.10547,-0.07422 -0.21875,-0.136719 -0.33594,-0.195313 -0.58594,-0.265625 -1.1836,-0.292968 -1.79297,-0.08203 -0.29297,0.105469 -0.5625,0.253906 -0.80469,0.449219 -0.24219,0.191406 -0.44531,0.421875 -0.61328,0.683594 -0.16797,0.261718 -0.28906,0.542968 -0.35937,0.84375 -0.0742,0.300781 -0.0977,0.605468 -0.0703,0.914062 0.0391,0.761719 0.31641,1.417969 0.83203,1.976562 0.27344,0.277344 0.59766,0.460938 0.97657,0.550782 0.0547,0.06641 0.11718,0.125 0.1875,0.179687 0.98828,0.730469 2.41406,0.191407 3.04297,-0.75 0.69921,-1.050781 0.45312,-2.539062 -0.14844,-3.574219 V 35.75 c 0.27344,-0.03125 0.48828,-0.164062 0.64062,-0.394531 1.02344,-1.472657 2.0586,-2.820313 3.17969,-4.175781 0.39844,0.261718 0.83203,0.371093 1.30859,0.332031 0.6211,0.355469 1.26172,0.394531 1.92579,0.125 0.61718,-0.273438 1.13281,-0.675781 1.54296,-1.210938 l 0.16016,-0.199219 4.4375,2.394532 c 0.19922,0.105468 0.40625,0.203125 0.59766,0.324218 l 0.10547,0.07422 c 0,0 0.0469,0.109375 0.0547,0.152344 0.0937,0.4375 0.14063,0.894531 0.21094,1.332031 0.14453,0.949219 0.29297,1.894532 0.43359,2.84375 0.0703,0.210938 0.20313,0.371094 0.39844,0.480469 0.19922,0.105469 0.40625,0.128906 0.6211,0.07031 0.19531,-0.07422 0.33984,-0.199219 0.4414,-0.378907 0.10156,-0.179687 0.13281,-0.371093 0.0937,-0.574219 -0.16406,-1.023437 -0.32031,-2.046874 -0.47265,-3.074218 -0.043,-0.4375 -0.1211,-0.867188 -0.23438,-1.292969 0.0898,-0.01563 0.17578,-0.03906 0.26172,-0.07813 2.42969,-1.167969 4.82812,-2.398438 7.19141,-3.695312 0.10546,-0.05859 0.1914,-0.136719 0.26171,-0.238282 0.0664,-0.09766 0.10938,-0.207031 0.12891,-0.328125 0.0156,-0.121093 0.008,-0.238281 -0.0312,-0.351562 -0.0391,-0.117188 -0.0977,-0.214844 -0.18359,-0.304688 0.0312,0.01172 0.0625,0.01953 0.0937,0.03516 0.58203,0.164062 1.13281,0.08594 1.65234,-0.230469 0.19922,0.148437 0.42188,0.183593 0.66016,0.109375 0.57422,-0.195313 1.04687,-0.53125 1.41797,-1.011719 0.37109,-0.480469 0.57812,-1.019531 0.62109,-1.625 0.008,-0.292969 -0.0312,-0.574219 -0.11719,-0.851563 -0.0859,-0.28125 -0.21875,-0.535156 -0.39453,-0.765624 -0.17187,-0.234376 -0.37891,-0.433594 -0.62109,-0.59375 -0.24219,-0.160157 -0.50391,-0.277344 -0.78516,-0.351563 -0.98047,-0.273437 -1.89844,-0.132813 -2.75391,0.425781 -1.76953,-1.59375 -3.46484,-3.257812 -5.08984,-4.996094 0.082,-0.21875 0.125,-0.445312 0.14063,-0.675781 0.0234,-0.652343 -0.19141,-1.210937 -0.64454,-1.679687 -0.21875,-0.214844 -0.46484,-0.390625 -0.73828,-0.527344 -0.27343,-0.136719 -0.5625,-0.230469 -0.86328,-0.273438 -0.30469,-0.04687 -0.60547,-0.04687 -0.91015,0.0039 -0.30079,0.05078 -0.58594,0.144531 -0.85938,0.285156 -0.53125,0.246094 -0.94141,0.621094 -1.23828,1.121094 -0.29297,0.503906 -0.41797,1.046875 -0.375,1.628906 0.0156,0.535156 0.18359,1.011719 0.50391,1.4375 0.3164,0.429687 0.73046,0.726563 1.23437,0.894531 0.50391,0.167969 1.01172,0.175782 1.52344,0.02734 0.51172,-0.152344 0.92969,-0.433594 1.26562,-0.847656 1.5625,1.65625 3.19141,3.25 4.88282,4.777344 h 0.0391 c -0.23438,0.394531 -0.35938,0.820312 -0.3711,1.277343 -0.0117,0.457031 0.0937,0.886719 0.3125,1.289063 0.20704,0.332031 0.47657,0.601562 0.8086,0.808594 -0.14453,0.0039 -0.27735,0.03906 -0.40235,0.105468 -2.36718,1.296875 -4.76562,2.527344 -7.19921,3.695313 -0.1836,0.09766 -0.30469,0.25 -0.35547,0.453125 -0.0352,-0.02344 -0.0742,-0.04687 -0.10938,-0.06641 -1.69922,-0.925782 -3.39844,-1.835938 -5.09375,-2.753907 -0.0156,-0.09766 -0.0351,-0.191406 -0.0625,-0.285156 -0.24219,-0.625 -0.60937,-1.164063 -1.10156,-1.621094 -0.4375,-0.46875 -0.96484,-0.800781 -1.58203,-0.992187 -0.12891,-0.03125 -0.26172,-0.05469 -0.39453,-0.07031 -0.008,-0.125 -0.0469,-0.234375 -0.1211,-0.335937 -1.83593,-2.453125 -3.60547,-4.9375 -5.3125,-7.457032 0.42188,-0.253906 0.69532,-0.621093 0.8125,-1.101562 0.14453,-0.625 0.0234,-1.199219 -0.35547,-1.714844 -0.35546,-0.484375 -0.79687,-0.871094 -1.32421,-1.160156 -0.52735,-0.289062 -1.08985,-0.453125 -1.69141,-0.492188 -0.61719,-0.02344 -1.16797,0.160157 -1.64844,0.550782 -0.46094,0.414062 -0.77734,0.921875 -0.94531,1.519531 -0.33203,1.019531 -0.27344,2.273437 0.63672,2.972656 0.90625,0.699219 1.94922,0.386719 2.82422,-0.164062 1.78515,2.601562 3.61718,5.171875 5.50781,7.707031 -0.59375,0.304688 -1.0625,0.738281 -1.40625,1.300781 -0.34766,0.566407 -0.52344,1.179688 -0.52344,1.84375 0.0195,0.234375 0.0703,0.460938 0.15625,0.679688 -1.25781,1.496093 -2.44531,3.046875 -3.5625,4.648437 -0.0703,0.07813 -0.12109,0.171875 -0.14453,0.273438 z m 17.07031,-18.238281 -0.0391,-0.04688 c 0.0156,0.01953 0.0234,0.03906 0.0234,0.0625 z m -0.11328,-0.140626 -0.0742,-0.04687 z m -0.62891,-0.273437 c -0.0273,0 -0.0547,0 -0.0547,0 0,0 0.0117,0.01172 0.0391,0.01563 z m -0.65625,0.08984 h -0.0391 c 0,0 0.0195,0.0078 0.0234,0.01563 z m -0.83203,0.976562 v -0.05469 c -0.0117,-0.08203 0.0195,0.0078 -0.0156,0.07422 z m 0.0937,0.585938 z m 0.12891,0.21875 z m 1.45312,-0.07031 c 0,-0.01172 0,-0.02734 0,-0.03906 l -0.0508,0.07813 -0.043,0.05469 -0.0898,0.08203 -0.19532,0.121093 h -0.0625 l -0.1914,0.05469 h -0.0274 c -0.0351,0 -0.0469,0 -0.0469,0 h -0.12891 c -0.0586,0 -0.14453,-0.03125 -0.19922,-0.04687 l -0.0781,-0.03906 -0.17188,0.01563 -0.15625,-0.160156 c -0.0195,-0.03516 -0.043,-0.06641 -0.0664,-0.09375 -0.0274,-0.07422 -0.0625,-0.144531 -0.10547,-0.210938 -0.0156,-0.03906 -0.0273,-0.08203 -0.0391,-0.125 0,-0.05469 0,-0.121093 -0.0391,-0.179687 -0.004,-0.03516 -0.004,-0.06641 0,-0.101563 0,-0.03125 0,-0.06641 0,-0.09766 0.0312,-0.08984 0.0547,-0.183594 0.0703,-0.277344 0,-0.03906 0.0391,-0.07422 0.0625,-0.109374 l 0.0547,-0.09375 c 0.008,-0.01172 0.0156,-0.01953 0.0274,-0.02734 h -0.0312 c 0.0703,-0.05469 0.12109,-0.136719 0.1875,-0.199219 0.0234,-0.02344 0.0508,-0.04687 0.0742,-0.07422 l 0.21093,-0.128906 0.0859,-0.05078 0.26172,-0.07422 h 0.0859 c 0,0 -0.0391,0 0.043,0 h 0.0312 c 0.0898,-0.0078 0.18359,-0.0078 0.27343,0 h 0.0937 l 0.19141,0.04687 0.0391,0.02734 0.17188,0.09375 h 0.0391 c 0,0 0,0 0.0391,0.03516 l 0.0391,0.03906 0.0703,0.06641 0.0508,0.07031 c 0,0 0.0312,0.07031 0.0547,0.105469 0,0.03125 0,0.06641 0.0273,0.09766 -0.0117,0.07813 -0.0117,0.160157 0,0.238281 -0.0156,0.03125 -0.0234,0.0625 -0.0273,0.09375 -0.29297,0.07422 -0.47657,0.257813 -0.55078,0.550782 0,0.04297 -0.0274,0.08594 -0.0469,0.136718 0.004,0.05078 0.0195,0.09375 0.0469,0.136719 z m 9.94922,7.578125 0.0547,-0.07422 c -0.008,0.03125 -0.0274,0.05469 -0.0547,0.07422 z m -0.21484,-1.601562 h -0.0586 c 0,0 0.0274,-0.01172 0.0586,0 z M 468.22266,24.5 c 0.0391,-0.05078 0.0781,-0.09766 0.125,-0.144531 0.0664,-0.07031 0.13671,-0.132813 0.21093,-0.195313 l 0.12891,-0.08984 c 0.0859,-0.05078 0.16797,-0.08984 0.25,-0.132812 l 0.14844,-0.05469 0.27343,-0.06641 h 0.49219 c 0.0781,0 0.16406,0.03516 0.24219,0.05469 l 0.16016,0.05469 0.17187,0.105469 h 0.0312 l 0.0547,0.05078 c 0.0351,0 0.0625,0.06641 0.0937,0.09375 l 0.0312,0.03125 c 0.0351,0.05469 0.0664,0.140625 0.0859,0.160157 0.0117,0.02734 0.0195,0.05469 0.0273,0.08203 0,0.03516 0,0.07813 0,0.109375 v 0.03906 c 0,0 0,0.140625 0,0.207032 0,-0.04688 0.0312,-0.07422 0,0.02734 0,0 0,0.109375 -0.0391,0.164063 l -0.0352,0.09766 c -0.0391,0.08984 -0.0898,0.175781 -0.14062,0.257812 -0.0117,0.01563 -0.0195,0.03125 -0.0274,0.04688 -0.0156,0.02344 -0.0351,0.04297 -0.0547,0.05859 -0.0625,0.07422 -0.14062,0.132813 -0.20703,0.199219 l -0.14062,0.08984 -0.0899,0.04297 h -0.0664 l -0.0703,0.02734 c -0.15625,-0.09766 -0.32422,-0.140625 -0.50782,-0.128906 -0.18359,0.01172 -0.34375,0.07422 -0.48437,0.195312 l -0.0469,0.03125 0.0352,-0.03125 c -0.0469,0.03906 -0.0469,0 0,0 -0.0391,0.0078 -0.082,0.01563 -0.12109,0.03125 h -0.0547 c 0,0 0,0 -0.043,0 -0.0156,0.0078 -0.0312,0.0078 -0.0508,0 h -0.0547 l -0.0937,-0.03125 c -0.0586,-0.02734 -0.11719,-0.05859 -0.17578,-0.09375 -0.0508,-0.03516 -0.0977,-0.109374 -0.043,0 0.0547,0.109376 0,0 -0.0391,-0.03516 -0.0469,-0.05859 -0.0977,-0.117187 -0.15625,-0.167968 0,0 -0.0274,-0.05078 -0.043,-0.07813 -0.0156,-0.02734 0,-0.07031 -0.0273,-0.105468 0.004,-0.03516 0.004,-0.07422 0,-0.109375 -0.004,-0.05078 -0.004,-0.101563 0,-0.152344 v -0.03516 c 0.0312,-0.09375 0.0547,-0.1875 0.0703,-0.285157 0.0117,-0.01953 0.0234,-0.03906 0.0312,-0.0625 0.043,-0.08984 0.0937,-0.175781 0.14844,-0.257812 z m -15.61329,4.40625 c 0,-0.02734 0,0 0,0 z m -1.6914,-1.519531 z M 444.8125,16.570312 Z m -0.0508,-0.523437 z m -1.85938,-0.914063 h -0.0351 c 0,0 0.0156,-0.01562 0.0351,-0.01562 z m 0.043,0 z m -0.43359,0.175782 z m -0.55078,1.609375 c -0.0117,-0.148438 0.008,-0.07813 0.0156,-0.02734 z m 0.0742,0.246093 c 0,0 0,0 0.0351,0.05078 0.0312,0.05078 -0.0234,-0.0625 -0.0156,-0.09375 z m 0.17187,0.132813 z m 0.20313,0 c 0,0 0.0508,0 0.0508,0 z m 0.95312,-0.488281 z m 0.0391,-0.03516 -0.10547,0.07812 c -0.16796,0.117188 -0.33984,0.222657 -0.52343,0.320313 l -0.0547,0.02734 -0.0664,0.02734 c -0.082,0.02734 -0.16797,0.03906 -0.2539,0.07031 h -0.24219 c -0.0117,0.0078 -0.0273,0.0078 -0.043,0 -0.0195,-0.0078 -0.0391,-0.01953 -0.0547,-0.03125 0,-0.03516 -0.043,-0.0625 -0.0625,-0.09375 -0.008,-0.02344 -0.0195,-0.04687 -0.0273,-0.07422 0,-0.02734 0,-0.05859 0,-0.08594 0.008,-0.07813 0.008,-0.152344 0,-0.226563 0,0 0,-0.203125 0,-0.238281 0,-0.03125 -0.0312,0.171875 0,0 0,-0.04297 0,-0.08203 0,-0.125 0.0391,-0.171875 0.10156,-0.332031 0.14844,-0.496094 0.0156,-0.02734 0.0312,-0.05469 0.0391,-0.08203 0.0547,-0.105469 0.11719,-0.203125 0.17578,-0.304688 l 0.0352,-0.03125 0.043,-0.05078 0.0898,-0.07813 c 0,0 0.10547,-0.05859 0.13672,-0.08203 h 0.043 l 0.15625,-0.04297 h 0.36328 c -0.20313,0 0.0547,0 0.10937,0.02734 l 0.29297,0.08984 h 0.0586 l 0.0625,0.03125 c 0.0859,0.03906 0.16406,0.08203 0.24609,0.128906 0.082,0.04297 0.13672,0.08203 0.20312,0.125 l 0.11719,0.08203 0.0312,0.02734 0.23438,0.214844 0.0976,0.105469 0.0312,0.04297 0.0664,0.101563 0.0469,0.09766 v 0.05469 c -0.004,0.01563 -0.004,0.03125 0,0.04297 v 0.06641 c -0.004,0.02344 -0.004,0.04687 0,0.06641 0,0 0,0 0,0.02734 h -0.0898 c -0.16016,-0.144532 -0.35156,-0.21875 -0.56641,-0.21875 -0.21875,0 -0.40625,0.07422 -0.5664,0.21875 l -0.21094,0.183593 z m 5.76172,12.179687 c 0,-0.09375 0.0469,-0.183594 0.0703,-0.277344 0.0234,-0.09375 0,-0.03906 0,-0.0625 0.0195,-0.04687 0.0391,-0.09375 0.0664,-0.136719 0.043,-0.07812 0.0859,-0.15625 0.13672,-0.230468 l 0.0664,-0.09375 0.043,-0.05469 c 0.0781,-0.07422 0.14454,-0.15625 0.22266,-0.226562 l 0.0859,-0.07813 0.0781,-0.06641 c 0.082,-0.05859 0.17578,-0.121093 0.26953,-0.175781 l 0.15235,-0.08203 c -0.0312,0 -0.1211,0.03906 0.0469,0 l 0.1211,-0.03516 h 0.36718 l 0.14454,0.03516 0.10546,0.03125 0.23047,0.121094 0.125,0.08203 0.10938,0.07813 0.0625,0.05469 0.12109,0.109374 c 0.0664,0.0625 0.13281,0.132813 0.19141,0.199219 0.0625,0.06641 0.14453,0.160157 0.21094,0.242188 0,-0.02734 -0.0781,-0.109375 0,0 l 0.11328,0.167969 c 0.0508,0.07422 0.10547,0.152343 0.15625,0.234374 l 0.082,0.144532 c -0.0352,0.07031 -0.0781,0.136718 -0.125,0.199218 l -0.0508,0.05859 -0.13282,0.15625 c -0.082,0.09766 -0.16015,0.191406 -0.24609,0.277344 -0.0898,0.08984 -0.17187,0.179688 -0.26562,0.265625 l -0.0703,0.0625 -0.11718,0.08203 c -0.043,0.03125 -0.0937,0.05469 -0.13672,0.08203 l -0.0508,0.02734 -0.1211,0.03906 -0.125,0.02734 h -0.23047 l -0.0742,-0.04297 c -0.21875,-0.273438 -0.49218,-0.355469 -0.82421,-0.253907 l -0.1211,0.03125 c -0.0469,0 -0.0664,0 -0.0547,0 h -0.082 0.0469 c -0.0547,0 -0.0781,0 -0.0391,0 h -0.13672 l -0.0117,-0.160156 c -0.0195,-0.179687 -0.0977,-0.328125 -0.23047,-0.449218 -0.043,-0.03906 -0.0937,-0.07422 -0.14453,-0.105469 0,-0.05078 0,-0.09766 0,-0.148438 0,-0.05078 -0.0195,-0.109375 -0.0195,-0.15625 z m -5.49609,7.992187 z m -1.70703,1.210938 0.0273,0.04297 c 0,0 -0.0273,-0.03516 -0.0273,-0.05469 z m 0.29687,0.226562 c 0,0 0,-0.01562 0,-0.01172 z m -0.0351,0 z m 0.96093,0.445313 c 0.0156,-0.0039 0.0352,-0.0039 0.0547,0 z M 443.5,38.710938 Z m 0.0391,-0.03125 -0.11328,0.06641 h -0.0898 c -0.0156,-0.04297 -0.0352,-0.08203 -0.0547,-0.121094 -0.11328,-0.191406 -0.27734,-0.316406 -0.48828,-0.375 -0.21094,-0.0625 -0.41797,-0.04297 -0.61328,0.05469 h 0.0273 l -0.082,-0.05078 c 0,0 -0.0547,-0.04687 -0.082,-0.07422 -0.0234,-0.03125 -0.043,-0.06641 -0.0625,-0.101563 -0.0274,-0.04297 -0.0547,-0.09375 -0.0742,-0.140625 l -0.0312,-0.05469 c 0,-0.03906 0,-0.08594 0,-0.08984 -0.0156,-0.03906 -0.0273,-0.08203 -0.0352,-0.125 -0.0156,-0.04297 -0.0273,-0.08594 -0.0351,-0.128907 v -0.07812 c -0.0117,-0.09766 -0.0117,-0.195313 0,-0.296876 0,-0.04297 0,-0.08594 0,-0.128906 0,-0.04687 0,-0.04687 0,-0.05078 0,-0.0078 0.0625,-0.183594 0.0664,-0.210937 l 0.043,-0.125 0.0469,-0.07031 0.0547,-0.09375 c 0.0547,-0.04687 0.10157,-0.121094 0.14844,-0.160156 l 0.043,-0.05078 h 0.0352 c 0.0547,-0.04297 0.11328,-0.08594 0.17578,-0.121094 h 0.0586 l 0.10547,-0.03125 h 0.13672 c 0.0547,0 0.0625,0 0.0352,0 h 0.15625 l 0.14453,0.03516 0.0625,0.03516 c 0.0312,0 0.0664,0.04297 0.10156,0.05859 0.0625,0.0625 0.12891,0.117188 0.1875,0.183594 l 0.0391,0.03906 v 0.03125 l 0.0391,0.05078 c 0.0508,0.07812 0.0977,0.160156 0.14454,0.242187 0.0351,0.05859 0.0703,0.117187 0.0976,0.179687 0,0 0,0 0,0.04688 l 0.0547,0.152343 c 0.0352,0.109375 0.0664,0.214844 0.0898,0.324219 0.004,0.04687 0.004,0.09375 0,0.140625 0,0.09766 0,0.195313 0,0.300781 0,0.105469 0,0.109375 0,0.164063 0,0.05859 0,0.05859 0,0.05078 -0.0195,0.08203 -0.0508,0.164062 -0.082,0.242188 l -0.0781,0.136718 v 0.03516 l -0.0547,0.05859 z m -1.35937,-0.324219 z m 0,0 z m 0.36718,-2.296875 z m -0.40625,-18.828125 h 0.0391 z m -0.17968,-0.78125 z m 0.39453,-1.023438 0.0351,-0.03516 c 0,0 0.0274,0 -0.0117,0.03516 z m 18.17187,2.4375 v 0.02734 c 0.0234,-0.03125 0.0625,-0.04687 0.0625,-0.02734 z m -0.5,-1.707031 h -0.0664 z m -0.98437,0.550781 c 0.0351,-0.04297 0.0664,-0.05859 0,0 z m 0.80078,1.652344 h -0.0859 c 0,0 0.0664,0.01172 0.1211,0.01563 z m 10.375,19.46875 c -2.57031,0.84375 -5.15625,1.613281 -7.76172,2.304687 -0.17578,-0.382812 -0.41016,-0.730468 -0.69922,-1.035156 -0.42578,-0.453125 -0.93359,-0.777344 -1.52734,-0.964844 -0.34766,-0.08984 -0.69531,-0.09375 -1.04688,-0.01172 -0.35156,0.08203 -0.66015,0.238281 -0.93359,0.46875 -0.49219,0.363281 -0.84375,0.828125 -1.05859,1.394531 -0.21485,0.570313 -0.25782,1.152344 -0.125,1.746094 0.13281,0.507812 0.39843,0.933593 0.79296,1.28125 0.39063,0.347656 0.84766,0.558593 1.3711,0.628906 0.0586,0.164063 0.16015,0.292969 0.30078,0.394531 0.14062,0.101563 0.29687,0.152344 0.46875,0.15625 0.11328,0.0078 0.22266,0.0078 0.33594,0 0.89843,2.382813 1.96484,4.683594 3.19922,6.910156 -0.29688,0.242188 -0.55469,0.519532 -0.76954,0.832032 -0.33203,0.457031 -0.49218,0.96875 -0.48437,1.53125 0.0312,0.644531 0.3125,1.15625 0.83984,1.527344 0.46875,0.3125 0.98047,0.445312 1.54297,0.394531 0.66406,-0.09375 1.28516,-0.304688 1.8711,-0.632813 0.16796,-0.08984 0.28515,-0.226562 0.34765,-0.40625 0.17578,0.03906 0.35156,0.02734 0.51953,-0.04297 0.16797,-0.06641 0.30078,-0.179688 0.39844,-0.332032 0.24609,-0.382812 0.36328,-0.800781 0.35156,-1.253906 -0.0117,-0.453125 -0.14453,-0.863281 -0.40625,-1.234375 -0.26172,-0.40625 -0.60937,-0.710937 -1.04687,-0.914063 -0.4375,-0.203124 -0.89453,-0.277343 -1.375,-0.214843 -0.0977,0.0078 -0.19141,0.02734 -0.28516,0.04687 -1.24609,-2.21875 -2.3164,-4.523438 -3.21094,-6.910156 0.375,-0.347657 0.64063,-0.765626 0.80469,-1.25 0.0469,-0.15625 0.082,-0.3125 0.10547,-0.472657 2.79688,-0.734375 5.57031,-1.558593 8.32422,-2.472656 0.35937,0.296875 0.76172,0.515625 1.20703,0.65625 0.0156,0.04687 0.0391,0.09375 0.0664,0.136719 0.11718,0.195312 0.28515,0.320312 0.5039,0.378906 0.21875,0.05469 0.42578,0.03125 0.625,-0.08203 0.92188,-0.539063 1.53907,-1.320313 1.84766,-2.339844 0.32031,-1.101563 0.14844,-2.417969 -1.01172,-2.878906 -0.57031,-0.171875 -1.12891,-0.152344 -1.68359,0.05859 -0.4336,0.113282 -0.83985,0.289063 -1.22266,0.519532 -0.375,0.210937 -0.66797,0.503906 -0.875,0.875 -0.21094,0.375 -0.3125,0.777344 -0.30078,1.207031 z m -5.16797,14.273437 c -0.0469,0 -0.14062,0.04688 0,0 z m -1.05469,1.5 z M 465.39453,52 h 0.0352 c -0.10547,0.04297 0,0 0.0273,0 h 0.3125 l 0.12109,0.02734 h 0.0742 c 0.0352,0 0.0977,0.05078 0.12891,0.07422 0.0352,0.01953 0,0 0.0508,0 0.0508,0.03906 0.0977,0.08203 0.13672,0.128907 0,0 0.0391,0.0625 0.0625,0.07422 0,0 0.0664,0.121093 0.0977,0.175781 0,0.01953 0,0.03906 0,0.05859 0,0.05469 0,0.117188 0.0391,0.175782 v 0.199218 c 0,0.02734 0,0.05078 0,0.07813 -0.0391,0.05078 -0.0703,0.125 -0.10547,0.171874 -0.0195,0.03516 -0.043,0.07422 -0.0586,0.113282 -0.21485,-0.04687 -0.41797,-0.02344 -0.61329,0.07813 l -0.46093,0.21875 -0.1836,0.07422 c -0.10937,0.03906 -0.22265,0.07031 -0.33984,0.09766 h -0.57422 l -0.0937,-0.05078 c 0,0 0,-0.04297 0,-0.03906 0,0.0078 0,0 0,0 v -0.164062 c 0,-0.02344 0,-0.04688 0,-0.07031 0.008,-0.04297 0.0195,-0.08203 0.0352,-0.121094 v -0.08984 l 0.0781,-0.136719 c 0.0274,-0.0625 0.0664,-0.121094 0.10938,-0.175781 0.0234,-0.03125 0.0508,-0.0625 0.0781,-0.09375 0.0508,-0.05469 0.10547,-0.109376 0.16406,-0.164063 l 0.0859,-0.08203 0.0664,-0.05859 -0.0469,0.03906 c 0.11719,-0.105468 0.25391,-0.1875 0.40235,-0.246093 0,0 0.0625,0 0.0859,-0.04297 0.0742,-0.03125 0.15235,-0.05469 0.23047,-0.07422 z m -5.90625,-9.960938 h -0.0273 c -0.16016,-0.0039 -0.0469,-0.01172 0.0273,0 z m 0.20313,0 z m -0.9375,-1.476562 c 0,-0.03906 0.0469,-0.08594 0,0 z m -0.0937,0.304688 c 0,0 0,0.04687 0,0.07422 0,0.02734 -0.0312,-0.07031 -0.0195,-0.08203 z m 0.39062,0.988281 -0.16406,-0.164063 -0.043,-0.06641 c -0.0234,-0.03125 -0.043,-0.06641 -0.0625,-0.105469 -0.0156,-0.02344 -0.0312,-0.05078 -0.043,-0.08203 -0.0273,-0.05469 0,-0.03906 0,0.05469 -0.043,-0.04297 -0.0547,-0.175782 -0.0703,-0.234376 -0.004,-0.01562 -0.004,-0.02734 0,-0.03906 v -0.03906 c -0.004,-0.05859 -0.004,-0.117188 0,-0.175782 0,-0.01953 0,-0.03906 0,-0.0625 0,-0.05469 0,-0.109375 0.0391,-0.15625 l 0.0469,-0.160156 0.10937,-0.214844 0.10547,-0.148437 c 0.0508,-0.06641 0.10156,-0.125 0.16016,-0.183594 l 0.10156,-0.08594 0.0547,-0.04688 0.043,-0.03125 0.125,-0.07812 0.0664,-0.03125 0.0898,-0.03516 h 0.0977 l 0.14453,0.03516 0.082,0.03125 0.0703,0.03906 0.12109,0.06641 c 0.0781,0.04297 0.14844,0.09766 0.22266,0.144532 l 0.12109,0.109374 c 0.0664,0.05859 0.13281,0.121094 0.19141,0.1875 0.0625,0.06641 0.13671,0.179688 0.10546,0.128907 0.043,0.0625 0.082,0.121093 0.1211,0.183593 l 0.0664,0.117188 c 0,0 0.0977,0.222656 0,0.03516 0.0469,0.113282 0.0859,0.230469 0.1211,0.347656 -0.004,0.04297 -0.004,0.08203 0,0.121094 0,0.04687 0,0.08984 0,0.132813 0,0.04297 0,0.08984 0,0.132812 -0.004,0.0078 -0.004,0.01953 0,0.02734 -0.0156,0.09375 -0.0391,0.1875 -0.0742,0.273437 0,0.02344 0,0.04688 0,0.06641 l -0.0312,0.05859 c -0.0195,0.03516 -0.0391,0.07422 -0.0664,0.109376 0,0 -0.0586,0.08203 -0.0664,0.09375 l -0.14063,0.152343 -0.0781,0.06641 -0.0547,0.03516 c -0.0977,-0.160156 -0.22656,-0.269532 -0.39453,-0.339844 -0.17188,-0.07031 -0.34375,-0.08594 -0.51953,-0.04297 h -0.16016 c -0.0742,-0.02344 -0.14844,-0.04297 -0.22266,-0.05859 0,0 0.0274,0 0,0 h -0.0273 l -0.12891,-0.07422 h -0.0351 z m 14.25781,-3.433594 c 0.0234,-0.02344 0.0391,-0.05078 0.0547,-0.07813 0,0 -0.0469,0.04297 -0.0742,0.07031 z m 0.34375,-0.550781 v -0.05078 c 0,0 -0.0195,0.02344 -0.0234,0.02344 z m 0.17578,-0.617188 c -0.004,-0.02734 -0.004,-0.05078 0,-0.07813 0,0 -0.0234,0.01172 -0.0234,0.05078 z m -1.20703,1.101563 h -0.0273 c -0.125,-0.08203 -0.0391,-0.05078 0.004,-0.03516 z m 1.15625,-1.652344 z m 0,0 z m 0,0 z m 0,0 c 0.0274,0.0039 0.0274,0.0039 -0.0234,-0.0039 z m -1.65234,0.550781 c 0.11719,-0.05469 0.23047,-0.160156 0.34766,-0.21875 0.11718,-0.0625 0.14453,-0.05859 0.20312,-0.08984 l 0.11719,-0.04297 c 0.14062,-0.05078 0.28515,-0.09766 0.42969,-0.132813 0.0976,0 0.19531,-0.04297 0.29687,-0.06641 h 0.19141 c -0.082,0 0,0 0.0391,0 h 0.0273 c -0.004,0.01563 -0.004,0.02734 0,0.04297 0,0 0,0 0,0.04297 0.004,0.03125 0.004,0.05859 0,0.08594 v 0.03906 c 0,0.04297 0,0.0625 0,0.04297 0.004,0.04297 0.004,0.08203 0,0.125 0,0.03906 0,0.08203 0,0.128907 0,0.08203 -0.043,0.195312 -0.0508,0.207031 -0.0195,0.101562 -0.0469,0.199219 -0.082,0.296875 0,0 0,0 0,0.04687 l -0.0273,0.04687 c -0.0859,0.195312 -0.1875,0.378906 -0.3086,0.550781 l -0.0312,0.04687 c -0.0234,0.01953 -0.0469,0.03906 -0.0664,0.0625 -0.14063,-0.02344 -0.27735,-0.05859 -0.41407,-0.101562 l -0.17187,-0.0625 c -0.0469,-0.02734 -0.0977,-0.05078 -0.15234,-0.07031 l -0.19922,-0.109375 -0.082,-0.05469 -0.1211,-0.105468 -0.082,-0.08203 -0.082,-0.132812 c 0,0 0,0 0,-0.03516 0,-0.03125 0,0 0,-0.04687 0.004,-0.02344 0.004,-0.04687 0,-0.06641 0,0.01172 0,0.02344 0,0.03906 v -0.132813 l 0.0703,-0.128906 0.043,-0.05469 z m 1.7187,-0.378906 v 0.07031 c -0.0156,-0.02344 -0.0273,-0.04687 -0.0391,-0.07031 z m -1.92188,0.859375 c -0.004,-0.01563 -0.004,-0.02734 0,-0.03906 v -0.04687 c -0.0391,0.05078 -0.0351,0.08594 -0.0391,0.08594 z m -5.82812,14.375 0.0586,0.03906 c -0.0586,-0.0039 -0.0586,-0.03125 -0.0586,-0.03906 z m -1.68359,1.652344 z m 1.92578,-1.402344 c -0.0742,-0.05469 -0.0469,-0.06641 0,0 z M 348.62109,87.375 c -0.0156,0.01172 -0.0273,0.02344 -0.0391,0.03906 0,0 0.043,-0.05078 0.0391,-0.03906 z m 13.26953,-9.800781 c -0.004,0.01172 -0.004,0.02734 0,0.03906 -0.004,-0.01172 -0.004,-0.02734 0,-0.03906 z m 0,-0.339844 c 0,0 0,0 0,0.04687 0,-0.01563 0,-0.03125 0.008,-0.04687 z m -0.10937,-0.226563 0.0391,0.03906 c -0.0156,-0.01172 -0.0234,-0.02734 -0.0351,-0.03906 z m -1.89063,1.101563 z M 361.625,76.90625 h 0.0312 c 0,0 0.0195,0.02344 -0.0234,-0.0039 z m -1.64844,1.285156 h 0.0274 z m 1.13672,-1.328125 c -0.043,0 -0.0703,0 -0.082,0 z m -1.29297,0.898438 c 0,-0.01953 0,-0.03906 0,-0.0625 0.043,0.03906 0.0352,0.0625 0.0274,0.05469 z m 0,0.121093 c 0.004,-0.02344 0.004,-0.04297 0,-0.06641 0,0 0,0.03125 0,0.07813 z m 1.98438,0.05469 v 0.04297 c -0.004,-0.01563 -0.004,-0.03125 0,-0.04687 z m -12.57813,20.238281 c 0,0 -0.0156,-0.01172 0,0 z M 348.49219,97.4375 Z m 21.67187,-8.523438 -1.10156,-5.652343 c 0.44922,-0.160157 0.81641,-0.433594 1.10156,-0.820313 0.35547,-0.492187 0.53906,-1.042968 0.55078,-1.652344 -0.0195,-0.683593 -0.20312,-1.324218 -0.55078,-1.914062 -0.30859,-0.566406 -0.67578,-1.089844 -1.10156,-1.570312 -0.23047,-0.269532 -0.51563,-0.449219 -0.85547,-0.539063 -0.33984,-0.09375 -0.67578,-0.08203 -1.00781,0.03125 -0.59375,0.265625 -1.04297,0.6875 -1.33594,1.265625 -0.3125,0.554688 -0.53125,1.140625 -0.65625,1.757812 -0.19922,0.734376 -0.10547,1.425782 0.28516,2.078126 0.40625,0.5625 0.95703,0.855468 1.65234,0.867187 0.0547,0.0078 0.10547,0.0078 0.16016,0 l 1.30468,6.566406 c -0.60937,0.390625 -1.02734,0.933594 -1.24609,1.625 -0.0508,-0.01953 -0.10547,-0.03125 -0.16406,-0.03516 -3.25,-0.242187 -6.50391,-0.355469 -9.76953,-0.347656 -0.0156,-0.09766 -0.0508,-0.191407 -0.10547,-0.28125 -0.043,-0.0625 -0.0937,-0.121094 -0.15235,-0.175781 1.00391,-3.246094 2.12891,-6.453126 3.38282,-9.617188 0.14453,0.03906 0.28906,0.05078 0.4375,0.03125 0.47265,-0.09766 0.90234,-0.289062 1.28906,-0.578125 0.38672,-0.289063 0.69141,-0.648437 0.91406,-1.074219 0.51172,-0.941406 0.59766,-2.246094 -0.20703,-3.054687 -0.35937,-0.316407 -0.77344,-0.515625 -1.24609,-0.605469 -0.46875,-0.08594 -0.92969,-0.04687 -1.375,0.121094 -0.5,0.140625 -0.9336,0.390625 -1.30469,0.75 -0.37109,0.359375 -0.64063,0.785156 -0.80078,1.273437 -0.17188,0.691407 -0.0274,1.308594 0.4414,1.847657 0.14063,0.160156 0.30079,0.289062 0.48438,0.394531 -0.0898,0.101562 -0.16406,0.210937 -0.21484,0.335937 -1.19141,3.003906 -2.26563,6.046875 -3.23438,9.128906 l -0.54687,-0.382812 -0.55079,-0.390625 -0.1289,-0.09375 -0.0664,-0.05469 -0.0703,-0.05469 -0.15625,-0.121094 c -0.55078,-0.429687 -1.07422,-0.878906 -1.58984,-1.339844 0.0312,-0.164062 0.0469,-0.324218 0.0547,-0.492187 0.0156,-0.8125 -0.14062,-1.59375 -0.46093,-2.34375 -0.28125,-0.789063 -0.77735,-1.40625 -1.48829,-1.84375 -0.33593,-0.175781 -0.6914,-0.289063 -1.0664,-0.347656 -0.375,-0.05469 -0.75,-0.05078 -1.125,0.01563 -0.3711,0.06641 -0.72656,0.1875 -1.0586,0.367187 -0.33203,0.183594 -0.6289,0.414063 -0.88671,0.691407 -0.50391,0.578124 -0.84375,1.246093 -1.01172,1.996093 -0.16797,0.75 -0.14453,1.496094 0.0664,2.238281 0.21094,0.894532 0.72657,1.558594 1.54297,1.988282 0.59766,0.28125 1.20703,0.3125 1.83203,0.09766 0.16797,0.164062 0.3711,0.253906 0.60547,0.277344 0.85156,0.05859 1.5625,-0.222656 2.13672,-0.855469 0.0547,-0.05859 0.0977,-0.125 0.14844,-0.191406 1.05469,0.894531 2.15625,1.734375 3.30469,2.511719 -1.36719,1.140624 -2.54688,2.449218 -3.53516,3.929687 h -0.0391 c -0.54297,-0.230469 -1.10547,-0.316406 -1.69141,-0.261719 -0.58594,0.05469 -1.125,0.242188 -1.61328,0.570313 -0.52734,0.304687 -0.91797,0.734375 -1.17578,1.289062 -0.25781,0.550781 -0.33203,1.128907 -0.22656,1.730469 0.17968,0.667969 0.57031,1.179688 1.16796,1.535156 0.41016,0.25 0.85547,0.34375 1.33594,0.28125 0.0977,0.144532 0.23047,0.253904 0.39453,0.316404 0.16407,0.0664 0.33203,0.0781 0.50391,0.0352 0.57422,-0.14063 1.07812,-0.414064 1.51562,-0.812501 0.4375,-0.398438 0.75,-0.875 0.94532,-1.433594 0.24609,-0.691406 0.23047,-1.378906 -0.043,-2.058594 0.14844,-0.07422 0.26953,-0.179687 0.35547,-0.320312 0.14062,-0.210938 0.28125,-0.417969 0.42968,-0.621094 l 0.22657,-0.304687 v -0.02734 c 0.0391,-0.05469 0.082,-0.105469 0.1289,-0.160156 0.30078,-0.386719 0.625,-0.753907 0.96094,-1.101563 0.33594,-0.347656 0.69141,-0.699219 1.05859,-1.023437 l 0.55079,-0.46875 c 0.14453,0.285156 0.3789,0.421874 0.69921,0.402343 3.32813,0 6.65625,0.117188 9.98438,0.351563 h 0.13672 c 0.125,0.460937 0.34375,0.875 0.64844,1.238281 -0.0625,0.117187 -0.0937,0.238281 -0.0937,0.371094 0.008,0.285156 0.1289,0.503906 0.37109,0.65625 -0.72266,1.640625 -1.24609,3.34375 -1.57422,5.109375 -0.0234,0.128902 -0.0234,0.257812 0,0.386712 -0.15234,-0.0273 -0.30078,-0.0391 -0.45312,-0.0352 -0.48829,0.0195 -0.9375,0.16015 -1.35157,0.42187 -0.41015,0.26172 -0.72656,0.61328 -0.94922,1.05078 -0.26562,0.54297 -0.30468,1.10547 -0.11718,1.6836 0.20312,0.61718 0.59765,1.07812 1.17578,1.375 0.19531,0.11718 0.40234,0.14453 0.625,0.0859 0.21875,-0.0547 0.38672,-0.18359 0.5039,-0.3789 0.11719,-0.19922 0.14454,-0.40625 0.0859,-0.62891 -0.0547,-0.21875 -0.18359,-0.38672 -0.3789,-0.5039 -0.0742,-0.0312 -0.13282,-0.0703 -0.19922,-0.10938 l -0.0781,-0.0703 -0.0586,-0.0664 -0.0547,-0.0898 c 0,0 0,-0.0664 -0.0469,-0.0937 -0.043,-0.0273 -0.0312,-0.13281 -0.0352,-0.14844 0,-0.008 0,-0.0195 0,-0.0273 -0.004,-0.0234 -0.004,-0.0469 0,-0.0703 0,-0.0625 0.0352,-0.1289 0.0547,-0.1875 0.0156,-0.0234 0.0273,-0.0508 0.0391,-0.0781 l 0.0547,-0.0781 c 0.0351,-0.0469 0.0781,-0.0898 0.12109,-0.1289 l 0.0703,-0.0664 0.1875,-0.11719 0.0547,-0.0273 0.17578,-0.0547 h 0.36328 l 0.1211,0.0391 0.13672,0.0781 0.0781,0.0469 c 0.0547,0.0469 0.10156,0.0977 0.14844,0.14843 0.0351,0.0312 0.0625,0.0664 0.0898,0.10547 l 0.10938,0.16406 0.0781,0.14454 c 0,0.0391 0,0.082 0.043,0.12109 l 0.0508,0.19141 v 0.0898 c 0.004,0.0742 0.004,0.14844 0,0.22656 0.004,0.043 0.004,0.0859 0,0.13281 -0.0312,0.14063 -0.0703,0.28125 -0.11719,0.42188 l -0.0664,0.13281 c -0.043,0.082 -0.0937,0.16016 -0.14063,0.23828 l -0.0625,0.082 c 0.0899,-0.13281 0,0 0,0.0273 0,0.0273 -0.12109,0.13672 -0.1875,0.20312 l -0.20312,0.17969 -0.1211,0.0859 c -0.16406,0.10547 -0.33593,0.19922 -0.51953,0.27734 -0.1875,0.11719 -0.30859,0.28125 -0.36718,0.49219 -0.0547,0.21484 -0.0312,0.41797 0.0703,0.60937 0.11719,0.1875 0.28515,0.30469 0.49609,0.36329 0.21094,0.0586 0.41016,0.0352 0.60547,-0.0625 0.92578,-0.41016 1.59375,-1.07813 2,-2.00782 0.19922,-0.45703 0.28906,-0.9375 0.26172,-1.4375 -0.0273,-0.5 -0.16406,-0.96875 -0.41016,-1.40234 -0.1914,-0.33594 -0.4375,-0.625 -0.74218,-0.86328 0.20312,-0.10547 0.33203,-0.26953 0.38281,-0.49219 0.36719,-1.945308 0.98828,-3.804684 1.86328,-5.578121 0.65625,-0.304687 1.22266,-0.734375 1.69531,-1.289063 0.41797,-0.433593 0.69141,-0.941406 0.82031,-1.53125 0.11719,-0.621093 0.008,-1.199218 -0.32031,-1.738281 -0.22265,-0.367187 -0.51562,-0.664062 -0.8789,-0.890625 -0.36329,-0.230468 -0.75782,-0.363281 -1.1836,-0.402344 z M 359.94141,78.175781 c -0.004,-0.01172 -0.004,-0.01953 0,-0.02734 z m 0.1289,0.05859 z m -0.12109,0 h -0.0469 c 0,0 0.0352,-0.02344 0.0469,-0.02734 z m -0.11719,-0.394531 c 0.004,-0.01953 0.004,-0.03516 0,-0.05078 0,0 0,0 0,-0.04297 -0.004,-0.01172 -0.004,-0.02344 0,-0.03516 0.0312,-0.0625 0.0664,-0.125 0.10938,-0.179688 l 0.0351,-0.03516 c 0.0586,-0.07031 0.125,-0.136719 0.19531,-0.199219 h 0.0274 l 0.0508,-0.02734 0.18359,-0.121093 0.19532,-0.101563 c -0.10938,0.05859 0.0351,0 0.0664,0 L 361,76.972656 c -0.0273,0 0,0 0.0312,0 h 0.4375 l 0.16406,0.04687 h -0.0391 0.0625 c 0.0312,0 0.043,0 0.0352,0 h 0.0391 l 0.0469,0.04687 c 0,-0.02734 0,-0.03125 0.0312,0.02734 h 0.0274 l 0.0391,0.07422 c 0,0.03125 0,0.06641 0.0273,0.09766 0,0 0,0 0,0.02734 0,0.05078 0,0.05469 0,0.03906 0,0.03516 0,0.07031 0,0.105469 0,0.03906 0,0.121094 0,0.175781 0,-0.05078 0.0312,-0.09375 0,0 -0.004,0.01563 -0.004,0.03125 0,0.05078 v 0.07422 c 0,0.07422 -0.0391,0.136719 -0.0625,0.203125 v 0.03906 c 0,0 0,0 0,0.04687 0,0.04297 0,0.03125 0,0.03516 0,0.0078 0,0 0,0 -0.0351,0.07813 -0.0781,0.152344 -0.125,0.222656 -0.0156,0.03125 -0.0351,0.0625 -0.0586,0.09375 l -0.17969,0.1875 -0.0976,0.09375 -0.0547,0.03906 -0.10938,0.07031 -0.0937,0.05078 c -0.0703,-0.207031 -0.20312,-0.363281 -0.39453,-0.46875 -0.1875,-0.105468 -0.39062,-0.132812 -0.60156,-0.08203 h -0.14453 c -0.0156,-0.0078 -0.0234,-0.01563 -0.0312,-0.02734 h 0.043 -0.0625 l -0.043,-0.05859 0.0273,0.04687 c 0,-0.04687 -0.0547,-0.08984 -0.082,-0.132813 V 77.96875 c 0,0 0,0 0,0.02734 0,0 0,-0.02734 0,-0.03516 -0.0156,-0.144532 -0.0156,-0.160157 -0.0156,-0.148438 z m -9.64844,9.734375 z m 0.23828,-0.136719 -0.20312,0.121094 h -0.0312 l -0.21484,0.06641 c -0.0352,-0.101562 -0.0937,-0.191406 -0.16797,-0.269531 -0.16407,-0.15625 -0.35938,-0.238281 -0.58594,-0.238281 -0.22656,0 -0.41797,0.08203 -0.58203,0.238281 l -0.0547,0.02734 c -0.0508,0.0078 -0.0977,0.02344 -0.14453,0.04297 h -0.375 l -0.13281,-0.04297 -0.11328,-0.06641 h -0.0274 c -0.0742,-0.06641 -0.14062,-0.140625 -0.20312,-0.214844 l -0.0625,-0.09375 c -0.0391,-0.0625 -0.0664,-0.121093 -0.10547,-0.183593 -0.0352,-0.05859 0,-0.04297 -0.0274,-0.06641 -0.0273,-0.01953 -0.0547,-0.136718 -0.0742,-0.203124 -0.0234,-0.06641 -0.0664,-0.242188 -0.0899,-0.367188 0,0 0,-0.101562 0,-0.117188 -0.0234,-0.03906 -0.0469,-0.07812 -0.0781,-0.113281 0,-0.128906 0,-0.25 0,-0.375 0,-0.128906 0,-0.140625 0,-0.210937 0,-0.07031 0,-0.136719 0,-0.160156 0.0625,-0.476563 0.24609,-0.902344 0.55078,-1.277344 -0.0703,0.09375 0.10156,-0.113282 0.13281,-0.148438 l 0.15625,-0.144531 0.0742,-0.05859 c 0.0781,-0.05469 0.16016,-0.105469 0.24219,-0.148437 l 0.1289,-0.0625 0.15235,-0.05469 c 0.10547,-0.03125 0.20703,-0.05859 0.3164,-0.07422 h 0.49219 c 0.12891,0.01953 0.25391,0.05078 0.375,0.09375 h 0.0273 l 0.13282,0.07422 0.0937,0.0625 0.0937,0.07813 c 0.17578,0.152344 0.3125,0.335938 0.41406,0.546875 0.11328,0.210938 0.19922,0.433594 0.25781,0.664063 0.043,0.136719 0.082,0.28125 0.11719,0.421875 0.0312,0.144531 0,0.128906 0.043,0.195312 0,0 0,0.183594 0,0.191406 0.0312,0.230469 0.0312,0.457032 0,0.6875 -0.16797,0.203126 -0.23828,0.433594 -0.21485,0.695313 l -0.0937,0.164063 -0.0937,0.109374 c -0.0547,0.05859 -0.11328,0.117188 -0.17578,0.164063 0,0 0.1836,-0.04297 0.0508,0.04687 z m 0.7461,8.890625 -0.0312,-0.03516 c 0.0117,0.0078 0.0234,0.02344 0.0312,0.03516 z m -0.27344,-0.210937 h -0.043 z m -0.37891,-0.101563 c 0.13672,0.01172 0.0469,0.01172 0,0 z m -2.01562,1.3125 c -0.008,0.03906 -0.0352,0.128906 0,0 z m 0.14062,0.511719 0.0391,0.05859 c -0.0195,-0.01563 -0.0312,-0.03516 -0.0391,-0.05859 z m 0.41016,0.320312 z m 0.11328,0.02734 z m -0.0937,0 c 0,0 0,0 0.0508,0 z m 2.13281,-0.765625 c 0,0.01563 0,0.03125 0,0.04687 -0.0351,0.09375 -0.082,0.179688 -0.13671,0.261719 0,0.04297 -0.0547,0.08594 -0.0859,0.128906 v 0.03906 c -0.0586,0.06641 -0.1211,0.140624 -0.1836,0.203124 l -0.11718,0.105469 -0.0391,0.03906 c -0.0859,0.05469 -0.16406,0.109375 -0.2539,0.160156 h -0.0312 c -0.125,-0.160156 -0.28906,-0.265625 -0.48828,-0.308594 -0.19922,-0.04687 -0.38672,-0.01953 -0.57032,0.07031 0.16407,-0.07422 0.0547,-0.02734 0,0 H 349.125 l -0.10156,-0.03125 h -0.0391 l -0.0742,-0.06641 c 0,0 -0.17579,-0.08984 -0.0586,-0.03125 0.11719,0.05469 0,0 0,-0.03125 l -0.13672,-0.113281 v -0.04297 L 348.64844,97.75 c -0.0156,-0.03516 -0.0352,-0.06641 -0.0547,-0.09766 L 348.5,97.519531 c -0.004,-0.02344 -0.004,-0.04687 0,-0.07031 0,0.01172 0,0.02344 0,0.03906 0,0.148438 0,-0.128906 0,-0.179687 -0.004,-0.03125 -0.004,-0.0625 0,-0.09375 0.008,-0.03906 0.0195,-0.07813 0.0312,-0.121094 0.043,-0.08203 0.0898,-0.164062 0.13672,-0.242188 0.0195,-0.02344 0.0351,-0.04687 0.0547,-0.07031 l 0.0312,-0.03125 0.17578,-0.183594 0.0976,-0.08203 c 0.15235,-0.09375 0.30469,-0.183594 0.46094,-0.257813 l 0.14453,-0.05078 c 0.10156,-0.03125 0.19922,-0.05859 0.30469,-0.07813 h 0.48828 c 0.0937,0.03125 0.18359,0.05078 0.28125,0.0625 h 0.10547 c 0.0625,0.02734 0.12109,0.0625 0.17578,0.105469 0,0.02734 0.0547,0.05469 0.082,0.08203 0,0.04297 0.043,0.101563 0.0625,0.136719 -0.0625,-0.121094 0,0 0,0 l 0.0469,0.1875 v 0.191406 c 0,0.0625 0,0.128907 0,0.195313 0,0.05859 0,0.121094 -0.043,0.179687 z m 14.11719,5.250003 v -0.0273 c 0,0 0,0.0117 0,0.0273 z m 2.04297,0.4414 c 0,0 0,-0.0391 0,0 z m -0.27344,-21.859372 c 0,-0.03906 0,-0.05469 0,-0.07813 -0.004,0.02344 -0.008,0.05078 -0.004,0.07813 z m 0,-0.113281 z m 0,0 z m 1.65235,0.375 c 0,0.03516 -0.0352,0.03906 0,0 z m 0.14843,-0.253906 z m -1.1914,-2.910157 z m 0,0 z m 0,0 c 0,0 -0.0195,-0.05469 0.0195,-0.02344 z m 0,0 c -0.0274,-0.03516 -0.043,-0.05078 0.0117,-0.01953 z m 0,0 c 0,0 -0.0352,0 -0.0352,0 z m -0.0742,0.06641 z m -0.55078,0.824219 z m -0.17578,1.824218 h 0.043 z m 0.0586,0 -0.0664,-0.03906 L 366.86328,81 c -0.008,-0.02344 -0.0156,-0.05078 -0.0273,-0.07422 0,-0.04687 0,-0.08984 -0.0391,-0.140625 -0.0391,-0.05078 0,-0.02734 0,-0.04297 -0.008,-0.113282 -0.008,-0.222657 0,-0.332032 0,0 0,-0.03906 0,-0.0625 l 0.0352,-0.148437 c 0.0547,-0.230469 0.12109,-0.457031 0.20313,-0.679688 0.0391,-0.101562 0.0703,-0.199219 0.10937,-0.292969 0.0273,-0.05469 0.0508,-0.109374 0.0781,-0.160156 0.0742,-0.144531 0.16015,-0.285156 0.25781,-0.417968 0.0391,-0.05078 0.0781,-0.09375 0.12109,-0.136719 l 0.0664,-0.06641 0.0391,-0.02734 0.13281,0.136719 0.0586,0.08594 0.19922,0.277344 c 0.14453,0.199219 0.28125,0.402343 0.40234,0.605469 0.10937,0.175781 0.20703,0.359374 0.29297,0.550781 -0.004,0.01563 -0.004,0.03125 0,0.05078 l 0.0469,0.160156 c 0.0391,0.121094 0.0664,0.242188 0.0937,0.363282 0,0.05469 0,0.109374 0,0.164062 0,0.05469 0,0.08594 0,0.132812 -0.0273,0.09375 -0.0469,0.191407 -0.0781,0.289063 v 0.02734 l -0.0547,0.113281 -0.0664,0.109375 v 0.03125 l -0.0703,0.08203 c 0.0234,-0.203125 -0.0234,-0.386718 -0.14062,-0.558594 -0.11328,-0.167968 -0.26953,-0.28125 -0.46485,-0.335937 -0.17968,-0.05078 -0.35937,-0.03516 -0.53125,0.03516 -0.17187,0.07422 -0.30468,0.195313 -0.39453,0.359375 h -0.125 z m 3.92188,10.726563 -0.12891,0.234375 -0.0742,0.121094 -0.0391,0.05078 c -0.16016,0.171875 -0.30469,0.335937 -0.47266,0.492187 -0.0859,0.07031 -0.16797,0.140625 -0.2539,0.207032 l -0.19532,0.136718 -0.0937,0.05078 -0.11328,-0.07031 -0.0547,-0.03516 -0.10937,-0.09766 -0.17969,-0.1875 c -0.0273,-0.03906 -0.0547,-0.07812 -0.0742,-0.121093 -0.0469,-0.07031 -0.0898,-0.144531 -0.1289,-0.21875 l -0.0391,-0.117188 c -0.0273,-0.07813 -0.0469,-0.160156 -0.0664,-0.242187 0,0 0,-0.02734 0,-0.04297 0,-0.03125 0,-0.05859 0,-0.08984 0,-0.08203 0,-0.164062 0,-0.253906 0,-0.03906 0,-0.08203 0.0312,-0.121094 0.008,-0.03906 0.0195,-0.08203 0.0351,-0.121093 0,-0.01172 0,-0.02734 0,-0.04297 0,-0.01563 0,-0.03125 0,-0.05078 0,-0.04297 0.0508,-0.08594 0.0781,-0.128907 0.0312,-0.05078 0.0625,-0.09766 0.0977,-0.140625 0.0469,-0.05469 0.0976,-0.105468 0.15234,-0.152344 l 0.0703,-0.06641 0.24219,-0.144531 h 0.0937 l 0.16016,-0.03906 h 0.28906 l 0.15234,0.04688 0.0625,0.02734 0.11328,0.06641 h 0.0312 l 0.0508,0.04297 c 0.0547,0.04687 0.10157,0.09766 0.14844,0.152344 0,0 0.0937,0.121094 0.11328,0.160156 l 0.0508,0.09375 c 0,0.07422 0.0391,0.144532 0.0547,0.210938 0,0.05469 0,0.109375 0,0.164062 v 0.109375 c 0.0274,0.03906 0.0117,0.08203 0,0.128907 z m -1.37891,1.234375 -0.0586,-0.03906 z M 366.83203,81 Z m 0.0547,0.03125 z m 0.23047,0.07813 z m 0.0273,0 z M 395.08594,9.714844 c -1.32032,1.867187 -2.11719,3.9375 -2.39063,6.210937 -0.36719,2.644531 -0.27344,5.507813 0.85938,7.980469 0.51172,1.136719 1.27343,2.074219 2.27343,2.8125 0.98047,0.601562 2.02735,1.042969 3.14454,1.320312 1.04296,0.347657 1.96093,0.746094 2.32031,1.859376 0.1875,0.757812 0.55469,1.417968 1.10156,1.980468 -0.24609,0.230469 -0.42187,0.503906 -0.53125,0.820313 -0.10547,0.320312 -0.12891,0.644531 -0.0703,0.976562 0.0625,0.339844 0.20703,0.636719 0.43359,0.894531 -0.11719,0.128907 -0.21484,0.269532 -0.29687,0.425782 -0.33594,0.640625 -0.36719,1.296875 -0.0937,1.964844 0.11718,0.328124 0.30078,0.609374 0.55078,0.847656 0.125,0.109375 0.25781,0.207031 0.40234,0.289062 -0.1875,0.375 -0.24609,0.769532 -0.17187,1.1875 0.0742,0.414063 0.26562,0.765625 0.57422,1.050782 0.6914,0.5625 1.48046,0.777343 2.36328,0.644531 1.69531,-0.109375 3.48437,-0.351563 4.78515,-1.550781 0.73047,-0.652344 1.09766,-1.46875 1.10157,-2.445313 -0.0156,-0.464844 -0.17579,-0.875 -0.48047,-1.230469 0.35547,-0.546875 0.42968,-1.128906 0.23047,-1.75 -0.19532,-0.542968 -0.5625,-0.925781 -1.09766,-1.144531 0.0156,-0.460937 -0.0977,-0.886719 -0.34766,-1.277344 -0.27343,-0.414062 -0.625,-0.738281 -1.05859,-0.976562 0.13281,-0.34375 0.23047,-0.714844 0.38672,-1.054688 1.10156,-2.457031 3.70312,-3.855469 4.89062,-6.273437 1.39063,-2.847656 1.17188,-6.238282 0.30469,-9.207032 -0.36328,-1.308593 -0.92969,-2.527343 -1.6875,-3.652343 -0.76172,-1.125 -1.68359,-2.101563 -2.76172,-2.929688 -2.23437,-1.613281 -5.1914,-1.546875 -7.82422,-1.347656 -1.4375,0.042969 -2.80859,0.363281 -4.11718,0.964844 -1.13282,0.652343 -2.06641,1.523437 -2.79297,2.609375 z m 7.8125,28.417968 c 0.0508,0.03906 0.10156,0.06641 0.16015,0.08594 -0.0976,0.01953 -0.14062,-0.02344 -0.16015,-0.08594 z m 6.9414,-0.867187 c -0.0625,0.292969 -0.19531,0.550781 -0.39843,0.773437 -0.42188,0.472657 -0.9375,0.789063 -1.54688,0.953126 -0.80469,0.226562 -1.625,0.351562 -2.46094,0.371093 -0.32422,0.04687 -0.63672,0.01172 -0.9414,-0.105469 -0.11719,-0.05469 -0.19922,-0.140624 -0.25,-0.257812 0.0117,-0.05078 0.0312,-0.101562 0.0508,-0.148438 0.36328,-0.753906 0.39062,-1.582031 -0.39453,-2.0625 -0.34766,-0.207031 -0.65625,-0.382812 -0.55078,-0.851562 0.0586,-0.257812 0.28906,-0.40625 0.43359,-0.632812 0.22266,-0.34375 0.26953,-0.710938 0.14453,-1.101563 -0.0898,-0.269531 -0.77344,-0.882813 -0.37109,-1.152344 0.1914,-0.121093 0.3125,-0.289062 0.35937,-0.511719 0.97656,0.101563 1.9336,0.0078 2.875,-0.285156 0.3086,-0.08203 0.60547,-0.195312 0.89063,-0.34375 0.20312,0.09766 0.38672,0.222656 0.55078,0.375 0.13281,0.128906 0.41406,0.550782 0.2539,0.722656 -0.0859,0.113282 -0.14453,0.242188 -0.17578,0.378907 -0.0898,-0.08594 -0.19531,-0.144531 -0.3164,-0.175781 -0.22266,-0.05078 -0.4336,-0.02344 -0.63672,0.08203 l -0.23047,0.101562 c -0.25391,0.101563 -0.51172,0.207031 -0.77344,0.296875 -0.25781,0.08594 -0.40234,0.136719 -0.60547,0.1875 -0.15625,-0.07813 -0.3164,-0.101562 -0.48828,-0.07422 -0.17187,0.02734 -0.32031,0.105468 -0.4414,0.226562 -0.15625,0.164062 -0.23438,0.359375 -0.23438,0.585938 0,0.226562 0.0781,0.417968 0.23438,0.582031 0.3125,0.292969 0.67968,0.398437 1.10156,0.324219 0.2539,-0.03906 0.5,-0.101563 0.74219,-0.191407 0.52734,-0.171875 1.04296,-0.375 1.54296,-0.613281 0.1836,-0.105469 0.3086,-0.261719 0.36719,-0.464844 0.21875,0.195313 0.46094,0.242188 0.73438,0.136719 0.0781,-0.03516 0.16015,-0.03125 0.23828,0.0078 0.0781,0.03516 0.1289,0.09766 0.15234,0.179687 0.0937,0.285156 -0.21875,0.515625 -0.43359,0.625 -0.125,0.0625 -0.22266,0.152344 -0.29688,0.265625 -0.16406,-0.09766 -0.33593,-0.136719 -0.52343,-0.117188 -0.1875,0.01563 -0.34766,0.08984 -0.48438,0.21875 l -0.0742,0.0625 c -0.17187,0.128907 -0.35547,0.242188 -0.55078,0.335938 -0.21484,0.08594 -0.43359,0.144531 -0.66016,0.183594 -0.16015,0.01172 -0.32421,0.01172 -0.48437,0 -0.22656,0 -0.42188,0.08203 -0.58594,0.242187 -0.16015,0.160157 -0.23828,0.355469 -0.23828,0.582031 0,0.230469 0.0781,0.425782 0.23828,0.585938 0.16406,0.160156 0.35938,0.242188 0.58594,0.242188 1.13672,0.03125 2.125,-0.335938 2.96094,-1.101563 0.0547,-0.05078 0.0976,-0.109375 0.13281,-0.171875 0.125,0.09766 0.26953,0.15625 0.42578,0.175781 0.16406,0.05469 0.14844,0.464844 0.13281,0.558594 z m -9.69922,-29.1875 c 1.35157,-0.277344 2.71485,-0.398437 4.09375,-0.363281 1.30469,-0.070313 2.57032,0.128906 3.79297,0.59375 2.4336,1.101562 3.96875,3.761718 4.71875,6.203125 0.75,2.4375 0.95313,4.953125 0.11719,7.324219 -0.69922,1.96875 -2.40625,3.265624 -3.73437,4.804687 -0.70704,0.777344 -1.25782,1.65625 -1.65235,2.628906 -0.0937,0.253907 -0.15625,0.511719 -0.25781,0.738281 -0.17969,0.01172 -0.33594,0.07031 -0.47656,0.179688 -0.13672,0.109375 -0.23438,0.246094 -0.28907,0.414062 -0.44531,0.144532 -0.89843,0.238282 -1.36328,0.285157 -1.02734,0.105469 -1.78906,-0.08203 -2.11328,-1.140625 -0.23828,-1.03125 -0.78906,-1.859375 -1.65234,-2.476563 -1.65235,-1.101562 -3.79297,-1.03125 -5.20703,-2.511719 -1.56641,-1.652343 -1.91797,-4.050781 -1.94141,-6.214843 -0.043,-3.984375 1.51172,-9.417969 5.96484,-10.464844 z m 1.21094,-4.722656 C 401.22266,2.53125 401.14453,1.707031 401.11719,0.875 c 0.004,-0.226562 0.0859,-0.417969 0.24609,-0.578125 0.16016,-0.160156 0.35156,-0.2421875 0.57813,-0.2460938 0.22656,0 0.42187,0.0820308 0.58593,0.2421878 0.15625,0.160156 0.23828,0.355469 0.24219,0.582031 0.0312,0.550781 0.0703,1.136719 0.14063,1.703125 l 0.0508,0.3125 c 0.0508,0.222656 0.0234,0.433594 -0.082,0.632813 C 402.70312,3.855469 402.42969,4 402.05859,3.957031 401.6875,3.914062 401.45312,3.714844 401.35156,3.355469 Z m -6.4375,-0.398438 c -0.0742,-0.128906 -0.10937,-0.265625 -0.10937,-0.414062 0,-0.074219 0,-0.148438 0,-0.21875 0.0664,-0.214844 0.19922,-0.375 0.39453,-0.480469 0.19922,-0.109375 0.40234,-0.132812 0.61719,-0.070312 0.21875,0.058593 0.38281,0.183593 0.49609,0.378906 l 0.78906,1.652344 c 0.0742,0.128906 0.10938,0.269531 0.10938,0.417968 v 0.222656 c -0.0664,0.214844 -0.19532,0.375 -0.39453,0.480469 -0.19532,0.105469 -0.40235,0.128907 -0.61719,0.070313 C 395.98047,4.9375 395.81641,4.8125 395.70312,4.613281 395.4375,4.070312 395.17969,3.511719 394.91406,2.957031 Z m -5.14062,3.074219 c -0.1211,-0.203125 -0.14844,-0.414062 -0.0859,-0.640625 0.0664,-0.214844 0.19922,-0.375 0.39844,-0.484375 0.19922,-0.105469 0.40625,-0.128906 0.62109,-0.066406 0.10547,0.027344 0.19922,0.078125 0.28125,0.148437 0.0898,0.0625 0.16016,0.136719 0.21094,0.234375 l -0.10547,-0.140625 c 0.46875,0.59375 1,1.117188 1.59766,1.574219 l 0.21484,0.160156 c 0.18359,0.121094 0.30859,0.285156 0.37891,0.492188 0.0937,0.355468 -0.004,0.648437 -0.29688,0.875 -0.29297,0.222656 -0.59766,0.246094 -0.92187,0.058594 -0.4336,-0.3125 -0.84766,-0.660157 -1.23829,-1.035157 -0.3789,-0.367187 -0.73046,-0.757812 -1.05468,-1.175781 z m -2.37891,5.933594 c 0.0586,-0.214844 0.1875,-0.375 0.37891,-0.488282 0.19922,-0.117187 0.41015,-0.144531 0.63281,-0.08984 l 2.04687,0.523437 c 0.21094,0.07031 0.3711,0.203125 0.47657,0.398438 0.10547,0.195312 0.13281,0.402344 0.0742,0.617187 -0.0586,0.21875 -0.1875,0.386719 -0.38672,0.5 -0.19922,0.113281 -0.41016,0.136719 -0.62891,0.07813 l -2.04297,-0.519531 c -0.21484,-0.07031 -0.375,-0.203125 -0.48047,-0.398437 -0.10547,-0.195313 -0.1289,-0.402344 -0.0703,-0.621094 z m -0.49609,6.726562 c -0.0586,-0.21875 -0.0352,-0.425781 0.0703,-0.621094 0.10547,-0.195312 0.26562,-0.332031 0.48047,-0.398437 l 1.96484,-0.464844 c 0.21875,-0.05469 0.42969,-0.02344 0.625,0.08594 0.19531,0.113281 0.32813,0.277343 0.39453,0.496093 0.0547,0.21875 0.0274,0.425782 -0.0859,0.621094 -0.10938,0.199219 -0.27735,0.328125 -0.49219,0.390625 l -1.95703,0.46875 c -0.21485,0.05078 -0.42188,0.01953 -0.61328,-0.08984 -0.19532,-0.113282 -0.32422,-0.277344 -0.38672,-0.488282 z m 20.375,-14.71875 c -0.10547,-0.199218 -0.12891,-0.402344 -0.0742,-0.617187 0.14844,-0.589844 0.30078,-1.183594 0.4414,-1.78125 0.0625,-0.214844 0.1875,-0.378907 0.37891,-0.496094 0.20313,-0.117187 0.41797,-0.144531 0.64063,-0.082031 0.21484,0.0625 0.375,0.191406 0.48828,0.382812 0.11718,0.199219 0.14453,0.414063 0.0859,0.636719 -0.14453,0.589844 -0.29296,1.183594 -0.4375,1.777344 -0.0625,0.214843 -0.1875,0.378906 -0.3789,0.496093 -0.19531,0.117188 -0.40625,0.144532 -0.625,0.085938 -0.22266,-0.058594 -0.39063,-0.183594 -0.50391,-0.382812 z m 4.35937,2.292969 c -0.0547,-0.222656 -0.0273,-0.433594 0.082,-0.636719 l 0.59766,-1.101562 c 0.11328,-0.1875 0.27734,-0.3125 0.48828,-0.371094 0.21484,-0.054688 0.41797,-0.03125 0.61328,0.074219 0.0977,0.046875 0.17578,0.121093 0.23047,0.214843 0.0742,0.078126 0.12109,0.171876 0.14844,0.28125 0.082,0.214844 0.082,0.429688 -0.0117,0.644532 l -0.59375,1.101562 c -0.11328,0.1875 -0.27734,0.316406 -0.49219,0.378906 -0.22265,0.058594 -0.4375,0.03125 -0.63672,-0.082031 -0.0937,-0.054687 -0.17187,-0.128906 -0.23047,-0.214843 -0.0859,-0.082032 -0.14453,-0.175782 -0.17968,-0.289063 z m 2.62891,4.40625 c -0.0625,-0.222656 -0.0352,-0.433594 0.082,-0.632813 0.11328,-0.191406 0.27734,-0.316406 0.48828,-0.378906 l 2.55469,-0.941406 c 0.16797,-0.058594 0.33594,-0.058594 0.50781,-0.00781 0.16797,0.050781 0.30469,0.148437 0.41406,0.289062 0.10547,0.140625 0.16016,0.300781 0.16797,0.476562 0.004,0.175782 -0.043,0.339844 -0.14062,0.484376 -0.11719,0.1875 -0.28516,0.316406 -0.4961,0.382812 l -2.55078,0.933594 c -0.22265,0.05859 -0.43359,0.02734 -0.6289,-0.08984 -0.19922,-0.117188 -0.32813,-0.285156 -0.38282,-0.507812 z M 401.04297,21.6875 c 0.51172,-0.152344 0.92187,-0.441406 1.23047,-0.878906 0.14453,0.230468 0.35547,0.339844 0.625,0.332031 l 0.0508,0.09375 c 0.0976,0.195313 0.17578,0.394531 0.24219,0.601563 0.17578,0.488281 0.32421,0.984374 0.45703,1.484374 0.0391,0.160157 0.0781,0.320313 0.10937,0.480469 0.0781,0.941407 0.21485,1.875 0.41016,2.800781 0.0547,0.199219 0.17187,0.351563 0.33984,0.464844 0.17188,0.109375 0.35938,0.152344 0.5625,0.125 0.20313,-0.02734 0.3711,-0.117187 0.50781,-0.273437 0.13672,-0.152344 0.20313,-0.332031 0.20704,-0.535157 -0.0586,-0.953124 -0.1875,-1.898437 -0.39063,-2.835937 -0.0312,-0.429687 -0.0547,-0.859375 -0.0586,-1.292969 0,-0.65625 0,-1.316406 0.0742,-1.964844 0,-0.273437 0.0469,-0.550781 0.0898,-0.804687 0.24609,0.02734 0.49219,0.02734 0.73828,0 0.83594,-0.140625 1.49219,-0.5625 1.96875,-1.261719 0.11328,-0.199218 0.14063,-0.40625 0.0859,-0.625 -0.0586,-0.21875 -0.1875,-0.386718 -0.38281,-0.503906 -0.19532,-0.109375 -0.40625,-0.136719 -0.625,-0.08203 -0.21875,0.05859 -0.39063,0.179687 -0.50782,0.375 -0.17578,0.253906 -0.41797,0.402343 -0.72656,0.4375 -0.10156,-0.109375 -0.22656,-0.1875 -0.37109,-0.230469 -0.41016,-0.140625 -0.77735,-0.06641 -1.10157,0.226562 -0.14453,0.01953 -0.28515,0.0625 -0.41796,0.132813 -0.27735,0.15625 -0.48047,0.382813 -0.60547,0.675781 0,0.05078 -0.0977,0.25 -0.13672,0.375 -0.15625,-0.191406 -0.28516,-0.398437 -0.38672,-0.621094 -0.1875,-0.308593 -0.46094,-0.441406 -0.81641,-0.394531 -0.35937,0.04687 -0.58984,0.246094 -0.6914,0.59375 -0.0664,0.546875 -0.29297,1.011719 -0.6836,1.402344 l -0.0859,0.08203 c -0.0937,-0.132812 -0.1211,-0.28125 -0.0899,-0.441406 0.0547,-0.214844 0.0274,-0.417969 -0.0781,-0.613281 -0.10547,-0.195313 -0.26172,-0.332031 -0.47266,-0.402344 -0.21484,-0.0625 -0.42187,-0.03906 -0.62109,0.07031 -0.19532,0.105468 -0.32813,0.265624 -0.39844,0.480468 -0.17969,0.707032 -0.0586,1.355469 0.37109,1.949219 0.19141,0.238281 0.4336,0.414063 0.72657,0.519531 0.28906,0.101563 0.58984,0.125 0.89062,0.0625 z m 1.82031,-0.597656 c 0,0 0.0312,0.01172 0.0352,0.0078 z m 0.57813,-2.035156 z m -2.72266,1.023437 z m 0,0"
         fill-opacity="1"
         fill-rule="nonzero"
         id="path13" />
    </g>
  </g>
</svg>
