<?xml version="1.0" encoding="UTF-8" standalone="no"?>
<!-- Created with Inkscape (http://www.inkscape.org/) -->

<svg
   width="512"
   height="512"
   viewBox="0 0 512 512"
   version="1.1"
   id="svg1"
   inkscape:version="1.3.1 (9b9bdc1480, 2023-11-25, custom)"
   sodipodi:docname="neuralreef_icon_ai.svg"
   xmlns:inkscape="http://www.inkscape.org/namespaces/inkscape"
   xmlns:sodipodi="http://sodipodi.sourceforge.net/DTD/sodipodi-0.dtd"
   xmlns="http://www.w3.org/2000/svg"
   xmlns:svg="http://www.w3.org/2000/svg">
  <sodipodi:namedview
     id="namedview1"
     pagecolor="#ffffff"
     bordercolor="#000000"
     borderopacity="0.25"
     inkscape:showpageshadow="2"
     inkscape:pageopacity="0.0"
     inkscape:pagecheckerboard="0"
     inkscape:deskcolor="#d1d1d1"
     inkscape:document-units="px"
     inkscape:zoom="2.34375"
     inkscape:cx="255.78667"
     inkscape:cy="256"
     inkscape:window-width="2560"
     inkscape:window-height="1403"
     inkscape:window-x="0"
     inkscape:window-y="0"
     inkscape:window-maximized="1"
     inkscape:current-layer="layer1" />
  <defs
     id="defs1">
    <clipPath
       id="20aed6665c">
      <path
         d="M 664.67969,4.132812 H 793.70703 V 133.16016 H 664.67969 Z m 0,0"
         clip-rule="nonzero"
         id="path3" />
    </clipPath>
  </defs>
  <g
     inkscape:label="Layer 1"
     inkscape:groupmode="layer"
     id="layer1">
    <g
       clip-path="url(#20aed6665c)"
       id="g11"
       transform="matrix(3.7034497,0,0,3.7435509,-2444.9495,-3.3830625)">
      <path
         fill="#e6e3dd"
         d="m 680.04297,88.960938 c -0.79688,-0.445313 -1.5625,-0.902344 -2.29688,-1.371094 -8.33984,-5.28125 -13.07031,-11.929688 -13.07031,-18.976563 0,-7.042969 4.73047,-13.695312 13.07031,-18.976562 0.73438,-0.464844 1.5,-0.921875 2.29688,-1.367188 -0.2461,-0.878906 -0.46485,-1.742187 -0.65625,-2.59375 -2.16406,-9.628906 -0.80469,-17.679687 4.17578,-22.660156 4.98437,-4.980469 13.03125,-6.339844 22.66016,-4.175781 0.85156,0.191406 1.71484,0.410156 2.59375,0.65625 0.44531,-0.796875 0.90234,-1.5625 1.36718,-2.296875 5.28125,-8.339844 11.9336,-13.070313 18.97657,-13.070313 7.04687,0 13.69531,4.730469 18.97656,13.070313 0.46875,0.734375 0.92578,1.5 1.37109,2.296875 0.875,-0.246094 1.74219,-0.464844 2.59375,-0.65625 9.62891,-2.164063 17.67578,-0.804688 22.65625,4.175781 4.98047,4.980469 6.34375,13.03125 4.17969,22.660156 -0.19141,0.851563 -0.41016,1.714844 -0.65625,2.59375 0.79297,0.445313 1.55859,0.902344 2.29687,1.367188 8.33985,5.28125 13.06641,11.933593 13.06641,18.976562 0,7.046875 -4.72656,13.695313 -13.06641,18.976563 -0.73828,0.46875 -1.5039,0.925781 -2.29687,1.371094 0.24609,0.875 0.46484,1.742187 0.65625,2.59375 2.16406,9.628902 0.80078,17.675782 -4.17969,22.656252 -4.98047,4.98047 -13.02734,6.34375 -22.65625,4.17969 -0.85156,-0.19141 -1.71875,-0.41016 -2.59375,-0.65625 -0.44531,0.79296 -0.90234,1.55859 -1.37109,2.29687 -5.28125,8.33984 -11.92969,13.06641 -18.97656,13.06641 -7.04297,0 -13.69532,-4.72657 -18.97657,-13.06641 -0.46484,-0.73828 -0.92187,-1.50391 -1.36718,-2.29687 -0.87891,0.24609 -1.74219,0.46484 -2.59375,0.65625 -9.62891,2.16406 -17.67969,0.80078 -22.66016,-4.17969 -4.98047,-4.98047 -6.33984,-13.02735 -4.17578,-22.656252 0.1914,-0.851563 0.41015,-1.71875 0.65625,-2.59375 z m 1.43359,-36.265626 c -0.4414,0.261719 -0.875,0.523438 -1.29687,0.789063 -6.75782,4.28125 -10.94922,9.421875 -10.94922,15.128906 0,5.710938 4.1914,10.851563 10.94922,15.128907 0.42187,0.269531 0.85547,0.53125 1.29687,0.792968 1.85547,-5.078125 4.53125,-10.460937 7.94531,-15.921875 -3.41406,-5.460937 -6.08984,-10.839843 -7.94531,-15.917969 z m 25.22266,-29.054687 c -0.4961,-0.128906 -0.98828,-0.25 -1.47266,-0.359375 -7.80859,-1.75 -14.40625,-1.082031 -18.4414,2.957031 -4.03907,4.035157 -4.70704,10.632813 -2.95704,18.441407 0.10938,0.484374 0.23047,0.976562 0.35938,1.472656 4.90234,-2.277344 10.59766,-4.191406 16.875,-5.636719 1.44531,-6.277344 3.35937,-11.972656 5.63672,-16.875 z m 38.38281,-2.710937 c -0.26172,-0.441407 -0.52344,-0.875 -0.79297,-1.296876 -4.27734,-6.757812 -9.41797,-10.949218 -15.1289,-10.949218 -5.70704,0 -10.84766,4.191406 -15.12891,10.949218 -0.26563,0.421876 -0.52734,0.855469 -0.78906,1.296876 5.07812,1.855468 10.45703,4.53125 15.91797,7.945312 5.46093,-3.414062 10.84375,-6.089844 15.92187,-7.945312 z m 29.05469,25.222656 c 0.1289,-0.496094 0.24609,-0.988282 0.35547,-1.472656 1.7539,-7.808594 1.08203,-14.40625 -2.95313,-18.441407 -4.03906,-4.039062 -10.63672,-4.707031 -18.4414,-2.957031 -0.48829,0.109375 -0.97657,0.230469 -1.47266,0.359375 2.27734,4.902344 4.1875,10.597656 5.63672,16.875 6.27734,1.445313 11.96875,3.359375 16.875,5.636719 z m 2.71094,38.382812 c 0.4414,-0.261718 0.87109,-0.523437 1.29296,-0.792968 6.76172,-4.277344 10.94922,-9.417969 10.94922,-15.128907 0,-5.707031 -4.1875,-10.847656 -10.94922,-15.128906 -0.42187,-0.265625 -0.85156,-0.527344 -1.29296,-0.789063 -1.85938,5.078126 -4.53125,10.457032 -7.94532,15.917969 3.41407,5.460938 6.08594,10.84375 7.94532,15.921875 z M 751.625,113.58984 c 0.49609,0.12891 0.98437,0.2461 1.47266,0.35547 7.80859,1.75391 14.40234,1.08203 18.4414,-2.95312 4.03516,-4.03906 4.70703,-10.63281 2.95313,-18.441409 -0.10938,-0.488281 -0.22657,-0.976562 -0.35547,-1.472656 -4.90625,2.277344 -10.59766,4.1875 -16.875,5.636719 -1.44922,6.277346 -3.35938,11.968746 -5.63672,16.874996 z m -38.38281,2.71094 c 0.26172,0.44141 0.52343,0.8711 0.78906,1.29297 4.28125,6.76172 9.42187,10.94922 15.12891,10.94922 5.71093,0 10.85156,-4.1875 15.1289,-10.94922 0.26953,-0.42187 0.53125,-0.85156 0.79297,-1.29297 -5.07812,-1.85937 -10.46094,-4.53125 -15.92187,-7.94531 -5.46094,3.41406 -10.83985,6.08594 -15.91797,7.94531 z M 684.1875,91.078125 c -0.12891,0.496094 -0.25,0.984375 -0.35938,1.472656 -1.75,7.808599 -1.08203,14.402349 2.95704,18.441409 4.03515,4.03515 10.63281,4.70703 18.4414,2.95312 0.48438,-0.10937 0.97656,-0.22656 1.47266,-0.35547 -2.27735,-4.90625 -4.19141,-10.59765 -5.63672,-16.874996 -6.27734,-1.449219 -11.97266,-3.359375 -16.875,-5.636719 z m 15.85937,-45.652344 c -5.38671,1.363281 -10.27734,3.089844 -14.51171,5.117188 1.5625,4.429687 3.79687,9.109375 6.64453,13.878906 1.94922,-2.824219 4.08984,-5.660156 6.41406,-8.46875 0.34375,-3.628906 0.83203,-7.148437 1.45312,-10.527344 z m -7.86718,27.378907 c -2.84766,4.769531 -5.08203,9.453124 -6.64453,13.878906 4.23437,2.03125 9.125,3.757812 14.51171,5.117187 -0.62109,-3.378906 -1.10937,-6.894531 -1.45312,-10.523437 -2.32422,-2.8125 -4.46484,-5.644532 -6.41406,-8.472656 z m 32.78906,-41.171876 c -4.76953,-2.847656 -9.44922,-5.082031 -13.87891,-6.644531 -2.02734,4.234375 -3.7539,9.125 -5.11718,14.511719 3.3789,-0.621094 6.89843,-1.109375 10.52734,-1.453125 2.80859,-2.324219 5.64453,-4.464844 8.46875,-6.414063 z M 752.34766,39.5 c -1.35938,-5.386719 -3.08594,-10.277344 -5.11719,-14.511719 -4.42578,1.5625 -9.10938,3.796875 -13.87891,6.644531 2.82813,1.949219 5.66016,4.089844 8.47266,6.414063 3.6289,0.34375 7.14453,0.832031 10.52344,1.453125 z m 13.79687,24.921875 c 2.84766,-4.769531 5.08203,-9.449219 6.64453,-13.878906 -4.23828,-2.027344 -9.1289,-3.753907 -14.51172,-5.117188 0.61719,3.378907 1.10547,6.898438 1.45313,10.527344 2.32031,2.808594 4.46484,5.644531 6.41406,8.46875 z m -7.86719,27.378906 c 5.38282,-1.359375 10.27344,-3.085937 14.51172,-5.117187 -1.5625,-4.425782 -3.79687,-9.109375 -6.64453,-13.878906 -1.94922,2.828124 -4.09375,5.660156 -6.41406,8.472656 -0.34766,3.628906 -0.83594,7.144531 -1.45313,10.523437 z m -24.92578,13.796879 c 4.76953,2.84765 9.45313,5.08203 13.87891,6.64453 2.03125,-4.23828 3.75781,-9.12891 5.11719,-14.511721 -3.37891,0.617187 -6.89454,1.105469 -10.52344,1.453125 -2.8125,2.320316 -5.64453,4.464846 -8.47266,6.414066 z m -27.3789,-7.867191 c 1.36328,5.382811 3.08984,10.273441 5.11718,14.511721 4.42969,-1.5625 9.10938,-3.79688 13.87891,-6.64453 -2.82422,-1.94922 -5.66016,-4.09375 -8.46875,-6.414066 -3.62891,-0.347656 -7.14844,-0.835938 -10.52734,-1.453125 z m -7.89063,-33.75 c -1.14844,1.542969 -2.23437,3.089843 -3.25781,4.632812 1.02344,1.542969 2.10937,3.089844 3.25781,4.636719 -0.0547,-1.53125 -0.0781,-3.078125 -0.0781,-4.636719 0,-1.558593 0.0234,-3.101562 0.0781,-4.632812 z m 6.79688,-19.648438 c -0.36329,1.816407 -0.69141,3.679688 -0.97266,5.582031 1.04687,-1.117187 2.12109,-2.230468 3.22266,-3.332031 1.10156,-1.101562 2.21484,-2.175781 3.33203,-3.222656 -1.90235,0.28125 -3.76563,0.609375 -5.58203,0.972656 z m -0.97266,42.984375 c 0.28125,1.902344 0.60937,3.761719 0.97266,5.578125 1.8164,0.367188 3.67968,0.691407 5.58203,0.976563 -1.11719,-1.046875 -2.23047,-2.121094 -3.33203,-3.222656 -1.10157,-1.101563 -2.17579,-2.214844 -3.22266,-3.332032 z m 25.25391,-53.039062 c -1.54297,1.023437 -3.08985,2.109375 -4.63282,3.257812 1.53125,-0.05469 3.07422,-0.07813 4.63282,-0.07813 1.55859,0 3.10546,0.02344 4.63671,0.07813 -1.54687,-1.148437 -3.09375,-2.234375 -4.63671,-3.257812 z m 24.28125,10.054687 c -1.81641,-0.363281 -3.67579,-0.691406 -5.57813,-0.972656 1.11719,1.046875 2.23047,2.121094 3.33203,3.222656 1.10156,1.101563 2.17578,2.214844 3.22266,3.332031 -0.28516,-1.902343 -0.60938,-3.765624 -0.97656,-5.582031 z M 763.5,68.613281 c -1.02734,-1.542969 -2.11328,-3.089843 -3.25781,-4.632812 0.0508,1.53125 0.0781,3.074219 0.0781,4.632812 0,1.558594 -0.0273,3.105469 -0.0781,4.636719 1.14453,-1.546875 2.23047,-3.09375 3.25781,-4.636719 z m -10.05859,24.28125 c 0.36718,-1.816406 0.6914,-3.675781 0.97656,-5.578125 -1.04688,1.117188 -2.1211,2.230469 -3.22266,3.332032 -1.10156,1.101562 -2.21484,2.175781 -3.33203,3.222656 1.90234,-0.285156 3.76172,-0.609375 5.57813,-0.976563 z m -24.28125,10.058599 c 1.54296,-1.02735 3.08984,-2.11329 4.63671,-3.257818 -1.53125,0.05078 -3.07812,0.07813 -4.63671,0.07813 -1.5586,0 -3.10157,-0.02734 -4.63282,-0.07813 1.54297,1.144528 3.08985,2.230468 4.63282,3.257818 z m -9.81641,-29.753911 -3.40625,8.34375 -4.11328,-1.675781 9.91015,-24.308594 h 4.11719 l 9.91016,24.308594 -4.11328,1.675781 -3.40625,-8.34375 z m 7.08984,-4.445313 -2.64062,-6.472656 -2.64063,6.472656 z m 11.61328,-13.558594 h 4.44532 v 25.90625 h -4.44532 z m 0,0"
         fill-opacity="1"
         fill-rule="evenodd"
         id="path11" />
    </g>
  </g>
</svg>
